ScienceGothic-Regular.ufo
<glyph name="exclam" format="2">
  <advance width="733"/>
  <unicode hex="0021"/>
  <outline>
    <contour>
      <point x="209" y="111" type="line" smooth="yes"/>
      <point x="209" y="23"/>
      <point x="240" y="-8"/>
      <point x="328" y="-8" type="qcurve" smooth="yes"/>
      <point x="404" y="-8" type="line" smooth="yes"/>
      <point x="492" y="-8"/>
      <point x="524" y="23"/>
      <point x="524" y="111" type="qcurve" smooth="yes"/>
      <point x="524" y="190" type="line" smooth="yes"/>
      <point x="524" y="277"/>
      <point x="492" y="307"/>
      <point x="404" y="307" type="qcurve" smooth="yes"/>
      <point x="328" y="307" type="line" smooth="yes"/>
      <point x="240" y="307"/>
      <point x="209" y="276"/>
      <point x="209" y="190" type="qcurve" smooth="yes"/>
    </contour>
    <contour>
      <point x="276" y="462" type="line"/>
      <point x="457" y="462" type="line"/>
      <point x="553" y="1400" type="line"/>
      <point x="180" y="1400" type="line"/>
    </contour>
  </outline>
</glyph>
<glyph name="quotedbl" format="2">
  <advance width="1084"/>
  <unicode hex="0022"/>
  <outline>
    <contour>
      <point x="180" y="1256" type="line"/>
      <point x="260" y="855" type="line"/>
      <point x="372" y="855" type="line"/>
      <point x="452" y="1256" type="line"/>
      <point x="452" y="1355" type="line" smooth="yes"/>
      <point x="452" y="1442"/>
      <point x="426" y="1472"/>
      <point x="353" y="1472" type="qcurve" smooth="yes"/>
      <point x="279" y="1472" type="line" smooth="yes"/>
      <point x="206" y="1472"/>
      <point x="180" y="1442"/>
      <point x="180" y="1355" type="qcurve" smooth="yes"/>
    </contour>
    <contour>
      <point x="632" y="1256" type="line"/>
      <point x="712" y="855" type="line"/>
      <point x="824" y="855" type="line"/>
      <point x="904" y="1256" type="line"/>
      <point x="904" y="1355" type="line" smooth="yes"/>
      <point x="904" y="1442"/>
      <point x="878" y="1472"/>
      <point x="805" y="1472" type="qcurve" smooth="yes"/>
      <point x="731" y="1472" type="line" smooth="yes"/>
      <point x="658" y="1472"/>
      <point x="632" y="1442"/>
      <point x="632" y="1355" type="qcurve" smooth="yes"/>
    </contour>
  </outline>
</glyph>
<glyph name="dollar" format="2">
  <advance width="1592" height="1448"/>
  <unicode hex="0024"/>
  <outline>
    <contour>
      <point x="710" y="-164" type="line"/>
      <point x="710" y="16" type="line"/>
      <point x="462" y="16" type="line" smooth="yes"/>
      <point x="383" y="16"/>
      <point x="256" y="39"/>
      <point x="167" y="102"/>
      <point x="120" y="214"/>
      <point x="120" y="302" type="qcurve" smooth="yes"/>
      <point x="120" y="364" type="line"/>
      <point x="372" y="416" type="line"/>
      <point x="372" y="260" type="line"/>
      <point x="372" y="260"/>
      <point x="372" y="260"/>
      <point x="372" y="260"/>
      <point x="372" y="260"/>
      <point x="372" y="260" type="qcurve"/>
      <point x="710" y="260" type="line"/>
      <point x="710" y="586" type="line"/>
      <point x="492" y="586" type="line" smooth="yes"/>
      <point x="413" y="586"/>
      <point x="286" y="610"/>
      <point x="197" y="673"/>
      <point x="150" y="786"/>
      <point x="150" y="874" type="qcurve" smooth="yes"/>
      <point x="150" y="1110" type="line" smooth="yes"/>
      <point x="150" y="1196"/>
      <point x="200" y="1303"/>
      <point x="290" y="1363"/>
      <point x="416" y="1384"/>
      <point x="492" y="1384" type="qcurve" smooth="yes"/>
      <point x="710" y="1384" type="line"/>
      <point x="710" y="1564" type="line"/>
      <point x="924" y="1564" type="line"/>
      <point x="924" y="1384" type="line"/>
      <point x="1098" y="1384" type="line" smooth="yes"/>
      <point x="1175" y="1384"/>
      <point x="1301" y="1363"/>
      <point x="1392" y="1303"/>
      <point x="1442" y="1196"/>
      <point x="1442" y="1110" type="qcurve" smooth="yes"/>
      <point x="1442" y="1040" type="line"/>
      <point x="1190" y="990" type="line"/>
      <point x="1190" y="1140" type="line"/>
      <point x="1190" y="1140"/>
      <point x="1190" y="1140"/>
      <point x="1190" y="1140"/>
      <point x="1190" y="1140"/>
      <point x="1190" y="1140" type="qcurve"/>
      <point x="924" y="1140" type="line"/>
      <point x="924" y="830" type="line"/>
      <point x="1118" y="830" type="line" smooth="yes"/>
      <point x="1195" y="830"/>
      <point x="1321" y="809"/>
      <point x="1412" y="749"/>
      <point x="1462" y="642"/>
      <point x="1462" y="556" type="qcurve" smooth="yes"/>
      <point x="1462" y="302" type="line" smooth="yes"/>
      <point x="1462" y="214"/>
      <point x="1415" y="102"/>
      <point x="1326" y="39"/>
      <point x="1198" y="16"/>
      <point x="1118" y="16" type="qcurve" smooth="yes"/>
      <point x="924" y="16" type="line"/>
      <point x="924" y="-164" type="line"/>
    </contour>
    <contour>
      <point x="710" y="830" type="line"/>
      <point x="710" y="1140" type="line"/>
      <point x="402" y="1140" type="line"/>
      <point x="402" y="1140"/>
      <point x="402" y="1140"/>
      <point x="402" y="1140"/>
      <point x="402" y="1140"/>
      <point x="402" y="1140" type="qcurve"/>
      <point x="402" y="830" type="line"/>
      <point x="402" y="830"/>
      <point x="402" y="830"/>
      <point x="402" y="830"/>
      <point x="402" y="830"/>
      <point x="402" y="830" type="qcurve"/>
    </contour>
    <contour>
      <point x="924" y="260" type="line"/>
      <point x="1210" y="260" type="line"/>
      <point x="1210" y="260"/>
      <point x="1210" y="260"/>
      <point x="1210" y="260"/>
      <point x="1210" y="260"/>
      <point x="1210" y="260" type="qcurve"/>
      <point x="1210" y="586" type="line"/>
      <point x="1210" y="586"/>
      <point x="1210" y="586"/>
      <point x="1210" y="586"/>
      <point x="1210" y="586"/>
      <point x="1210" y="586" type="qcurve"/>
      <point x="924" y="586" type="line"/>
    </contour>
  </outline>
</glyph>
<glyph name="percent" format="2">
  <advance width="2457"/>
  <unicode hex="0025"/>
  <outline>
    <contour>
      <point x="369" y="614" type="qcurve" smooth="yes"/>
      <point x="778" y="614" type="line" smooth="yes"/>
      <point x="873.834" y="614"/>
      <point x="988" y="666.601"/>
      <point x="988" y="773" type="qcurve" smooth="yes"/>
      <point x="988" y="1270" type="line" smooth="yes"/>
      <point x="988" y="1371.87"/>
      <point x="866.288" y="1420"/>
      <point x="778" y="1420" type="qcurve" smooth="yes"/>
      <point x="369" y="1420" type="line" smooth="yes"/>
      <point x="279.957" y="1420"/>
      <point x="160" y="1371.87"/>
      <point x="160" y="1270" type="qcurve" smooth="yes"/>
      <point x="160" y="773" type="line" smooth="yes"/>
      <point x="160" y="668.111"/>
      <point x="273.166" y="614"/>
    </contour>
    <contour>
      <point x="360" y="792" type="line"/>
      <point x="360" y="792"/>
      <point x="360" y="792"/>
      <point x="360" y="792" type="qcurve"/>
      <point x="360" y="1242" type="line"/>
      <point x="360" y="1242"/>
      <point x="360" y="1242"/>
      <point x="360" y="1242" type="qcurve"/>
      <point x="788" y="1242" type="line"/>
      <point x="788" y="1242"/>
      <point x="788" y="1242"/>
      <point x="788" y="1242" type="qcurve"/>
      <point x="788" y="792" type="line"/>
      <point x="788" y="792"/>
      <point x="788" y="792"/>
      <point x="788" y="792" type="qcurve"/>
    </contour>
    <contour>
      <point x="1581" y="1400" type="line"/>
      <point x="653" y="0" type="line"/>
      <point x="876" y="0" type="line"/>
      <point x="1804" y="1400" type="line"/>
    </contour>
    <contour>
      <point x="1678" y="-11" type="qcurve" smooth="yes"/>
      <point x="2087" y="-11" type="line" smooth="yes"/>
      <point x="2182.83" y="-11"/>
      <point x="2297" y="41.6014"/>
      <point x="2297" y="148" type="qcurve" smooth="yes"/>
      <point x="2297" y="645" type="line" smooth="yes"/>
      <point x="2297" y="746.871"/>
      <point x="2175.29" y="795"/>
      <point x="2087" y="795" type="qcurve" smooth="yes"/>
      <point x="1678" y="795" type="line" smooth="yes"/>
      <point x="1588.96" y="795"/>
      <point x="1469" y="746.871"/>
      <point x="1469" y="645" type="qcurve" smooth="yes"/>
      <point x="1469" y="148" type="line" smooth="yes"/>
      <point x="1469" y="43.1106"/>
      <point x="1582.17" y="-11"/>
    </contour>
    <contour>
      <point x="1669" y="167" type="line"/>
      <point x="1669" y="167"/>
      <point x="1669" y="167"/>
      <point x="1669" y="167" type="qcurve"/>
      <point x="1669" y="617" type="line"/>
      <point x="1669" y="617"/>
      <point x="1669" y="617"/>
      <point x="1669" y="617" type="qcurve"/>
      <point x="2097" y="617" type="line"/>
      <point x="2097" y="617"/>
      <point x="2097" y="617"/>
      <point x="2097" y="617" type="qcurve"/>
      <point x="2097" y="167" type="line"/>
      <point x="2097" y="167"/>
      <point x="2097" y="167"/>
      <point x="2097" y="167" type="qcurve"/>
    </contour>
  </outline>
  <guideline angle="90" color="0.4,0.4,0.4,1" name="halfwidth" x="1228.5" y="0"/>
  <guideline angle="90" color="0.4,0.4,0.4,1" name="halfwidth" x="1228.5" y="0"/>
</glyph>
<glyph name="ampersand" format="2">
  <advance width="1652"/>
  <unicode hex="0026"/>
  <outline>
    <contour>
      <point x="302" y="-10" type="qcurve" smooth="yes"/>
      <point x="720" y="-10" type="line" smooth="yes"/>
      <point x="769.125" y="-10"/>
      <point x="842.625" y="-0.21875"/>
      <point x="903.375" y="22.4688"/>
      <point x="957.375" y="59.625"/>
      <point x="987" y="87" type="qcurve" smooth="yes"/>
      <point x="1102" y="194" type="line"/>
      <point x="1294" y="0" type="line"/>
      <point x="1652" y="0" type="line"/>
      <point x="1289" y="367" type="line"/>
      <point x="1556" y="616" type="line"/>
      <point x="1396" y="776" type="line"/>
      <point x="1129" y="527" type="line"/>
      <point x="584" y="1074" type="line"/>
      <point x="584" y="1074"/>
      <point x="584" y="1074"/>
      <point x="584" y="1074" type="qcurve"/>
      <point x="584" y="1178" type="line"/>
      <point x="584" y="1178"/>
      <point x="584" y="1178"/>
      <point x="584" y="1178" type="qcurve"/>
      <point x="940" y="1178" type="line"/>
      <point x="940" y="1178"/>
      <point x="940" y="1178"/>
      <point x="940" y="1178" type="qcurve"/>
      <point x="940" y="968" type="line"/>
      <point x="1164" y="1012" type="line"/>
      <point x="1164" y="1164" type="line" smooth="yes"/>
      <point x="1164" y="1280.96"/>
      <point x="1010.83" y="1414"/>
      <point x="875" y="1414" type="qcurve" smooth="yes"/>
      <point x="602" y="1414" type="line" smooth="yes"/>
      <point x="472.209" y="1414"/>
      <point x="330" y="1279"/>
      <point x="330" y="1156" type="qcurve" smooth="yes"/>
      <point x="330" y="1120" type="line" smooth="yes"/>
      <point x="330" y="1073.88"/>
      <point x="344.25" y="1001.16"/>
      <point x="374.25" y="937.594"/>
      <point x="420.75" y="878"/>
      <point x="453" y="845" type="qcurve"/>
      <point x="152" y="644" type="line" smooth="yes"/>
      <point x="99.178" y="608.534"/>
      <point x="50" y="520.859"/>
      <point x="50" y="462" type="qcurve" smooth="yes"/>
      <point x="50" y="204" type="line" smooth="yes"/>
      <point x="50" y="151.5"/>
      <point x="82.3438" y="71.5"/>
      <point x="145.906" y="17.5"/>
      <point x="240.125" y="-10"/>
    </contour>
    <contour>
      <point x="308" y="222" type="line"/>
      <point x="308" y="222"/>
      <point x="308" y="222"/>
      <point x="308" y="222" type="qcurve"/>
      <point x="308" y="468" type="line"/>
      <point x="308" y="468"/>
      <point x="308" y="468"/>
      <point x="308" y="468" type="qcurve"/>
      <point x="620" y="678" type="line"/>
      <point x="942" y="354" type="line"/>
      <point x="800" y="222" type="line"/>
      <point x="800" y="222"/>
      <point x="800" y="222"/>
      <point x="800" y="222" type="qcurve"/>
    </contour>
  </outline>
</glyph>
<glyph name="quotesingle" format="2">
  <advance width="632"/>
  <unicode hex="0027"/>
  <outline>
    <contour>
      <point x="180" y="1236" type="line"/>
      <point x="260" y="835" type="line"/>
      <point x="372" y="835" type="line"/>
      <point x="452" y="1236" type="line"/>
      <point x="452" y="1335" type="line" smooth="yes"/>
      <point x="452" y="1422"/>
      <point x="426" y="1452"/>
      <point x="353" y="1452" type="qcurve" smooth="yes"/>
      <point x="279" y="1452" type="line" smooth="yes"/>
      <point x="206" y="1452"/>
      <point x="180" y="1422"/>
      <point x="180" y="1335" type="qcurve" smooth="yes"/>
    </contour>
  </outline>
</glyph>
<glyph name="parenleft" format="2">
  <advance width="634.5" height="1448"/>
  <unicode hex="0028"/>
  <outline>
    <contour>
      <point x="624.5" y="-256" type="line"/>
      <point x="436.5" y="-256" type="line"/>
      <point x="367.5" y="-188"/>
      <point x="253.5" y="-7"/>
      <point x="172.5" y="211"/>
      <point x="127.5" y="460"/>
      <point x="127.5" y="597" type="qcurve" smooth="yes"/>
      <point x="127.5" y="734"/>
      <point x="172.5" y="980"/>
      <point x="253.5" y="1195"/>
      <point x="367.5" y="1376"/>
      <point x="436.5" y="1448" type="qcurve"/>
      <point x="624.5" y="1448" type="line"/>
      <point x="582.5" y="1399"/>
      <point x="511.5" y="1283"/>
      <point x="454.5" y="1152"/>
      <point x="410.5" y="1007"/>
      <point x="380.5" y="851"/>
      <point x="365.5" y="684"/>
      <point x="365.5" y="597" type="qcurve" smooth="yes"/>
      <point x="365.5" y="510"/>
      <point x="380.5" y="343"/>
      <point x="410.5" y="186"/>
      <point x="454.5" y="41"/>
      <point x="511.5" y="-90"/>
      <point x="582.5" y="-206"/>
      <point x="624.5" y="-256" type="qcurve"/>
    </contour>
  </outline>
</glyph>
<glyph name="parenright" format="2">
  <advance width="634"/>
  <unicode hex="0029"/>
  <outline>
    <contour>
      <point x="10" y="1448" type="line"/>
      <point x="73" y="1374"/>
      <point x="169" y="1187"/>
      <point x="235" y="970"/>
      <point x="269" y="726"/>
      <point x="269" y="595" type="qcurve" smooth="yes"/>
      <point x="269" y="464"/>
      <point x="235" y="221"/>
      <point x="169" y="4"/>
      <point x="73" y="-182"/>
      <point x="10" y="-256" type="qcurve"/>
      <point x="198" y="-256" type="line"/>
      <point x="267" y="-184"/>
      <point x="381" y="-3"/>
      <point x="462" y="212"/>
      <point x="507" y="458"/>
      <point x="507" y="595" type="qcurve" smooth="yes"/>
      <point x="507" y="870"/>
      <point x="337" y="1311"/>
      <point x="198" y="1448" type="qcurve"/>
    </contour>
  </outline>
</glyph>
<glyph name="asterisk" format="2">
  <advance width="1014"/>
  <unicode hex="002A"/>
  <outline>
    <contour>
      <point x="438" y="778" type="line"/>
      <point x="576" y="778" type="line"/>
      <point x="571" y="999" type="line"/>
      <point x="755" y="875" type="line"/>
      <point x="834" y="988" type="line"/>
      <point x="625" y="1115" type="line"/>
      <point x="831" y="1241" type="line"/>
      <point x="757" y="1348" type="line"/>
      <point x="571" y="1222" type="line"/>
      <point x="576" y="1448" type="line"/>
      <point x="438" y="1448" type="line"/>
      <point x="443" y="1227" type="line"/>
      <point x="259" y="1351" type="line"/>
      <point x="180" y="1238" type="line"/>
      <point x="393" y="1108" type="line"/>
      <point x="185" y="982" type="line"/>
      <point x="259" y="875" type="line"/>
      <point x="443" y="999" type="line"/>
    </contour>
  </outline>
</glyph>
<glyph name="plus" format="2">
  <advance width="1438"/>
  <unicode hex="002B"/>
  <outline>
    <contour>
      <point x="1308" y="691" type="line"/>
      <point x="831" y="691" type="line"/>
      <point x="831" y="1168" type="line"/>
      <point x="607" y="1168" type="line"/>
      <point x="607" y="691" type="line"/>
      <point x="130" y="691" type="line"/>
      <point x="130" y="483" type="line"/>
      <point x="607" y="483" type="line"/>
      <point x="607" y="0" type="line"/>
      <point x="831" y="0" type="line"/>
      <point x="831" y="483" type="line"/>
      <point x="1308" y="483" type="line"/>
    </contour>
  </outline>
</glyph>
<glyph name="comma" format="2">
  <advance width="675"/>
  <unicode hex="002C"/>
  <outline>
    <contour>
      <point x="289" y="-302" type="line"/>
      <point x="461" y="-16" type="line" smooth="yes"/>
      <point x="481" y="17"/>
      <point x="495" y="73"/>
      <point x="495" y="119" type="qcurve" smooth="yes"/>
      <point x="495" y="190" type="line" smooth="yes"/>
      <point x="495" y="277"/>
      <point x="464" y="307"/>
      <point x="376" y="307" type="qcurve" smooth="yes"/>
      <point x="299" y="307" type="line" smooth="yes"/>
      <point x="211" y="307"/>
      <point x="180" y="276"/>
      <point x="180" y="190" type="qcurve" smooth="yes"/>
      <point x="180" y="119" type="line" smooth="yes"/>
      <point x="180" y="31"/>
      <point x="211" y="0"/>
      <point x="299" y="0" type="qcurve" smooth="yes"/>
      <point x="327" y="0" type="line"/>
      <point x="197" y="-270" type="line"/>
    </contour>
  </outline>
</glyph>
<glyph name="hyphen" format="2">
  <advance width="1030" height="1448"/>
  <unicode hex="002D"/>
  <outline>
    <contour>
      <point x="140" y="712" type="line"/>
      <point x="890" y="712" type="line"/>
      <point x="890" y="488" type="line"/>
      <point x="140" y="488" type="line"/>
    </contour>
  </outline>
  <guideline angle="0" x="0" y="600"/>
</glyph>
<glyph name="period" format="2">
  <advance width="675"/>
  <unicode hex="002E"/>
  <outline>
    <contour>
      <point x="180" y="111" type="line" smooth="yes"/>
      <point x="180" y="23"/>
      <point x="211" y="-8"/>
      <point x="299" y="-8" type="qcurve" smooth="yes"/>
      <point x="375" y="-8" type="line" smooth="yes"/>
      <point x="463" y="-8"/>
      <point x="495" y="23"/>
      <point x="495" y="111" type="qcurve" smooth="yes"/>
      <point x="495" y="190" type="line" smooth="yes"/>
      <point x="495" y="277"/>
      <point x="463" y="307"/>
      <point x="375" y="307" type="qcurve" smooth="yes"/>
      <point x="299" y="307" type="line" smooth="yes"/>
      <point x="211" y="307"/>
      <point x="180" y="276"/>
      <point x="180" y="190" type="qcurve" smooth="yes"/>
    </contour>
  </outline>
</glyph>
<glyph name="slash" format="2">
  <advance width="967"/>
  <unicode hex="002F"/>
  <outline>
    <contour>
      <point x="647" y="1430" type="line"/>
      <point x="90" y="-100" type="line"/>
      <point x="320" y="-100" type="line"/>
      <point x="877" y="1430" type="line"/>
    </contour>
  </outline>
</glyph>
<glyph name="zero" format="2">
  <advance width="1752"/>
  <unicode hex="0030"/>
  <outline>
    <contour>
      <point x="542" y="-14" type="qcurve" smooth="yes"/>
      <point x="1208" y="-14" type="line" smooth="yes"/>
      <point x="1369" y="-14"/>
      <point x="1552" y="94"/>
      <point x="1552" y="272" type="qcurve" smooth="yes"/>
      <point x="1552" y="1140" type="line" smooth="yes"/>
      <point x="1552" y="1311"/>
      <point x="1360" y="1414"/>
      <point x="1208" y="1414" type="qcurve" smooth="yes"/>
      <point x="542" y="1414" type="line" smooth="yes"/>
      <point x="391" y="1414"/>
      <point x="200" y="1311"/>
      <point x="200" y="1140" type="qcurve" smooth="yes"/>
      <point x="200" y="272" type="line" smooth="yes"/>
      <point x="200" y="95"/>
      <point x="381" y="-14"/>
    </contour>
    <contour>
      <point x="464" y="230" type="line"/>
      <point x="464" y="230"/>
      <point x="464" y="229"/>
      <point x="464" y="230" type="qcurve"/>
      <point x="464" y="1171" type="line"/>
      <point x="464" y="1171"/>
      <point x="464" y="1170"/>
      <point x="464" y="1170" type="qcurve"/>
      <point x="1288" y="1170" type="line"/>
      <point x="1288" y="1170"/>
      <point x="1288" y="1170"/>
      <point x="1288" y="1170" type="qcurve"/>
      <point x="1288" y="230" type="line"/>
      <point x="1288" y="230"/>
      <point x="1288" y="230"/>
      <point x="1288" y="230" type="qcurve"/>
    </contour>
  </outline>
  <guideline angle="90" color="0.4,0.4,0.4,1" name="halfwidth" x="876" y="0"/>
</glyph>
<glyph name="two" format="2">
  <advance width="1650"/>
  <unicode hex="0032"/>
  <outline>
    <contour>
      <point x="200" y="0" type="line"/>
      <point x="1172" y="0" type="line" smooth="yes"/>
      <point x="1314.5" y="0"/>
      <point x="1490" y="101"/>
      <point x="1490" y="260" type="qcurve" smooth="yes"/>
      <point x="1490" y="382" type="line"/>
      <point x="1226" y="426" type="line"/>
      <point x="1226" y="244" type="line"/>
      <point x="1226" y="244"/>
      <point x="1226" y="244"/>
      <point x="1226" y="244" type="qcurve"/>
      <point x="464" y="244" type="line"/>
      <point x="464" y="290" type="line" smooth="yes"/>
      <point x="464" y="333.012"/>
      <point x="514.859" y="389.589"/>
      <point x="579" y="416" type="qcurve" smooth="yes"/>
      <point x="1264" y="701" type="line" smooth="yes"/>
      <point x="1304.5" y="717.875"/>
      <point x="1371.5" y="769.469"/>
      <point x="1419.5" y="836.781"/>
      <point x="1446" y="918.75"/>
      <point x="1446" y="966" type="qcurve" smooth="yes"/>
      <point x="1446" y="1166" type="line" smooth="yes"/>
      <point x="1446" y="1227.5"/>
      <point x="1406.25" y="1320.38"/>
      <point x="1326.75" y="1382.62"/>
      <point x="1207.5" y="1414"/>
      <point x="1128" y="1414" type="qcurve" smooth="yes"/>
      <point x="534" y="1414" type="line" smooth="yes"/>
      <point x="454.5" y="1414"/>
      <point x="335.25" y="1378.25"/>
      <point x="255.75" y="1310.75"/>
      <point x="216" y="1213.5"/>
      <point x="216" y="1152" type="qcurve" smooth="yes"/>
      <point x="216" y="936" type="line"/>
      <point x="480" y="882" type="line"/>
      <point x="480" y="1170" type="line"/>
      <point x="480" y="1170"/>
      <point x="480" y="1170"/>
      <point x="480" y="1170" type="qcurve"/>
      <point x="1182" y="1170" type="line"/>
      <point x="1182" y="1170"/>
      <point x="1182" y="1170"/>
      <point x="1182" y="1170" type="qcurve"/>
      <point x="1182" y="1002" type="line" smooth="yes"/>
      <point x="1182" y="957"/>
      <point x="1156.25" y="911"/>
      <point x="1106" y="890" type="qcurve" smooth="yes"/>
      <point x="382" y="589" type="line" smooth="yes"/>
      <point x="292.75" y="551.5"/>
      <point x="200" y="404"/>
      <point x="200" y="311" type="qcurve" smooth="yes"/>
    </contour>
  </outline>
</glyph>
<glyph name="five" format="2">
  <advance width="1538" height="1448"/>
  <unicode hex="0035"/>
  <outline>
    <contour>
      <point x="774" y="-12" type="line"/>
      <point x="713" y="-12"/>
      <point x="555" y="-7"/>
      <point x="393" y="5"/>
      <point x="245" y="28"/>
      <point x="192" y="46" type="qcurve"/>
      <point x="132" y="290" type="line"/>
      <point x="171" y="281"/>
      <point x="256" y="263"/>
      <point x="354" y="248"/>
      <point x="465" y="236"/>
      <point x="594" y="227"/>
      <point x="740" y="222"/>
      <point x="824" y="222" type="qcurve" smooth="yes"/>
      <point x="905" y="222"/>
      <point x="1027" y="240"/>
      <point x="1108" y="288"/>
      <point x="1148" y="370"/>
      <point x="1148" y="434" type="qcurve" smooth="yes"/>
      <point x="1148" y="491"/>
      <point x="1116" y="573"/>
      <point x="1033" y="627"/>
      <point x="890" y="652"/>
      <point x="778" y="652" type="qcurve" smooth="yes"/>
      <point x="682" y="652"/>
      <point x="508" y="642"/>
      <point x="348" y="624"/>
      <point x="198" y="602"/>
      <point x="126" y="590" type="qcurve"/>
      <point x="192" y="1400" type="line"/>
      <point x="1234" y="1400" type="line"/>
      <point x="1182" y="1156" type="line"/>
      <point x="384" y="1156" type="line"/>
      <point x="360" y="844" type="line"/>
      <point x="396" y="853"/>
      <point x="490" y="868"/>
      <point x="603" y="880"/>
      <point x="735" y="886"/>
      <point x="808" y="886" type="qcurve" smooth="yes"/>
      <point x="908" y="886"/>
      <point x="1075" y="863"/>
      <point x="1209" y="816"/>
      <point x="1311" y="743"/>
      <point x="1378" y="642"/>
      <point x="1412" y="514"/>
      <point x="1412" y="434" type="qcurve" smooth="yes"/>
      <point x="1412" y="339"/>
      <point x="1364" y="199"/>
      <point x="1278" y="100"/>
      <point x="1160" y="37"/>
      <point x="1018" y="1"/>
      <point x="858" y="-12"/>
      <point x="774" y="-12" type="qcurve"/>
    </contour>
  </outline>
</glyph>
<glyph name="six" format="2">
  <advance width="1610"/>
  <unicode hex="0036"/>
  <outline>
    <contour>
      <point x="820" y="-14" type="qcurve" smooth="yes"/>
      <point x="1020" y="-14"/>
      <point x="1269" y="10"/>
      <point x="1410" y="100"/>
      <point x="1460" y="276"/>
      <point x="1460" y="428" type="qcurve" smooth="yes"/>
      <point x="1460" y="570"/>
      <point x="1394" y="738"/>
      <point x="1244" y="826"/>
      <point x="1004" y="852"/>
      <point x="830" y="852" type="qcurve" smooth="yes"/>
      <point x="765" y="852"/>
      <point x="623" y="841"/>
      <point x="482" y="818"/>
      <point x="349" y="783"/>
      <point x="292" y="758" type="qcurve"/>
      <point x="292" y="548" type="line"/>
      <point x="335" y="562"/>
      <point x="467" y="588"/>
      <point x="617" y="607"/>
      <point x="769" y="618"/>
      <point x="830" y="618" type="qcurve" smooth="yes"/>
      <point x="938" y="618"/>
      <point x="1079" y="605"/>
      <point x="1163" y="565"/>
      <point x="1196" y="490"/>
      <point x="1196" y="428" type="qcurve" smooth="yes"/>
      <point x="1196" y="366"/>
      <point x="1174" y="289"/>
      <point x="1097" y="247"/>
      <point x="949" y="232"/>
      <point x="824" y="232" type="qcurve" smooth="yes"/>
      <point x="706" y="232"/>
      <point x="549" y="243"/>
      <point x="454" y="288"/>
      <point x="414" y="376"/>
      <point x="414" y="452" type="qcurve" smooth="yes"/>
      <point x="414" y="664"/>
      <point x="480" y="949"/>
      <point x="636" y="1122"/>
      <point x="893" y="1196"/>
      <point x="1084" y="1196" type="qcurve" smooth="yes"/>
      <point x="1115" y="1196"/>
      <point x="1172" y="1195"/>
      <point x="1222" y="1193"/>
      <point x="1263" y="1190"/>
      <point x="1276" y="1188" type="qcurve"/>
      <point x="1114" y="1414" type="line"/>
      <point x="1103" y="1416"/>
      <point x="1048" y="1418"/>
      <point x="998" y="1418" type="qcurve" smooth="yes"/>
      <point x="771" y="1418"/>
      <point x="449" y="1280"/>
      <point x="245" y="1031"/>
      <point x="150" y="685"/>
      <point x="150" y="478" type="qcurve" smooth="yes"/>
      <point x="150" y="301"/>
      <point x="206" y="103"/>
      <point x="355" y="7"/>
      <point x="615" y="-14"/>
    </contour>
  </outline>
</glyph>
<glyph name="eight" format="2">
  <advance width="1752"/>
  <unicode hex="0038"/>
  <outline>
    <contour>
      <point x="444" y="346" type="qcurve" smooth="yes"/>
      <point x="444" y="480" type="line" smooth="yes"/>
      <point x="444" y="503"/>
      <point x="459" y="540"/>
      <point x="486" y="567"/>
      <point x="522" y="582"/>
      <point x="544" y="582" type="qcurve" smooth="yes"/>
      <point x="1206" y="582" type="line" smooth="yes"/>
      <point x="1229" y="582"/>
      <point x="1266" y="567"/>
      <point x="1293" y="540"/>
      <point x="1308" y="503"/>
      <point x="1308" y="480" type="qcurve" smooth="yes"/>
      <point x="1308" y="346" type="line" smooth="yes"/>
      <point x="1308" y="296"/>
      <point x="1244" y="230"/>
      <point x="1194" y="230" type="qcurve" smooth="yes"/>
      <point x="558" y="230" type="line" smooth="yes"/>
      <point x="508" y="230"/>
      <point x="444" y="296"/>
    </contour>
    <contour>
      <point x="1278" y="1062" type="qcurve" smooth="yes"/>
      <point x="1278" y="926" type="line" smooth="yes"/>
      <point x="1278" y="882"/>
      <point x="1221" y="826"/>
      <point x="1176" y="826" type="qcurve" smooth="yes"/>
      <point x="576" y="826" type="line" smooth="yes"/>
      <point x="531" y="826"/>
      <point x="474" y="882"/>
      <point x="474" y="926" type="qcurve" smooth="yes"/>
      <point x="474" y="1062" type="line" smooth="yes"/>
      <point x="474" y="1110"/>
      <point x="536" y="1170"/>
      <point x="584" y="1170" type="qcurve" smooth="yes"/>
      <point x="1170" y="1170" type="line" smooth="yes"/>
      <point x="1217" y="1170"/>
      <point x="1278" y="1110"/>
    </contour>
    <contour>
      <point x="180" y="266" type="line" smooth="yes"/>
      <point x="180" y="186"/>
      <point x="232" y="78"/>
      <point x="322" y="13"/>
      <point x="446" y="-14"/>
      <point x="518" y="-14" type="qcurve" smooth="yes"/>
      <point x="1234" y="-14" type="line" smooth="yes"/>
      <point x="1380" y="-14"/>
      <point x="1572" y="106"/>
      <point x="1572" y="266" type="qcurve" smooth="yes"/>
      <point x="1572" y="458" type="line" smooth="yes"/>
      <point x="1572" y="595"/>
      <point x="1437" y="699"/>
      <point x="1312" y="712" type="qcurve"/>
      <point x="1431" y="729"/>
      <point x="1542" y="860"/>
      <point x="1542" y="964" type="qcurve" smooth="yes"/>
      <point x="1542" y="1146" type="line" smooth="yes"/>
      <point x="1542" y="1270"/>
      <point x="1384" y="1414"/>
      <point x="1224" y="1414" type="qcurve" smooth="yes"/>
      <point x="528" y="1414" type="line" smooth="yes"/>
      <point x="368" y="1414"/>
      <point x="210" y="1270"/>
      <point x="210" y="1146" type="qcurve" smooth="yes"/>
      <point x="210" y="964" type="line" smooth="yes"/>
      <point x="210" y="860"/>
      <point x="319" y="729"/>
      <point x="440" y="712" type="qcurve"/>
      <point x="315" y="698"/>
      <point x="180" y="594"/>
      <point x="180" y="458" type="qcurve" smooth="yes"/>
    </contour>
  </outline>
</glyph>
<glyph name="nine" format="2">
  <advance width="1650"/>
  <unicode hex="0039"/>
  <outline>
    <contour>
      <point x="800" y="1416" type="qcurve" smooth="yes"/>
      <point x="600.5" y="1416"/>
      <point x="350.625" y="1381.38"/>
      <point x="210.375" y="1284.62"/>
      <point x="160" y="1112"/>
      <point x="160" y="974" type="qcurve" smooth="yes"/>
      <point x="160" y="844.625"/>
      <point x="212.594" y="679.781"/>
      <point x="352.656" y="585.469"/>
      <point x="597.625" y="550"/>
      <point x="790" y="550" type="qcurve" smooth="yes"/>
      <point x="865" y="550"/>
      <point x="1013.91" y="563.062"/>
      <point x="1152.84" y="587.438"/>
      <point x="1277.38" y="622.25"/>
      <point x="1328" y="644" type="qcurve"/>
      <point x="1328" y="866" type="line"/>
      <point x="1287.12" y="852.5"/>
      <point x="1156.88" y="827.25"/>
      <point x="1007.62" y="807.75"/>
      <point x="854.125" y="796"/>
      <point x="790" y="796" type="qcurve" smooth="yes"/>
      <point x="676" y="796"/>
      <point x="533.125" y="810.938"/>
      <point x="452.875" y="852.562"/>
      <point x="424" y="926.75"/>
      <point x="424" y="986" type="qcurve" smooth="yes"/>
      <point x="424" y="1050.12"/>
      <point x="448.844" y="1127.41"/>
      <point x="527.406" y="1168.84"/>
      <point x="674.125" y="1182"/>
      <point x="796" y="1182" type="qcurve" smooth="yes"/>
      <point x="909.25" y="1182"/>
      <point x="1065.69" y="1162.41"/>
      <point x="1162.81" y="1100.34"/>
      <point x="1206" y="984.375"/>
      <point x="1206" y="888" type="qcurve" smooth="yes"/>
      <point x="1206" y="683.25"/>
      <point x="1144.56" y="418.938"/>
      <point x="991.938" y="265.562"/>
      <point x="733.25" y="206"/>
      <point x="536" y="206" type="qcurve" smooth="yes"/>
      <point x="500.375" y="206"/>
      <point x="440.469" y="207.094"/>
      <point x="392.281" y="209.156"/>
      <point x="356" y="212.125"/>
      <point x="344" y="214" type="qcurve"/>
      <point x="506" y="-12" type="line"/>
      <point x="519.583" y="-14.2638"/>
      <point x="580.497" y="-16"/>
      <point x="622" y="-16" type="qcurve" smooth="yes"/>
      <point x="847" y="-16"/>
      <point x="1168.25" y="87.375"/>
      <point x="1373.75" y="299.625"/>
      <point x="1470" y="623.5"/>
      <point x="1470" y="844" type="qcurve" smooth="yes"/>
      <point x="1470" y="1019.88"/>
      <point x="1415.03" y="1242.59"/>
      <point x="1266.72" y="1369.16"/>
      <point x="1005.88" y="1416"/>
    </contour>
  </outline>
</glyph>
<glyph name="colon" format="2">
  <advance width="675"/>
  <unicode hex="003A"/>
  <outline>
    <contour>
      <point x="180" y="111" type="line" smooth="yes"/>
      <point x="180" y="67.125"/>
      <point x="184.281" y="18.9688"/>
      <point x="206.969" y="-3.71875"/>
      <point x="255.125" y="-8"/>
      <point x="299" y="-8" type="qcurve" smooth="yes"/>
      <point x="375" y="-8" type="line" smooth="yes"/>
      <point x="418.875" y="-8"/>
      <point x="467.344" y="-3.71875"/>
      <point x="490.406" y="18.9688"/>
      <point x="495" y="67.125"/>
      <point x="495" y="111" type="qcurve" smooth="yes"/>
      <point x="495" y="190" type="line" smooth="yes"/>
      <point x="495" y="233.125"/>
      <point x="490.406" y="280.469"/>
      <point x="467.344" y="302.781"/>
      <point x="418.875" y="307"/>
      <point x="375" y="307" type="qcurve" smooth="yes"/>
      <point x="299" y="307" type="line" smooth="yes"/>
      <point x="255.125" y="307"/>
      <point x="206.969" y="302.781"/>
      <point x="184.281" y="280.469"/>
      <point x="180" y="233.125"/>
      <point x="180" y="190" type="qcurve" smooth="yes"/>
    </contour>
    <contour>
      <point x="180" y="814" type="line" smooth="yes"/>
      <point x="180" y="770.125"/>
      <point x="184.281" y="721.969"/>
      <point x="206.969" y="699.281"/>
      <point x="255.125" y="695"/>
      <point x="299" y="695" type="qcurve" smooth="yes"/>
      <point x="375" y="695" type="line" smooth="yes"/>
      <point x="418.875" y="695"/>
      <point x="467.344" y="699.281"/>
      <point x="490.406" y="721.969"/>
      <point x="495" y="770.125"/>
      <point x="495" y="814" type="qcurve" smooth="yes"/>
      <point x="495" y="893" type="line" smooth="yes"/>
      <point x="495" y="936.125"/>
      <point x="490.406" y="983.469"/>
      <point x="467.344" y="1005.78"/>
      <point x="418.875" y="1010"/>
      <point x="375" y="1010" type="qcurve" smooth="yes"/>
      <point x="299" y="1010" type="line" smooth="yes"/>
      <point x="255.125" y="1010"/>
      <point x="206.969" y="1005.78"/>
      <point x="184.281" y="983.469"/>
      <point x="180" y="936.125"/>
      <point x="180" y="893" type="qcurve" smooth="yes"/>
    </contour>
  </outline>
</glyph>
<glyph name="semicolon" format="2">
  <advance width="675"/>
  <unicode hex="003B"/>
  <outline>
    <contour>
      <point x="197" y="-268" type="line"/>
      <point x="289" y="-300" type="line"/>
      <point x="485" y="25" type="line"/>
      <point x="338" y="25" type="line"/>
    </contour>
    <contour>
      <point x="180" y="121" type="line" smooth="yes"/>
      <point x="180" y="33"/>
      <point x="211" y="2"/>
      <point x="299" y="2" type="qcurve" smooth="yes"/>
      <point x="375" y="2" type="line" smooth="yes"/>
      <point x="463" y="2"/>
      <point x="495" y="33"/>
      <point x="495" y="121" type="qcurve" smooth="yes"/>
      <point x="495" y="190" type="line" smooth="yes"/>
      <point x="495" y="277"/>
      <point x="463" y="307"/>
      <point x="375" y="307" type="qcurve" smooth="yes"/>
      <point x="299" y="307" type="line" smooth="yes"/>
      <point x="211" y="307"/>
      <point x="180" y="276"/>
      <point x="180" y="190" type="qcurve" smooth="yes"/>
    </contour>
    <contour>
      <point x="180" y="814" type="line" smooth="yes"/>
      <point x="180" y="726"/>
      <point x="211" y="695"/>
      <point x="299" y="695" type="qcurve" smooth="yes"/>
      <point x="375" y="695" type="line" smooth="yes"/>
      <point x="463" y="695"/>
      <point x="495" y="726"/>
      <point x="495" y="814" type="qcurve" smooth="yes"/>
      <point x="495" y="893" type="line" smooth="yes"/>
      <point x="495" y="980"/>
      <point x="463" y="1010"/>
      <point x="375" y="1010" type="qcurve" smooth="yes"/>
      <point x="299" y="1010" type="line" smooth="yes"/>
      <point x="211" y="1010"/>
      <point x="180" y="979"/>
      <point x="180" y="893" type="qcurve" smooth="yes"/>
    </contour>
  </outline>
</glyph>
<glyph name="less" format="2">
  <advance width="1438"/>
  <unicode hex="003C"/>
  <outline>
    <contour>
      <point x="1308" y="0" type="line"/>
      <point x="1308" y="222" type="line"/>
      <point x="426" y="586" type="line"/>
      <point x="1308" y="949" type="line"/>
      <point x="1308" y="1168" type="line"/>
      <point x="130" y="683" type="line"/>
      <point x="130" y="485" type="line"/>
    </contour>
  </outline>
</glyph>
<glyph name="greater" format="2">
  <advance width="1438"/>
  <unicode hex="003E"/>
  <outline>
    <contour>
      <point x="130" y="1168" type="line"/>
      <point x="130" y="946" type="line"/>
      <point x="1012" y="582" type="line"/>
      <point x="130" y="219" type="line"/>
      <point x="130" y="0" type="line"/>
      <point x="1308" y="485" type="line"/>
      <point x="1308" y="683" type="line"/>
    </contour>
  </outline>
</glyph>
<glyph name="question" format="2">
  <advance width="1270"/>
  <unicode hex="003F"/>
  <outline>
    <contour>
      <point x="468" y="462" type="line"/>
      <point x="692" y="462" type="line"/>
      <point x="692" y="562" type="line" smooth="yes"/>
      <point x="692" y="597"/>
      <point x="715" y="637"/>
      <point x="786" y="652" type="qcurve" smooth="yes"/>
      <point x="880" y="672" type="line" smooth="yes"/>
      <point x="1005" y="699"/>
      <point x="1110" y="802"/>
      <point x="1110" y="902" type="qcurve" smooth="yes"/>
      <point x="1110" y="1166" type="line" smooth="yes"/>
      <point x="1110" y="1300"/>
      <point x="964" y="1414"/>
      <point x="792" y="1414" type="qcurve" smooth="yes"/>
      <point x="418" y="1414" type="line" smooth="yes"/>
      <point x="247" y="1414"/>
      <point x="100" y="1299"/>
      <point x="100" y="1166" type="qcurve" smooth="yes"/>
      <point x="100" y="1032" type="line"/>
      <point x="326" y="986" type="line"/>
      <point x="326" y="1190" type="line"/>
      <point x="326" y="1190"/>
      <point x="326" y="1190"/>
      <point x="326" y="1190" type="qcurve"/>
      <point x="886" y="1190" type="line"/>
      <point x="886" y="1190"/>
      <point x="886" y="1190"/>
      <point x="886" y="1190" type="qcurve"/>
      <point x="886" y="1000" type="line" smooth="yes"/>
      <point x="886" y="934"/>
      <point x="840" y="872"/>
      <point x="786" y="858" type="qcurve" smooth="yes"/>
      <point x="619" y="817" type="line" smooth="yes"/>
      <point x="539" y="797"/>
      <point x="468" y="707"/>
      <point x="468" y="633" type="qcurve" smooth="yes"/>
    </contour>
    <contour>
      <point x="421" y="111" type="line" smooth="yes"/>
      <point x="421" y="23"/>
      <point x="452" y="-8"/>
      <point x="540" y="-8" type="qcurve" smooth="yes"/>
      <point x="616" y="-8" type="line" smooth="yes"/>
      <point x="704" y="-8"/>
      <point x="736" y="23"/>
      <point x="736" y="111" type="qcurve" smooth="yes"/>
      <point x="736" y="190" type="line" smooth="yes"/>
      <point x="736" y="277"/>
      <point x="704" y="307"/>
      <point x="616" y="307" type="qcurve" smooth="yes"/>
      <point x="540" y="307" type="line" smooth="yes"/>
      <point x="452" y="307"/>
      <point x="421" y="276"/>
      <point x="421" y="190" type="qcurve" smooth="yes"/>
    </contour>
  </outline>
</glyph>
<glyph name="at" format="2">
  <advance width="1892"/>
  <unicode hex="0040"/>
  <outline>
    <contour>
      <point x="170" y="94" type="line" smooth="yes"/>
      <point x="170" y="-80"/>
      <point x="350" y="-189"/>
      <point x="509" y="-189" type="qcurve" smooth="yes"/>
      <point x="1539" y="-189" type="line"/>
      <point x="1539" y="-20" type="line"/>
      <point x="509" y="-20" type="line"/>
      <point x="418" y="-16"/>
      <point x="362" y="43"/>
      <point x="362" y="94" type="qcurve" smooth="yes"/>
      <point x="362" y="957" type="line" smooth="yes"/>
      <point x="362" y="1021"/>
      <point x="443" y="1060"/>
      <point x="509" y="1060" type="qcurve" smooth="yes"/>
      <point x="1380" y="1060" type="line" smooth="yes"/>
      <point x="1473" y="1060"/>
      <point x="1529" y="1003"/>
      <point x="1529" y="957" type="qcurve" smooth="yes"/>
      <point x="1529" y="355" type="line" smooth="yes"/>
      <point x="1529" y="313"/>
      <point x="1489" y="280"/>
      <point x="1451" y="280" type="qcurve" smooth="yes"/>
      <point x="1423" y="280" type="line" smooth="yes"/>
      <point x="1385" y="280"/>
      <point x="1345" y="314"/>
      <point x="1345" y="355" type="qcurve" smooth="yes"/>
      <point x="1345" y="872" type="line"/>
      <point x="1122" y="872" type="line"/>
      <point x="1122" y="782" type="line"/>
      <point x="1105" y="821"/>
      <point x="1018" y="879"/>
      <point x="948" y="879" type="qcurve" smooth="yes"/>
      <point x="725" y="879" type="line" smooth="yes"/>
      <point x="625" y="879"/>
      <point x="536" y="807"/>
      <point x="536" y="726" type="qcurve" smooth="yes"/>
      <point x="536" y="320" type="line" smooth="yes"/>
      <point x="536" y="234"/>
      <point x="624" y="160"/>
      <point x="725" y="160" type="qcurve" smooth="yes"/>
      <point x="929" y="160" type="line" smooth="yes"/>
      <point x="996" y="160"/>
      <point x="1104" y="208"/>
      <point x="1122" y="272" type="qcurve"/>
      <point x="1122" y="208"/>
      <point x="1288" y="113"/>
      <point x="1394" y="113" type="qcurve" smooth="yes"/>
      <point x="1442" y="113" type="line" smooth="yes"/>
      <point x="1570" y="113"/>
      <point x="1722" y="223"/>
      <point x="1722" y="376" type="qcurve" smooth="yes"/>
      <point x="1722" y="957" type="line" smooth="yes"/>
      <point x="1722" y="1042"/>
      <point x="1671" y="1148"/>
      <point x="1581" y="1208"/>
      <point x="1455" y="1229"/>
      <point x="1380" y="1229" type="qcurve" smooth="yes"/>
      <point x="509" y="1229" type="line" smooth="yes"/>
      <point x="359" y="1229"/>
      <point x="170" y="1127"/>
      <point x="170" y="957" type="qcurve" smooth="yes"/>
    </contour>
    <contour>
      <point x="762" y="347" type="qcurve"/>
      <point x="762" y="691" type="line"/>
      <point x="762" y="691"/>
      <point x="762" y="691"/>
      <point x="762" y="691" type="qcurve"/>
      <point x="1122" y="691" type="line"/>
      <point x="1122" y="347" type="line"/>
      <point x="1122" y="347"/>
      <point x="1122" y="347"/>
      <point x="1122" y="347" type="qcurve"/>
      <point x="762" y="347" type="line"/>
      <point x="762" y="347"/>
      <point x="762" y="347"/>
    </contour>
  </outline>
  <guideline angle="0" x="0" y="548"/>
</glyph>
<glyph name="G" format="2">
  <advance width="1728"/>
  <unicode hex="0047"/>
  <anchor x="865" y="1564" name="top"/>
  <anchor x="868" y="-164" name="bottom"/>
  <outline>
    <contour>
      <point x="170" y="1140" type="qcurve" smooth="yes"/>
      <point x="170" y="272" type="line" smooth="yes"/>
      <point x="170" y="117"/>
      <point x="325" y="-14"/>
      <point x="512" y="-14" type="qcurve" smooth="yes"/>
      <point x="1224" y="-14" type="line" smooth="yes"/>
      <point x="1411" y="-14"/>
      <point x="1568" y="117"/>
      <point x="1568" y="272" type="qcurve" smooth="yes"/>
      <point x="1568" y="806" type="line"/>
      <point x="864" y="806" type="line"/>
      <point x="864" y="562" type="line"/>
      <point x="1304" y="562" type="line"/>
      <point x="1304" y="230" type="line"/>
      <point x="1304" y="230"/>
      <point x="1304" y="230"/>
      <point x="1304" y="230" type="qcurve"/>
      <point x="434" y="230" type="line"/>
      <point x="434" y="230"/>
      <point x="434" y="230"/>
      <point x="434" y="230" type="qcurve"/>
      <point x="434" y="1170" type="line"/>
      <point x="434" y="1170"/>
      <point x="434" y="1170"/>
      <point x="434" y="1170" type="qcurve"/>
      <point x="1298" y="1170" type="line"/>
      <point x="1298" y="1170"/>
      <point x="1298" y="1170"/>
      <point x="1298" y="1170" type="qcurve"/>
      <point x="1298" y="980" type="line"/>
      <point x="1562" y="1036" type="line"/>
      <point x="1562" y="1140" type="line" smooth="yes"/>
      <point x="1562" y="1287"/>
      <point x="1403" y="1414"/>
      <point x="1218" y="1414" type="qcurve" smooth="yes"/>
      <point x="512" y="1414" type="line" smooth="yes"/>
      <point x="329" y="1414"/>
      <point x="170" y="1287"/>
    </contour>
  </outline>
  <guideline angle="0" x="0" y="574"/>
  <guideline angle="0" x="0" y="1036"/>
  <guideline angle="0" x="0" y="980"/>
  <guideline angle="0" x="0" y="806"/>
  <guideline angle="0" x="0" y="700"/>
  <guideline angle="0" x="0" y="906"/>
  <guideline angle="0" x="0" y="494"/>
  <guideline angle="90.1204" x="868" y="-14"/>
</glyph>
<glyph name="H" format="2">
  <advance width="1818"/>
  <unicode hex="0048"/>
  <anchor x="909" y="1550" name="top"/>
  <anchor x="909" y="-150" name="bottom"/>
  <outline>
    <contour>
      <point x="200" y="0" type="line"/>
      <point x="464" y="0" type="line"/>
      <point x="464" y="608" type="line"/>
      <point x="1354" y="608" type="line"/>
      <point x="1354" y="0" type="line"/>
      <point x="1618" y="0" type="line"/>
      <point x="1618" y="1400" type="line"/>
      <point x="1354" y="1400" type="line"/>
      <point x="1354" y="852" type="line"/>
      <point x="464" y="852" type="line"/>
      <point x="464" y="1400" type="line"/>
      <point x="200" y="1400" type="line"/>
    </contour>
  </outline>
  <guideline angle="90" color="1,0,0,1" x="909" y="0"/>
</glyph>
<glyph name="I" format="2">
  <advance width="664"/>
  <unicode hex="0049"/>
  <anchor x="332" y="1550" name="top"/>
  <anchor x="332" y="-150" name="bottom"/>
  <anchor x="200" y="0" name="ogonek"/>
  <outline>
    <contour>
      <point x="200" y="0" type="line"/>
      <point x="464" y="0" type="line"/>
      <point x="464" y="1400" type="line"/>
      <point x="200" y="1400" type="line"/>
    </contour>
  </outline>
</glyph>
<glyph name="J" format="2">
  <advance width="1501"/>
  <unicode hex="004A"/>
  <anchor x="1186" y="1578" name="top"/>
  <anchor x="710" y="-150" name="bottom"/>
  <outline>
    <contour>
      <point x="1316" y="1400" type="line"/>
      <point x="1052" y="1400" type="line"/>
      <point x="1052" y="230" type="line"/>
      <point x="1052" y="230"/>
      <point x="1052" y="230"/>
      <point x="1052" y="230" type="qcurve"/>
      <point x="366" y="230" type="line"/>
      <point x="366" y="230"/>
      <point x="366" y="230"/>
      <point x="366" y="230" type="qcurve"/>
      <point x="366" y="644" type="line"/>
      <point x="102" y="588" type="line"/>
      <point x="102" y="260" type="line" smooth="yes"/>
      <point x="102" y="113"/>
      <point x="262" y="-14"/>
      <point x="446" y="-14" type="qcurve" smooth="yes"/>
      <point x="974" y="-14" type="line" smooth="yes"/>
      <point x="1157" y="-14"/>
      <point x="1316" y="113"/>
      <point x="1316" y="260" type="qcurve" smooth="yes"/>
    </contour>
  </outline>
</glyph>
<glyph name="N" format="2">
  <advance width="1830"/>
  <unicode hex="004E"/>
  <anchor x="915" y="1550" name="top"/>
  <anchor x="915" y="-150" name="bottom"/>
  <outline>
    <contour>
      <point x="200" y="0" type="line"/>
      <point x="444" y="0" type="line"/>
      <point x="444" y="978" type="line"/>
      <point x="1426" y="0" type="line"/>
      <point x="1630" y="0" type="line"/>
      <point x="1630" y="1400" type="line"/>
      <point x="1386" y="1400" type="line"/>
      <point x="1386" y="416" type="line"/>
      <point x="404" y="1400" type="line"/>
      <point x="200" y="1400" type="line"/>
    </contour>
  </outline>
</glyph>
<glyph name="P" format="2">
  <advance width="1566"/>
  <unicode hex="0050"/>
  <outline>
    <contour>
      <point x="200" y="0" type="line"/>
      <point x="464" y="0" type="line"/>
      <point x="464" y="528" type="line"/>
      <point x="1142" y="528" type="line" smooth="yes"/>
      <point x="1228.25" y="528"/>
      <point x="1357.31" y="560.312"/>
      <point x="1443.19" y="625.188"/>
      <point x="1486" y="722.75"/>
      <point x="1486" y="788" type="qcurve" smooth="yes"/>
      <point x="1486" y="1126" type="line" smooth="yes"/>
      <point x="1486" y="1297"/>
      <point x="1293.5" y="1400"/>
      <point x="1142" y="1400" type="qcurve" smooth="yes"/>
      <point x="200" y="1400" type="line"/>
    </contour>
    <contour>
      <point x="464" y="772" type="line"/>
      <point x="464" y="1156" type="line"/>
      <point x="1116" y="1156" type="line" smooth="yes"/>
      <point x="1168.82" y="1156"/>
      <point x="1222" y="1108.82"/>
      <point x="1222" y="1056" type="qcurve" smooth="yes"/>
      <point x="1222" y="872" type="line" smooth="yes"/>
      <point x="1222" y="811.632"/>
      <point x="1168.82" y="772"/>
      <point x="1116" y="772" type="qcurve" smooth="yes"/>
    </contour>
  </outline>
  <guideline angle="90" color="0.4,0.4,0.4,1" name="halfwidth" x="783" y="0"/>
</glyph>
<glyph name="Q" format="2">
  <advance width="1792"/>
  <unicode hex="0051"/>
  <anchor x="896" y="1550" name="top"/>
  <anchor x="896" y="-442" name="bottom"/>
  <outline>
    <contour>
      <point x="170" y="1140" type="qcurve" smooth="yes"/>
      <point x="170" y="272" type="line" smooth="yes"/>
      <point x="170" y="95.4236"/>
      <point x="350.516" y="-14"/>
      <point x="512" y="-14" type="qcurve" smooth="yes"/>
      <point x="1278" y="-14" type="line" smooth="yes"/>
      <point x="1439.48" y="-14"/>
      <point x="1622" y="93.9144"/>
      <point x="1622" y="272" type="qcurve" smooth="yes"/>
      <point x="1622" y="1140" type="line" smooth="yes"/>
      <point x="1622" y="1311"/>
      <point x="1429.5" y="1414"/>
      <point x="1278" y="1414" type="qcurve" smooth="yes"/>
      <point x="512" y="1414" type="line" smooth="yes"/>
      <point x="360.5" y="1414"/>
      <point x="170" y="1311"/>
    </contour>
    <contour>
      <point x="434" y="1170" type="line"/>
      <point x="434" y="1170"/>
      <point x="434" y="1170"/>
      <point x="434" y="1170" type="qcurve"/>
      <point x="1358" y="1170" type="line"/>
      <point x="1358" y="1170"/>
      <point x="1358" y="1170"/>
      <point x="1358" y="1170" type="qcurve"/>
      <point x="1358" y="230" type="line"/>
      <point x="1358" y="230"/>
      <point x="1358" y="230"/>
      <point x="1358" y="230" type="qcurve"/>
      <point x="434" y="230" type="line"/>
      <point x="434" y="230"/>
      <point x="434" y="230"/>
      <point x="434" y="230" type="qcurve"/>
    </contour>
    <contour>
      <point x="1108" y="-282" type="line"/>
      <point x="1378" y="-282" type="line"/>
      <point x="996" y="544" type="line"/>
      <point x="810" y="462" type="line"/>
    </contour>
  </outline>
</glyph>
<glyph name="S" format="2">
  <advance width="1592"/>
  <unicode hex="0053"/>
  <anchor x="792" y="1564" name="top"/>
  <anchor x="791" y="-164" name="bottom"/>
  <outline>
    <contour>
      <point x="120" y="364" type="line"/>
      <point x="120" y="272" type="line" smooth="yes"/>
      <point x="120" y="184"/>
      <point x="167" y="72"/>
      <point x="256" y="9"/>
      <point x="383" y="-14"/>
      <point x="462" y="-14" type="qcurve" smooth="yes"/>
      <point x="1118" y="-14" type="line" smooth="yes"/>
      <point x="1279" y="-14"/>
      <point x="1462" y="95"/>
      <point x="1462" y="272" type="qcurve" smooth="yes"/>
      <point x="1462" y="556" type="line" smooth="yes"/>
      <point x="1462" y="642"/>
      <point x="1412" y="749"/>
      <point x="1321" y="809"/>
      <point x="1195" y="830"/>
      <point x="1118" y="830" type="qcurve" smooth="yes"/>
      <point x="402" y="830" type="line"/>
      <point x="402" y="830"/>
      <point x="402" y="830"/>
      <point x="402" y="830" type="qcurve"/>
      <point x="402" y="1170" type="line"/>
      <point x="402" y="1170"/>
      <point x="402" y="1170"/>
      <point x="402" y="1170" type="qcurve"/>
      <point x="1190" y="1170" type="line"/>
      <point x="1190" y="1170"/>
      <point x="1190" y="1170"/>
      <point x="1190" y="1170" type="qcurve"/>
      <point x="1190" y="990" type="line"/>
      <point x="1442" y="1040" type="line"/>
      <point x="1442" y="1140" type="line" smooth="yes"/>
      <point x="1442" y="1226"/>
      <point x="1392" y="1333"/>
      <point x="1301" y="1393"/>
      <point x="1175" y="1414"/>
      <point x="1098" y="1414" type="qcurve" smooth="yes"/>
      <point x="492" y="1414" type="line" smooth="yes"/>
      <point x="416" y="1414"/>
      <point x="290" y="1393"/>
      <point x="200" y="1333"/>
      <point x="150" y="1226"/>
      <point x="150" y="1140" type="qcurve" smooth="yes"/>
      <point x="150" y="874" type="line" smooth="yes"/>
      <point x="150" y="786"/>
      <point x="197" y="673"/>
      <point x="286" y="610"/>
      <point x="413" y="586"/>
      <point x="492" y="586" type="qcurve" smooth="yes"/>
      <point x="1210" y="586" type="line"/>
      <point x="1210" y="586"/>
      <point x="1210" y="586"/>
      <point x="1210" y="586" type="qcurve"/>
      <point x="1210" y="230" type="line"/>
      <point x="1210" y="230"/>
      <point x="1210" y="230"/>
      <point x="1210" y="230" type="qcurve"/>
      <point x="372" y="230" type="line"/>
      <point x="372" y="230"/>
      <point x="372" y="230"/>
      <point x="372" y="230" type="qcurve"/>
      <point x="372" y="416" type="line"/>
    </contour>
  </outline>
</glyph>
<glyph name="bracketleft" format="2">
  <advance width="794"/>
  <unicode hex="005B"/>
  <outline>
    <contour>
      <point x="200" y="-256" type="line"/>
      <point x="734" y="-256" type="line"/>
      <point x="734" y="-32" type="line"/>
      <point x="448" y="-32" type="line"/>
      <point x="448" y="1224" type="line"/>
      <point x="734" y="1224" type="line"/>
      <point x="734" y="1448" type="line"/>
      <point x="200" y="1448" type="line"/>
    </contour>
  </outline>
</glyph>
<glyph name="backslash" format="2">
  <advance width="967"/>
  <unicode hex="005C"/>
  <outline>
    <contour>
      <point x="320" y="1430" type="line"/>
      <point x="90" y="1430" type="line"/>
      <point x="647" y="-100" type="line"/>
      <point x="877" y="-100" type="line"/>
    </contour>
  </outline>
</glyph>
<glyph name="bracketright" format="2">
  <advance width="794"/>
  <unicode hex="005D"/>
  <outline>
    <contour>
      <point x="594" y="1448" type="line"/>
      <point x="60" y="1448" type="line"/>
      <point x="60" y="1224" type="line"/>
      <point x="346" y="1224" type="line"/>
      <point x="346" y="-32" type="line"/>
      <point x="60" y="-32" type="line"/>
      <point x="60" y="-256" type="line"/>
      <point x="594" y="-256" type="line"/>
    </contour>
  </outline>
</glyph>
<glyph name="asciicircum" format="2">
  <advance width="976"/>
  <unicode hex="005E"/>
  <outline>
    <contour>
      <point x="10" y="850" type="line"/>
      <point x="230" y="850" type="line"/>
      <point x="484" y="1257" type="line"/>
      <point x="740" y="850" type="line"/>
      <point x="966" y="850" type="line"/>
      <point x="568" y="1400" type="line"/>
      <point x="407" y="1400" type="line"/>
    </contour>
  </outline>
  <guideline angle="0" x="0" y="850"/>
</glyph>
<glyph name="underscore" format="2">
  <advance width="630"/>
  <unicode hex="005F"/>
  <outline>
    <contour>
      <point x="-20" y="-300" type="line"/>
      <point x="650" y="-300" type="line"/>
      <point x="650" y="-130" type="line"/>
      <point x="-20" y="-130" type="line"/>
    </contour>
  </outline>
</glyph>
<glyph name="grave" format="2">
  <advance width="667"/>
  <unicode hex="0060"/>
  <outline>
    <contour>
      <point x="617" y="1085" type="line"/>
      <point x="305" y="1448" type="line"/>
      <point x="50" y="1448" type="line"/>
      <point x="392" y="1085" type="line"/>
    </contour>
  </outline>
</glyph>
<glyph name="b" format="2">
  <advance width="1404"/>
  <unicode hex="0062"/>
  <anchor x="726" y="1600" name="top"/>
  <anchor x="726" y="-152" name="bottom"/>
  <outline>
    <contour>
      <point x="180" y="-2" type="line"/>
      <point x="428" y="-2" type="line"/>
      <point x="428" y="100" type="line"/>
      <point x="449" y="43"/>
      <point x="568" y="-12"/>
      <point x="668" y="-12" type="qcurve" smooth="yes"/>
      <point x="996" y="-12" type="line" smooth="yes"/>
      <point x="1116" y="-12"/>
      <point x="1252" y="73"/>
      <point x="1252" y="204" type="qcurve" smooth="yes"/>
      <point x="1252" y="808" type="line" smooth="yes"/>
      <point x="1252" y="935"/>
      <point x="1108" y="1012"/>
      <point x="996" y="1012" type="qcurve" smooth="yes"/>
      <point x="668" y="1012" type="line" smooth="yes"/>
      <point x="568" y="1012"/>
      <point x="449" y="959"/>
      <point x="428" y="902" type="qcurve"/>
      <point x="428" y="1448" type="line"/>
      <point x="180" y="1448" type="line"/>
    </contour>
    <contour>
      <point x="428" y="214" type="line"/>
      <point x="428" y="788" type="line"/>
      <point x="1004" y="788" type="line"/>
      <point x="1004" y="788"/>
      <point x="1004" y="788"/>
      <point x="1004" y="788" type="qcurve"/>
      <point x="1004" y="214" type="line"/>
      <point x="1004" y="214"/>
      <point x="1004" y="214"/>
      <point x="1004" y="214" type="qcurve"/>
    </contour>
  </outline>
  <guideline angle="0" x="0" y="988"/>
  <guideline angle="0" x="0" y="42"/>
</glyph>
<glyph name="c" format="2">
  <advance width="1341"/>
  <unicode hex="0063"/>
  <anchor x="687" y="1150" name="top"/>
  <anchor x="689" y="-150" name="bottom"/>
  <anchor x="689" y="0" name="ogrev"/>
  <outline>
    <contour>
      <point x="152" y="204" type="line" smooth="yes"/>
      <point x="152" y="88"/>
      <point x="268" y="-10"/>
      <point x="408" y="-10" type="qcurve" smooth="yes"/>
      <point x="970" y="-10" type="line" smooth="yes"/>
      <point x="1110" y="-10"/>
      <point x="1226" y="88"/>
      <point x="1226" y="204" type="qcurve" smooth="yes"/>
      <point x="1226" y="306" type="line"/>
      <point x="978" y="358" type="line"/>
      <point x="978" y="214" type="line"/>
      <point x="978" y="214"/>
      <point x="978" y="214"/>
      <point x="978" y="214" type="qcurve"/>
      <point x="400" y="214" type="line"/>
      <point x="400" y="214"/>
      <point x="400" y="214"/>
      <point x="400" y="214" type="qcurve"/>
      <point x="400" y="786" type="line"/>
      <point x="400" y="786"/>
      <point x="400" y="786"/>
      <point x="400" y="786" type="qcurve"/>
      <point x="974" y="786" type="line"/>
      <point x="974" y="786"/>
      <point x="974" y="786"/>
      <point x="974" y="786" type="qcurve"/>
      <point x="974" y="652" type="line"/>
      <point x="1222" y="700" type="line"/>
      <point x="1222" y="806" type="line" smooth="yes"/>
      <point x="1222" y="916"/>
      <point x="1105" y="1010"/>
      <point x="966" y="1010" type="qcurve" smooth="yes"/>
      <point x="408" y="1010" type="line" smooth="yes"/>
      <point x="271" y="1010"/>
      <point x="152" y="916"/>
      <point x="152" y="806" type="qcurve" smooth="yes"/>
    </contour>
  </outline>
</glyph>
<glyph name="f" format="2">
  <advance width="823"/>
  <unicode hex="0066"/>
  <outline>
    <contour>
      <point x="202" y="0" type="line"/>
      <point x="450" y="0" type="line"/>
      <point x="450" y="796" type="line"/>
      <point x="782" y="796" type="line"/>
      <point x="782" y="1000" type="line"/>
      <point x="450" y="1000" type="line"/>
      <point x="450" y="1244" type="line"/>
      <point x="450" y="1244"/>
      <point x="450" y="1244"/>
      <point x="450" y="1244" type="qcurve"/>
      <point x="781" y="1244" type="line"/>
      <point x="823" y="1448" type="line"/>
      <point x="472" y="1448" type="line" smooth="yes"/>
      <point x="339" y="1448"/>
      <point x="202" y="1328"/>
      <point x="202" y="1194" type="qcurve" smooth="yes"/>
      <point x="202" y="1000" type="line"/>
      <point x="90" y="1000" type="line"/>
      <point x="90" y="796" type="line"/>
      <point x="202" y="796" type="line"/>
    </contour>
  </outline>
</glyph>
<glyph name="h" format="2">
  <advance width="1378"/>
  <unicode hex="0068"/>
  <anchor x="304" y="1568" name="top"/>
  <anchor x="696" y="-150" name="bottom"/>
  <outline>
    <contour>
      <point x="180" y="0" type="line"/>
      <point x="428" y="0" type="line"/>
      <point x="428" y="786" type="line"/>
      <point x="964" y="786" type="line"/>
      <point x="964" y="786"/>
      <point x="964" y="786"/>
      <point x="964" y="786" type="qcurve"/>
      <point x="964" y="0" type="line"/>
      <point x="1212" y="0" type="line"/>
      <point x="1212" y="760" type="line" smooth="yes"/>
      <point x="1212" y="894"/>
      <point x="1064" y="1010"/>
      <point x="894" y="1010" type="qcurve" smooth="yes"/>
      <point x="710" y="1010" type="line" smooth="yes"/>
      <point x="592" y="1010"/>
      <point x="458" y="957"/>
      <point x="428" y="906" type="qcurve"/>
      <point x="428" y="1448" type="line"/>
      <point x="180" y="1448" type="line"/>
    </contour>
  </outline>
  <guideline angle="0" x="0" y="988"/>
  <guideline angle="0" x="0" y="870"/>
</glyph>
<glyph name="j" format="2">
  <advance width="608"/>
  <unicode hex="006A"/>
  <anchor x="304" y="1150" name="top"/>
  <outline>
    <contour>
      <point x="-282" y="-204" type="line"/>
      <point x="-232" y="-428" type="line"/>
      <point x="114" y="-428" type="line" smooth="yes"/>
      <point x="199" y="-428"/>
      <point x="318" y="-420"/>
      <point x="393" y="-372"/>
      <point x="428" y="-269"/>
      <point x="428" y="-174" type="qcurve" smooth="yes"/>
      <point x="428" y="1000" type="line"/>
      <point x="180" y="1000" type="line"/>
      <point x="180" y="-204" type="line"/>
      <point x="180" y="-204"/>
      <point x="180" y="-204"/>
      <point x="180" y="-204" type="qcurve"/>
    </contour>
    <contour>
      <point x="172" y="1230" type="line" smooth="yes"/>
      <point x="172" y="1164"/>
      <point x="196" y="1140"/>
      <point x="262" y="1140" type="qcurve" smooth="yes"/>
      <point x="346" y="1140" type="line" smooth="yes"/>
      <point x="412" y="1140"/>
      <point x="436" y="1164"/>
      <point x="436" y="1230" type="qcurve" smooth="yes"/>
      <point x="436" y="1312" type="line" smooth="yes"/>
      <point x="436" y="1377"/>
      <point x="412" y="1400"/>
      <point x="346" y="1400" type="qcurve" smooth="yes"/>
      <point x="262" y="1400" type="line" smooth="yes"/>
      <point x="196" y="1400"/>
      <point x="172" y="1377"/>
      <point x="172" y="1312" type="qcurve" smooth="yes"/>
    </contour>
  </outline>
</glyph>
<glyph name="m" format="2">
  <advance width="1982"/>
  <unicode hex="006D"/>
  <anchor x="991" y="1160" name="top"/>
  <anchor x="991" y="-150" name="bottom"/>
  <outline>
    <contour>
      <point x="180" y="0" type="line"/>
      <point x="428" y="0" type="line"/>
      <point x="428" y="786" type="line"/>
      <point x="874" y="786" type="line"/>
      <point x="874" y="0" type="line"/>
      <point x="1122" y="0" type="line"/>
      <point x="1122" y="786" type="line"/>
      <point x="1568" y="786" type="line"/>
      <point x="1568" y="786"/>
      <point x="1568" y="786"/>
      <point x="1568" y="786" type="qcurve"/>
      <point x="1568" y="0" type="line"/>
      <point x="1816" y="0" type="line"/>
      <point x="1816" y="760" type="line" smooth="yes"/>
      <point x="1816" y="893.5"/>
      <point x="1667.5" y="1010"/>
      <point x="1498" y="1010" type="qcurve" smooth="yes"/>
      <point x="1404" y="1010" type="line" smooth="yes"/>
      <point x="1267.42" y="1010"/>
      <point x="1127.88" y="938.669"/>
      <point x="1106" y="870" type="qcurve"/>
      <point x="1072.04" y="962.816"/>
      <point x="893.797" y="1010"/>
      <point x="804" y="1010" type="qcurve" smooth="yes"/>
      <point x="710" y="1010" type="line" smooth="yes"/>
      <point x="592.282" y="1010"/>
      <point x="458.184" y="957.313"/>
      <point x="428" y="906" type="qcurve"/>
      <point x="428" y="1000" type="line"/>
      <point x="180" y="1000" type="line"/>
    </contour>
  </outline>
</glyph>
<glyph name="n" format="2">
  <advance width="1378" height="1448"/>
  <unicode hex="006E"/>
  <anchor x="696" y="1160" name="top"/>
  <anchor x="696" y="-150" name="bottom"/>
  <anchor x="80" y="506" name="left"/>
  <outline>
    <contour>
      <point x="180" y="0" type="line"/>
      <point x="180" y="1000" type="line"/>
      <point x="428" y="1000" type="line"/>
      <point x="428" y="906" type="line"/>
      <point x="458" y="957"/>
      <point x="592" y="1010"/>
      <point x="710" y="1010" type="qcurve" smooth="yes"/>
      <point x="894" y="1010" type="line" smooth="yes"/>
      <point x="979" y="1010"/>
      <point x="1099" y="982"/>
      <point x="1176" y="922"/>
      <point x="1212" y="827"/>
      <point x="1212" y="760" type="qcurve" smooth="yes"/>
      <point x="1212" y="0" type="line"/>
      <point x="964" y="0" type="line"/>
      <point x="964" y="786" type="line"/>
      <point x="964" y="786"/>
      <point x="964" y="786"/>
      <point x="964" y="786" type="qcurve"/>
      <point x="428" y="786" type="line"/>
      <point x="428" y="0" type="line"/>
    </contour>
  </outline>
  <guideline angle="0" x="0" y="988"/>
  <guideline angle="0" x="0" y="870"/>
</glyph>
<glyph name="r" format="2">
  <advance width="1142.13" height="1448"/>
  <unicode hex="0072"/>
  <anchor x="631" y="1160" name="top"/>
  <anchor x="304" y="-150" name="bottom"/>
  <anchor x="80" y="505" name="left"/>
  <outline>
    <contour>
      <point x="180" y="0" type="line"/>
      <point x="180" y="1000" type="line"/>
      <point x="428" y="1000" type="line"/>
      <point x="428" y="906" type="line"/>
      <point x="458" y="957"/>
      <point x="592" y="1010"/>
      <point x="710" y="1010" type="qcurve" smooth="yes"/>
      <point x="764" y="1010" type="line" smooth="yes"/>
      <point x="849" y="1010"/>
      <point x="969" y="982"/>
      <point x="1046" y="922"/>
      <point x="1082" y="827"/>
      <point x="1082" y="760" type="qcurve" smooth="yes"/>
      <point x="1082" y="701" type="line"/>
      <point x="834" y="654" type="line"/>
      <point x="834" y="786" type="line"/>
      <point x="834" y="786"/>
      <point x="834" y="786"/>
      <point x="834" y="786" type="qcurve"/>
      <point x="428" y="786" type="line"/>
      <point x="428" y="0" type="line"/>
    </contour>
  </outline>
  <guideline angle="0" x="0" y="988"/>
  <guideline angle="0" x="0" y="870"/>
</glyph>
<glyph name="u" format="2">
  <advance width="1364" height="1448"/>
  <unicode hex="0075"/>
  <anchor x="682" y="1150" name="top"/>
  <anchor x="682" y="-160" name="bottom"/>
  <anchor x="780" y="0" name="ogonek"/>
  <anchor x="1198" y="1000" name="horn"/>
  <outline>
    <contour>
      <point x="166" y="194" type="line"/>
      <point x="166" y="1000" type="line"/>
      <point x="414" y="1000" type="line"/>
      <point x="414" y="214" type="line"/>
      <point x="414" y="214"/>
      <point x="414" y="214"/>
      <point x="414" y="214" type="qcurve"/>
      <point x="950" y="214" type="line"/>
      <point x="950" y="214"/>
      <point x="950" y="214"/>
      <point x="950" y="214" type="qcurve"/>
      <point x="950" y="1000" type="line"/>
      <point x="1198" y="1000" type="line"/>
      <point x="1198" y="194" type="line" smooth="yes"/>
      <point x="1198" y="131"/>
      <point x="1164" y="52"/>
      <point x="1100" y="7"/>
      <point x="1009" y="-10"/>
      <point x="952" y="-10" type="qcurve" smooth="yes"/>
      <point x="410" y="-10" type="line" smooth="yes"/>
      <point x="353" y="-10"/>
      <point x="263" y="7"/>
      <point x="200" y="52"/>
      <point x="166" y="131"/>
      <point x="166" y="194" type="qcurve"/>
    </contour>
  </outline>
</glyph>
<glyph name="z" format="2">
  <advance width="1133" height="1448"/>
  <unicode hex="007A"/>
  <anchor x="566.5" y="1150" name="top"/>
  <anchor x="566.5" y="-150" name="bottom"/>
  <outline>
    <contour>
      <point x="78.5" y="0" type="line"/>
      <point x="1054.5" y="0" type="line"/>
      <point x="1054.5" y="209" type="line"/>
      <point x="459.5" y="209" type="line"/>
      <point x="449.5" y="182" type="line"/>
      <point x="1048.5" y="912" type="line"/>
      <point x="1048.5" y="1000" type="line"/>
      <point x="138.5" y="1000" type="line"/>
      <point x="138.5" y="791" type="line"/>
      <point x="667.5" y="791" type="line"/>
      <point x="675.5" y="812" type="line"/>
      <point x="78.5" y="88" type="line"/>
    </contour>
  </outline>
</glyph>
<glyph name="braceleft" format="2">
  <advance width="826"/>
  <unicode hex="007B"/>
  <outline>
    <contour>
      <point x="287" y="18" type="line" smooth="yes"/>
      <point x="287" y="-110.282"/>
      <point x="449.172" y="-256"/>
      <point x="585" y="-256" type="qcurve" smooth="yes"/>
      <point x="806" y="-256" type="line"/>
      <point x="806" y="-32" type="line"/>
      <point x="657" y="-32" type="line" smooth="yes"/>
      <point x="591.35" y="-32"/>
      <point x="535" y="21.8958"/>
      <point x="535" y="80" type="qcurve" smooth="yes"/>
      <point x="535" y="317" type="line" smooth="yes"/>
      <point x="535" y="428.681"/>
      <point x="431.589" y="569.834"/>
      <point x="335" y="597" type="qcurve"/>
      <point x="431.589" y="624.166"/>
      <point x="535" y="765.319"/>
      <point x="535" y="877" type="qcurve" smooth="yes"/>
      <point x="535" y="1112" type="line" smooth="yes"/>
      <point x="535" y="1170.1"/>
      <point x="591.35" y="1224"/>
      <point x="657" y="1224" type="qcurve" smooth="yes"/>
      <point x="806" y="1224" type="line"/>
      <point x="806" y="1448" type="line"/>
      <point x="585" y="1448" type="line" smooth="yes"/>
      <point x="449.172" y="1448"/>
      <point x="287" y="1299.83"/>
      <point x="287" y="1164" type="qcurve" smooth="yes"/>
      <point x="287" y="887" type="line" smooth="yes"/>
      <point x="287" y="805.503"/>
      <point x="196.607" y="709"/>
      <point x="97" y="709" type="qcurve"/>
      <point x="97" y="485" type="line"/>
      <point x="196.607" y="485"/>
      <point x="287" y="389.251"/>
      <point x="287" y="307" type="qcurve" smooth="yes"/>
    </contour>
  </outline>
</glyph>
<glyph name="braceright" format="2">
  <advance width="826"/>
  <unicode hex="007D"/>
  <outline>
    <contour>
      <point x="616" y="1174" type="line" smooth="yes"/>
      <point x="616" y="1302.28"/>
      <point x="453.828" y="1448"/>
      <point x="318" y="1448" type="qcurve" smooth="yes"/>
      <point x="97" y="1448" type="line"/>
      <point x="97" y="1224" type="line"/>
      <point x="246" y="1224" type="line" smooth="yes"/>
      <point x="311.65" y="1224"/>
      <point x="368" y="1170.1"/>
      <point x="368" y="1112" type="qcurve" smooth="yes"/>
      <point x="368" y="875" type="line" smooth="yes"/>
      <point x="368" y="763.319"/>
      <point x="471.411" y="622.166"/>
      <point x="568" y="595" type="qcurve"/>
      <point x="471.411" y="567.834"/>
      <point x="368" y="426.681"/>
      <point x="368" y="315" type="qcurve" smooth="yes"/>
      <point x="368" y="80" type="line" smooth="yes"/>
      <point x="368" y="21.8958"/>
      <point x="311.65" y="-32"/>
      <point x="246" y="-32" type="qcurve" smooth="yes"/>
      <point x="97" y="-32" type="line"/>
      <point x="97" y="-256" type="line"/>
      <point x="318" y="-256" type="line" smooth="yes"/>
      <point x="453.828" y="-256"/>
      <point x="616" y="-107.828"/>
      <point x="616" y="28" type="qcurve" smooth="yes"/>
      <point x="616" y="305" type="line" smooth="yes"/>
      <point x="616" y="386.497"/>
      <point x="706.393" y="483"/>
      <point x="806" y="483" type="qcurve"/>
      <point x="806" y="707" type="line"/>
      <point x="706.393" y="707"/>
      <point x="616" y="802.749"/>
      <point x="616" y="885" type="qcurve" smooth="yes"/>
    </contour>
  </outline>
</glyph>
<glyph name="asciitilde" format="2">
  <advance width="1438"/>
  <unicode hex="007E"/>
  <outline>
    <contour>
      <point x="130" y="481" type="qcurve"/>
      <point x="335" y="445" type="line"/>
      <point x="343" y="476"/>
      <point x="375" y="518"/>
      <point x="416" y="543"/>
      <point x="462" y="553"/>
      <point x="483" y="553" type="qcurve" smooth="yes"/>
      <point x="528" y="553"/>
      <point x="632" y="511"/>
      <point x="749" y="462"/>
      <point x="876" y="420"/>
      <point x="944" y="420" type="qcurve" smooth="yes"/>
      <point x="1000" y="420"/>
      <point x="1113" y="445"/>
      <point x="1211" y="508"/>
      <point x="1288" y="614"/>
      <point x="1308" y="695" type="qcurve"/>
      <point x="1103" y="731" type="line"/>
      <point x="1096" y="700"/>
      <point x="1063" y="658"/>
      <point x="1022" y="633"/>
      <point x="976" y="623"/>
      <point x="955" y="623" type="qcurve" smooth="yes"/>
      <point x="910" y="623"/>
      <point x="806" y="664"/>
      <point x="689" y="713"/>
      <point x="562" y="754"/>
      <point x="494" y="754" type="qcurve" smooth="yes"/>
      <point x="438" y="754"/>
      <point x="325" y="729"/>
      <point x="226" y="666"/>
      <point x="150" y="561"/>
    </contour>
  </outline>
</glyph>
<glyph name="cent" format="2">
  <advance width="1341"/>
  <unicode hex="00A2"/>
  <outline>
    <contour>
      <point x="572" y="-100" type="line"/>
      <point x="786" y="-100" type="line"/>
      <point x="786" y="140" type="line"/>
      <point x="970" y="140" type="line" smooth="yes"/>
      <point x="1110" y="140"/>
      <point x="1226" y="238"/>
      <point x="1226" y="354" type="qcurve" smooth="yes"/>
      <point x="1226" y="456" type="line"/>
      <point x="978" y="506" type="line"/>
      <point x="978" y="364" type="line"/>
      <point x="978" y="364"/>
      <point x="978" y="364"/>
      <point x="978" y="364" type="qcurve"/>
      <point x="786" y="364" type="line"/>
      <point x="786" y="936" type="line"/>
      <point x="974" y="936" type="line"/>
      <point x="974" y="936"/>
      <point x="974" y="936"/>
      <point x="974" y="936" type="qcurve"/>
      <point x="974" y="804" type="line"/>
      <point x="1222" y="850" type="line"/>
      <point x="1222" y="956" type="line" smooth="yes"/>
      <point x="1222" y="1066"/>
      <point x="1105" y="1160"/>
      <point x="966" y="1160" type="qcurve" smooth="yes"/>
      <point x="786" y="1160" type="line"/>
      <point x="786" y="1400" type="line"/>
      <point x="572" y="1400" type="line"/>
      <point x="572" y="1160" type="line"/>
      <point x="408" y="1160" type="line" smooth="yes"/>
      <point x="271" y="1160"/>
      <point x="152" y="1066"/>
      <point x="152" y="956" type="qcurve" smooth="yes"/>
      <point x="152" y="354" type="line" smooth="yes"/>
      <point x="152" y="238"/>
      <point x="268" y="140"/>
      <point x="408" y="140" type="qcurve" smooth="yes"/>
      <point x="572" y="140" type="line"/>
    </contour>
    <contour>
      <point x="572" y="936" type="line"/>
      <point x="572" y="364" type="line"/>
      <point x="400" y="364" type="line"/>
      <point x="400" y="364"/>
      <point x="400" y="364"/>
      <point x="400" y="364" type="qcurve"/>
      <point x="400" y="936" type="line"/>
      <point x="400" y="936"/>
      <point x="400" y="936"/>
      <point x="400" y="936" type="qcurve"/>
    </contour>
  </outline>
</glyph>
<glyph name="sterling" format="2">
  <advance width="1740"/>
  <unicode hex="00A3"/>
  <outline>
    <contour>
      <point x="35" y="0" type="line"/>
      <point x="1280" y="0" type="line" smooth="yes"/>
      <point x="1467" y="0"/>
      <point x="1624" y="131"/>
      <point x="1624" y="286" type="qcurve" smooth="yes"/>
      <point x="1624" y="392" type="line"/>
      <point x="1360" y="444" type="line"/>
      <point x="1360" y="344" type="line" smooth="yes"/>
      <point x="1360" y="291"/>
      <point x="1313" y="244"/>
      <point x="1260" y="244" type="qcurve" smooth="yes"/>
      <point x="572" y="244" type="line"/>
      <point x="594" y="288"/>
      <point x="615" y="402"/>
      <point x="615" y="474" type="qcurve" smooth="yes"/>
      <point x="615" y="575" type="line"/>
      <point x="1066" y="575" type="line"/>
      <point x="1098" y="735" type="line"/>
      <point x="615" y="735" type="line"/>
      <point x="615" y="1070" type="line" smooth="yes"/>
      <point x="615" y="1121"/>
      <point x="664" y="1170"/>
      <point x="715" y="1170" type="qcurve" smooth="yes"/>
      <point x="1252" y="1170" type="line" smooth="yes"/>
      <point x="1305" y="1170"/>
      <point x="1352" y="1123"/>
      <point x="1352" y="1070" type="qcurve" smooth="yes"/>
      <point x="1352" y="996" type="line"/>
      <point x="1616" y="1044" type="line"/>
      <point x="1616" y="1140" type="line" smooth="yes"/>
      <point x="1616" y="1287"/>
      <point x="1457" y="1414"/>
      <point x="1272" y="1414" type="qcurve" smooth="yes"/>
      <point x="723" y="1414" type="line" smooth="yes"/>
      <point x="525" y="1414"/>
      <point x="351" y="1257"/>
      <point x="351" y="1110" type="qcurve" smooth="yes"/>
      <point x="351" y="735" type="line"/>
      <point x="131" y="735" type="line"/>
      <point x="131" y="575" type="line"/>
      <point x="351" y="575" type="line"/>
      <point x="351" y="344" type="line" smooth="yes"/>
      <point x="351" y="291"/>
      <point x="304" y="244"/>
      <point x="251" y="244" type="qcurve" smooth="yes"/>
      <point x="35" y="244" type="line"/>
    </contour>
  </outline>
  <guideline angle="0" x="0" y="1000"/>
  <guideline angle="90" x="782" y="0"/>
  <guideline angle="0" x="0" y="1000"/>
  <guideline angle="0" x="0" y="1000"/>
</glyph>
<glyph name="currency" format="2">
  <advance width="1672"/>
  <unicode hex="00A4"/>
  <outline>
    <contour>
      <point x="165" y="-52" type="line"/>
      <point x="417" y="200" type="line"/>
      <point x="440.393" y="194.718"/>
      <point x="494.307" y="190"/>
      <point x="526" y="190" type="qcurve" smooth="yes"/>
      <point x="1146" y="190" type="line" smooth="yes"/>
      <point x="1177.69" y="190"/>
      <point x="1232.36" y="194.718"/>
      <point x="1255" y="200" type="qcurve"/>
      <point x="1507" y="-52" type="line"/>
      <point x="1620" y="61" type="line"/>
      <point x="1385" y="296" type="line"/>
      <point x="1394.06" y="317.883"/>
      <point x="1402" y="371.552"/>
      <point x="1402" y="404" type="qcurve" smooth="yes"/>
      <point x="1402" y="1006" type="line" smooth="yes"/>
      <point x="1402" y="1035.43"/>
      <point x="1394.06" y="1083.63"/>
      <point x="1385" y="1104" type="qcurve"/>
      <point x="1620" y="1339" type="line"/>
      <point x="1507" y="1452" type="line"/>
      <point x="1255" y="1200" type="line"/>
      <point x="1231.61" y="1205.28"/>
      <point x="1177.69" y="1210"/>
      <point x="1146" y="1210" type="qcurve" smooth="yes"/>
      <point x="526" y="1210" type="line" smooth="yes"/>
      <point x="494.307" y="1210"/>
      <point x="440.393" y="1205.28"/>
      <point x="417" y="1200" type="qcurve"/>
      <point x="165" y="1452" type="line"/>
      <point x="52" y="1339" type="line"/>
      <point x="287" y="1104" type="line"/>
      <point x="277.945" y="1083.63"/>
      <point x="270" y="1035.43"/>
      <point x="270" y="1006" type="qcurve" smooth="yes"/>
      <point x="270" y="404" type="line" smooth="yes"/>
      <point x="270" y="371.552"/>
      <point x="278.945" y="318.883"/>
      <point x="288" y="297" type="qcurve"/>
      <point x="52" y="61" type="line"/>
    </contour>
    <contour>
      <point x="518" y="414" type="line"/>
      <point x="518" y="414"/>
      <point x="518" y="414"/>
      <point x="518" y="414" type="qcurve"/>
      <point x="518" y="986" type="line"/>
      <point x="518" y="986"/>
      <point x="518" y="986"/>
      <point x="518" y="986" type="qcurve"/>
      <point x="1154" y="986" type="line"/>
      <point x="1154" y="986"/>
      <point x="1154" y="986"/>
      <point x="1154" y="986" type="qcurve"/>
      <point x="1154" y="414" type="line"/>
      <point x="1154" y="414"/>
      <point x="1154" y="414"/>
      <point x="1154" y="414" type="qcurve"/>
    </contour>
  </outline>
</glyph>
<glyph name="yen" format="2">
  <advance width="1566"/>
  <unicode hex="00A5"/>
  <outline>
    <contour>
      <point x="664" y="0" type="line"/>
      <point x="928" y="0" type="line"/>
      <point x="928" y="362" type="line"/>
      <point x="1267" y="362" type="line"/>
      <point x="1267" y="522" type="line"/>
      <point x="928" y="522" type="line"/>
      <point x="928" y="612" type="line"/>
      <point x="1267" y="612" type="line"/>
      <point x="1267" y="772" type="line"/>
      <point x="1057" y="772" type="line"/>
      <point x="1566" y="1400" type="line"/>
      <point x="1238" y="1400" type="line"/>
      <point x="807" y="854" type="line"/>
      <point x="379" y="1400" type="line"/>
      <point x="0" y="1400" type="line"/>
      <point x="529" y="772" type="line"/>
      <point x="300" y="772" type="line"/>
      <point x="300" y="612" type="line"/>
      <point x="664" y="612" type="line"/>
      <point x="664" y="612" type="line"/>
      <point x="664" y="522" type="line"/>
      <point x="300" y="522" type="line"/>
      <point x="300" y="362" type="line"/>
      <point x="664" y="362" type="line"/>
    </contour>
  </outline>
</glyph>
<glyph name="section" format="2">
  <advance width="1426"/>
  <unicode hex="00A7"/>
  <outline>
    <contour>
      <point x="446" y="-135" type="qcurve" smooth="yes"/>
      <point x="955" y="-135" type="line" smooth="yes"/>
      <point x="1071" y="-135"/>
      <point x="1201" y="-58"/>
      <point x="1201" y="69" type="qcurve" smooth="yes"/>
      <point x="1201" y="289" type="line" smooth="yes"/>
      <point x="1201" y="301"/>
      <point x="1199" y="323"/>
      <point x="1197" y="334" type="qcurve"/>
      <point x="1216" y="347"/>
      <point x="1246" y="382"/>
      <point x="1266" y="428"/>
      <point x="1276" y="485"/>
      <point x="1276" y="519" type="qcurve" smooth="yes"/>
      <point x="1276" y="774" type="line" smooth="yes"/>
      <point x="1276" y="899"/>
      <point x="1140" y="994"/>
      <point x="1030" y="994" type="qcurve" smooth="yes"/>
      <point x="474" y="994" type="line"/>
      <point x="474" y="994"/>
      <point x="474" y="994"/>
      <point x="474" y="994" type="qcurve"/>
      <point x="474" y="1196" type="line"/>
      <point x="474" y="1196"/>
      <point x="474" y="1196"/>
      <point x="474" y="1196" type="qcurve"/>
      <point x="987" y="1196" type="line"/>
      <point x="987" y="1196"/>
      <point x="987" y="1196"/>
      <point x="987" y="1196" type="qcurve"/>
      <point x="987" y="1106" type="line"/>
      <point x="1207" y="1150" type="line"/>
      <point x="1207" y="1204" type="line" smooth="yes"/>
      <point x="1207" y="1326"/>
      <point x="1071" y="1400"/>
      <point x="961" y="1400" type="qcurve" smooth="yes"/>
      <point x="498" y="1400" type="line" smooth="yes"/>
      <point x="389" y="1400"/>
      <point x="254" y="1326"/>
      <point x="254" y="1204" type="qcurve" smooth="yes"/>
      <point x="254" y="996" type="line" smooth="yes"/>
      <point x="254" y="985"/>
      <point x="255" y="965"/>
      <point x="256" y="956" type="qcurve"/>
      <point x="234" y="946"/>
      <point x="200" y="917"/>
      <point x="176" y="875"/>
      <point x="164" y="820"/>
      <point x="164" y="784" type="qcurve" smooth="yes"/>
      <point x="164" y="487" type="line" smooth="yes"/>
      <point x="164" y="360"/>
      <point x="293" y="281"/>
      <point x="408" y="281" type="qcurve" smooth="yes"/>
      <point x="981" y="281" type="line"/>
      <point x="981" y="281"/>
      <point x="981" y="281"/>
      <point x="981" y="281" type="qcurve"/>
      <point x="981" y="69" type="line"/>
      <point x="981" y="69"/>
      <point x="981" y="69"/>
      <point x="981" y="69" type="qcurve"/>
      <point x="422" y="69" type="line"/>
      <point x="422" y="69"/>
      <point x="422" y="69"/>
      <point x="422" y="69" type="qcurve"/>
      <point x="422" y="173" type="line"/>
      <point x="202" y="127" type="line"/>
      <point x="202" y="69" type="line" smooth="yes"/>
      <point x="202" y="-58"/>
      <point x="331" y="-135"/>
    </contour>
    <contour>
      <point x="384" y="485" type="line"/>
      <point x="384" y="485"/>
      <point x="384" y="485"/>
      <point x="384" y="485" type="qcurve"/>
      <point x="384" y="790" type="line"/>
      <point x="384" y="790"/>
      <point x="384" y="790"/>
      <point x="384" y="790" type="qcurve"/>
      <point x="1056" y="790" type="line"/>
      <point x="1056" y="790"/>
      <point x="1056" y="790"/>
      <point x="1056" y="790" type="qcurve"/>
      <point x="1056" y="485" type="line"/>
      <point x="1056" y="485"/>
      <point x="1056" y="485"/>
      <point x="1056" y="485" type="qcurve"/>
    </contour>
  </outline>
</glyph>
<glyph name="copyright" format="2">
  <advance width="1769"/>
  <unicode hex="00A9"/>
  <outline>
    <contour>
      <point x="505" y="553" type="line" smooth="yes"/>
      <point x="505" y="437"/>
      <point x="621" y="339"/>
      <point x="761" y="339" type="qcurve" smooth="yes"/>
      <point x="1003" y="339" type="line" smooth="yes"/>
      <point x="1143" y="339"/>
      <point x="1259" y="437"/>
      <point x="1259" y="553" type="qcurve" smooth="yes"/>
      <point x="1259" y="585" type="line"/>
      <point x="1031" y="635" type="line"/>
      <point x="1031" y="543" type="line"/>
      <point x="1031" y="543"/>
      <point x="1031" y="543"/>
      <point x="1031" y="543" type="qcurve"/>
      <point x="733" y="543" type="line"/>
      <point x="733" y="543"/>
      <point x="733" y="543"/>
      <point x="733" y="543" type="qcurve"/>
      <point x="733" y="857" type="line"/>
      <point x="733" y="857"/>
      <point x="733" y="857"/>
      <point x="733" y="857" type="qcurve"/>
      <point x="1027" y="857" type="line"/>
      <point x="1027" y="857"/>
      <point x="1027" y="857"/>
      <point x="1027" y="857" type="qcurve"/>
      <point x="1027" y="771" type="line"/>
      <point x="1255" y="817" type="line"/>
      <point x="1255" y="857" type="line" smooth="yes"/>
      <point x="1255" y="967"/>
      <point x="1138" y="1061"/>
      <point x="999" y="1061" type="qcurve" smooth="yes"/>
      <point x="761" y="1061" type="line" smooth="yes"/>
      <point x="624" y="1061"/>
      <point x="505" y="967"/>
      <point x="505" y="857" type="qcurve" smooth="yes"/>
    </contour>
    <contour>
      <point x="170" y="1104" type="qcurve" smooth="yes"/>
      <point x="170" y="308" type="line" smooth="yes"/>
      <point x="170" y="133"/>
      <point x="352" y="22"/>
      <point x="512" y="22" type="qcurve" smooth="yes"/>
      <point x="1238" y="22" type="line" smooth="yes"/>
      <point x="1399" y="22"/>
      <point x="1582" y="130"/>
      <point x="1582" y="308" type="qcurve" smooth="yes"/>
      <point x="1582" y="1104" type="line" smooth="yes"/>
      <point x="1582" y="1275"/>
      <point x="1390" y="1378"/>
      <point x="1238" y="1378" type="qcurve" smooth="yes"/>
      <point x="512" y="1378" type="line" smooth="yes"/>
      <point x="361" y="1378"/>
      <point x="170" y="1275"/>
    </contour>
    <contour>
      <point x="364" y="1104" type="line" smooth="yes"/>
      <point x="364" y="1169"/>
      <point x="446" y="1208"/>
      <point x="512" y="1208" type="qcurve" smooth="yes"/>
      <point x="1238" y="1208" type="line" smooth="yes"/>
      <point x="1332" y="1208"/>
      <point x="1388" y="1150"/>
      <point x="1388" y="1104" type="qcurve" smooth="yes"/>
      <point x="1388" y="308" type="line" smooth="yes"/>
      <point x="1388" y="256"/>
      <point x="1331" y="192"/>
      <point x="1238" y="192" type="qcurve" smooth="yes"/>
      <point x="512" y="192" type="line" smooth="yes"/>
      <point x="419" y="192"/>
      <point x="364" y="256"/>
      <point x="364" y="308" type="qcurve" smooth="yes"/>
    </contour>
  </outline>
</glyph>
<glyph name="ordfeminine" format="2">
  <advance width="962"/>
  <unicode hex="00AA"/>
  <outline>
    <contour>
      <point x="274" y="776" type="qcurve" smooth="yes"/>
      <point x="463" y="776" type="line" smooth="yes"/>
      <point x="524" y="776"/>
      <point x="621" y="821"/>
      <point x="638" y="881" type="qcurve"/>
      <point x="638" y="783" type="line"/>
      <point x="838" y="783" type="line"/>
      <point x="838" y="1309" type="line" smooth="yes"/>
      <point x="838" y="1396"/>
      <point x="744" y="1448"/>
      <point x="669" y="1448" type="qcurve" smooth="yes"/>
      <point x="285" y="1448" type="line" smooth="yes"/>
      <point x="210" y="1448"/>
      <point x="118" y="1396"/>
      <point x="118" y="1311" type="qcurve" smooth="yes"/>
      <point x="118" y="1282" type="line"/>
      <point x="318" y="1245" type="line"/>
      <point x="318" y="1298" type="line"/>
      <point x="318" y="1298"/>
      <point x="318" y="1298"/>
      <point x="318" y="1298" type="qcurve"/>
      <point x="638" y="1298" type="line"/>
      <point x="638" y="1298"/>
      <point x="638" y="1298"/>
      <point x="638" y="1298" type="qcurve"/>
      <point x="638" y="1176" type="line"/>
      <point x="294" y="1176" type="line" smooth="yes"/>
      <point x="220" y="1176"/>
      <point x="106" y="1127"/>
      <point x="106" y="1042" type="qcurve" smooth="yes"/>
      <point x="106" y="917" type="line" smooth="yes"/>
      <point x="106" y="831"/>
      <point x="196" y="776"/>
    </contour>
    <contour>
      <point x="306" y="919" type="qcurve"/>
      <point x="306" y="1038" type="line"/>
      <point x="306" y="1038"/>
      <point x="306" y="1038"/>
      <point x="306" y="1038" type="qcurve"/>
      <point x="638" y="1038" type="line"/>
      <point x="638" y="919" type="line"/>
      <point x="306" y="919" type="line"/>
      <point x="306" y="919"/>
      <point x="306" y="919"/>
    </contour>
  </outline>
</glyph>
<glyph name="guillemotleft" format="2">
  <advance width="990"/>
  <unicode hex="00AB"/>
  <outline>
    <contour>
      <point x="314" y="130" type="line"/>
      <point x="536" y="130" type="line"/>
      <point x="294" y="500" type="line"/>
      <point x="536" y="870" type="line"/>
      <point x="314" y="870" type="line"/>
      <point x="72" y="500" type="line"/>
    </contour>
    <contour>
      <point x="699" y="130" type="line"/>
      <point x="921" y="130" type="line"/>
      <point x="679" y="500" type="line"/>
      <point x="921" y="870" type="line"/>
      <point x="699" y="870" type="line"/>
      <point x="457" y="500" type="line"/>
    </contour>
  </outline>
</glyph>
<glyph name="logicalnot" format="2">
  <advance width="1438"/>
  <unicode hex="00AC"/>
  <outline>
    <contour>
      <point x="1308" y="273" type="line"/>
      <point x="1308" y="901" type="line"/>
      <point x="130" y="901" type="line"/>
      <point x="130" y="693" type="line"/>
      <point x="1084" y="693" type="line"/>
      <point x="1084" y="273" type="line"/>
    </contour>
  </outline>
</glyph>
<glyph name="registered" format="2">
  <advance width="835"/>
  <unicode hex="00AE"/>
  <outline>
    <contour>
      <point x="76" y="1053" type="line" smooth="yes"/>
      <point x="76" y="983.577"/>
      <point x="151.331" y="910"/>
      <point x="220" y="910" type="qcurve" smooth="yes"/>
      <point x="614" y="910" type="line" smooth="yes"/>
      <point x="683.423" y="910"/>
      <point x="759" y="983.577"/>
      <point x="759" y="1053" type="qcurve" smooth="yes"/>
      <point x="759" y="1413" type="line" smooth="yes"/>
      <point x="759" y="1481.67"/>
      <point x="683.423" y="1555"/>
      <point x="614" y="1555" type="qcurve" smooth="yes"/>
      <point x="220" y="1555" type="line" smooth="yes"/>
      <point x="151.331" y="1555"/>
      <point x="76" y="1481.67"/>
      <point x="76" y="1413" type="qcurve" smooth="yes"/>
    </contour>
    <contour>
      <point x="143" y="1413" type="line" smooth="yes"/>
      <point x="143" y="1452.99"/>
      <point x="180.761" y="1494"/>
      <point x="220" y="1494" type="qcurve" smooth="yes"/>
      <point x="614" y="1494" type="line" smooth="yes"/>
      <point x="653.994" y="1494"/>
      <point x="692" y="1452.99"/>
      <point x="692" y="1413" type="qcurve" smooth="yes"/>
      <point x="692" y="1053" type="line" smooth="yes"/>
      <point x="692" y="1013.01"/>
      <point x="653.994" y="971"/>
      <point x="614" y="971" type="qcurve" smooth="yes"/>
      <point x="220" y="971" type="line" smooth="yes"/>
      <point x="180.761" y="971"/>
      <point x="143" y="1013.01"/>
      <point x="143" y="1053" type="qcurve" smooth="yes"/>
    </contour>
    <contour>
      <point x="237" y="1400" type="line"/>
      <point x="237" y="1060" type="line"/>
      <point x="343" y="1060" type="line"/>
      <point x="343" y="1173" type="line"/>
      <point x="396" y="1173" type="line"/>
      <point x="507" y="1060" type="line"/>
      <point x="640" y="1060" type="line"/>
      <point x="525" y="1173" type="line"/>
      <point x="525" y="1173" type="line"/>
      <point x="565.748" y="1173"/>
      <point x="610" y="1191.01"/>
      <point x="610" y="1231" type="qcurve" smooth="yes"/>
      <point x="610" y="1326" type="line" smooth="yes"/>
      <point x="610" y="1371.28"/>
      <point x="559.503" y="1400"/>
      <point x="518" y="1400" type="qcurve" smooth="yes"/>
    </contour>
    <contour>
      <point x="343" y="1252" type="line"/>
      <point x="343" y="1315" type="line"/>
      <point x="483" y="1315" type="line" smooth="yes"/>
      <point x="493.564" y="1315"/>
      <point x="504" y="1305.81"/>
      <point x="504" y="1296" type="qcurve" smooth="yes"/>
      <point x="504" y="1271" type="line" smooth="yes"/>
      <point x="504" y="1260.44"/>
      <point x="493.564" y="1252"/>
      <point x="483" y="1252" type="qcurve" smooth="yes"/>
    </contour>
  </outline>
</glyph>
<glyph name="degree" format="2">
  <advance width="639"/>
  <unicode hex="00B0"/>
  <outline>
    <contour>
      <point x="76" y="1254" type="line" smooth="yes"/>
      <point x="76" y="1174"/>
      <point x="157" y="1106"/>
      <point x="251" y="1106" type="qcurve" smooth="yes"/>
      <point x="388" y="1106" type="line" smooth="yes"/>
      <point x="483" y="1106"/>
      <point x="563" y="1174"/>
      <point x="563" y="1254" type="qcurve" smooth="yes"/>
      <point x="563" y="1378" type="line" smooth="yes"/>
      <point x="563" y="1452"/>
      <point x="481" y="1518"/>
      <point x="388" y="1518" type="qcurve" smooth="yes"/>
      <point x="251" y="1518" type="line" smooth="yes"/>
      <point x="157" y="1518"/>
      <point x="76" y="1452"/>
      <point x="76" y="1378" type="qcurve" smooth="yes"/>
    </contour>
    <contour>
      <point x="246" y="1245" type="qcurve"/>
      <point x="246" y="1379" type="line"/>
      <point x="246" y="1379"/>
      <point x="246" y="1379"/>
      <point x="246" y="1379" type="qcurve"/>
      <point x="393" y="1379" type="line"/>
      <point x="393" y="1379"/>
      <point x="393" y="1379"/>
      <point x="393" y="1379" type="qcurve"/>
      <point x="393" y="1245" type="line"/>
      <point x="393" y="1245"/>
      <point x="393" y="1245"/>
      <point x="393" y="1245" type="qcurve"/>
      <point x="246" y="1245" type="line"/>
      <point x="246" y="1245"/>
      <point x="246" y="1245"/>
    </contour>
  </outline>
</glyph>
<glyph name="plusminus" format="2">
  <advance width="1438"/>
  <unicode hex="00B1"/>
  <outline>
    <contour>
      <point x="1308" y="989" type="line"/>
      <point x="831" y="989" type="line"/>
      <point x="831" y="1400" type="line"/>
      <point x="607" y="1400" type="line"/>
      <point x="607" y="989" type="line"/>
      <point x="130" y="989" type="line"/>
      <point x="130" y="781" type="line"/>
      <point x="607" y="781" type="line"/>
      <point x="607" y="370" type="line"/>
      <point x="831" y="370" type="line"/>
      <point x="831" y="781" type="line"/>
      <point x="1308" y="781" type="line"/>
    </contour>
    <contour>
      <point x="130" y="0" type="line"/>
      <point x="1308" y="0" type="line"/>
      <point x="1308" y="208" type="line"/>
      <point x="130" y="208" type="line"/>
    </contour>
  </outline>
</glyph>
<glyph name="threesuperior" format="2">
  <advance width="1105"/>
  <unicode hex="00B3"/>
  <outline>
    <contour>
      <point x="160" y="1170" type="line"/>
      <point x="160" y="1089" type="line" smooth="yes"/>
      <point x="160" y="995"/>
      <point x="267" y="950"/>
      <point x="350" y="950" type="qcurve" smooth="yes"/>
      <point x="739" y="950" type="line" smooth="yes"/>
      <point x="824" y="950"/>
      <point x="945" y="1027"/>
      <point x="945" y="1127" type="qcurve" smooth="yes"/>
      <point x="945" y="1196" type="line" smooth="yes"/>
      <point x="945" y="1286"/>
      <point x="846" y="1364"/>
      <point x="780" y="1366" type="qcurve"/>
      <point x="852" y="1376"/>
      <point x="926" y="1452"/>
      <point x="926" y="1531" type="qcurve" smooth="yes"/>
      <point x="926" y="1580" type="line" smooth="yes"/>
      <point x="926" y="1674"/>
      <point x="821" y="1756"/>
      <point x="721" y="1756" type="qcurve" smooth="yes"/>
      <point x="357" y="1756" type="line" smooth="yes"/>
      <point x="310" y="1756"/>
      <point x="239" y="1740"/>
      <point x="191" y="1707"/>
      <point x="167" y="1658"/>
      <point x="167" y="1626" type="qcurve" smooth="yes"/>
      <point x="167" y="1527" type="line"/>
      <point x="367" y="1492" type="line"/>
      <point x="367" y="1578" type="line"/>
      <point x="367" y="1578"/>
      <point x="367" y="1578"/>
      <point x="367" y="1578" type="qcurve"/>
      <point x="694" y="1578" type="line" smooth="yes"/>
      <point x="708" y="1578"/>
      <point x="726" y="1559"/>
      <point x="726" y="1545" type="qcurve" smooth="yes"/>
      <point x="726" y="1479" type="line" smooth="yes"/>
      <point x="726" y="1463"/>
      <point x="715" y="1440"/>
      <point x="701" y="1440" type="qcurve" smooth="yes"/>
      <point x="465" y="1440" type="line"/>
      <point x="465" y="1277" type="line"/>
      <point x="720" y="1277" type="line" smooth="yes"/>
      <point x="734" y="1277"/>
      <point x="745" y="1254"/>
      <point x="745" y="1238" type="qcurve" smooth="yes"/>
      <point x="745" y="1166" type="line" smooth="yes"/>
      <point x="745" y="1149"/>
      <point x="725" y="1128"/>
      <point x="708" y="1128" type="qcurve" smooth="yes"/>
      <point x="360" y="1128" type="line"/>
      <point x="360" y="1128"/>
      <point x="360" y="1128"/>
      <point x="360" y="1128" type="qcurve"/>
      <point x="360" y="1205" type="line"/>
    </contour>
  </outline>
</glyph>
<glyph name="uni00B5" format="2">
  <advance width="1392"/>
  <unicode hex="00B5"/>
  <outline>
    <contour>
      <point x="180" y="-428" type="line"/>
      <point x="390" y="-383" type="line"/>
      <point x="390" y="110" type="line"/>
      <point x="411.129" y="54.9142"/>
      <point x="529.638" y="0"/>
      <point x="630" y="0" type="qcurve" smooth="yes"/>
      <point x="702" y="0" type="line" smooth="yes"/>
      <point x="792.552" y="0"/>
      <point x="938.344" y="57.9388"/>
      <point x="964" y="150" type="qcurve"/>
      <point x="964" y="0" type="line"/>
      <point x="1212" y="0" type="line"/>
      <point x="1212" y="1000" type="line"/>
      <point x="964" y="1000" type="line"/>
      <point x="964" y="224" type="line"/>
      <point x="964" y="224"/>
      <point x="964" y="224"/>
      <point x="964" y="224" type="qcurve"/>
      <point x="428" y="224" type="line"/>
      <point x="428" y="224"/>
      <point x="428" y="224"/>
      <point x="428" y="224" type="qcurve"/>
      <point x="428" y="1000" type="line"/>
      <point x="180" y="1000" type="line"/>
    </contour>
  </outline>
</glyph>
<glyph name="paragraph" format="2">
  <advance width="1166"/>
  <unicode hex="00B6"/>
  <outline>
    <contour>
      <point x="966" y="0" type="line"/>
      <point x="966" y="1400" type="line"/>
      <point x="424" y="1400" type="line" smooth="yes"/>
      <point x="273" y="1400"/>
      <point x="80" y="1297"/>
      <point x="80" y="1126" type="qcurve" smooth="yes"/>
      <point x="80" y="788" type="line" smooth="yes"/>
      <point x="80" y="723"/>
      <point x="123" y="625"/>
      <point x="209" y="560"/>
      <point x="338" y="528"/>
      <point x="424" y="528" type="qcurve" smooth="yes"/>
      <point x="702" y="528" type="line"/>
      <point x="702" y="0" type="line"/>
      <point x="782" y="0" type="line"/>
      <point x="782" y="1288" type="line"/>
      <point x="886" y="1288" type="line"/>
      <point x="886" y="0" type="line"/>
    </contour>
  </outline>
  <guideline angle="90" color="0.4,0.4,0.4,1" name="halfwidth" x="583" y="0"/>
</glyph>
<glyph name="cedilla" format="2">
  <advance width="411"/>
  <unicode hex="00B8"/>
  <outline>
    <contour>
      <point x="189" y="-438" type="qcurve" smooth="yes"/>
      <point x="234.75" y="-438"/>
      <point x="309.312" y="-416.281"/>
      <point x="362.188" y="-372.969"/>
      <point x="391" y="-308.125"/>
      <point x="391" y="-265" type="qcurve" smooth="yes"/>
      <point x="391" y="-226"/>
      <point x="364.531" y="-167.469"/>
      <point x="313.719" y="-128.281"/>
      <point x="239.625" y="-108.375"/>
      <point x="192" y="-108" type="qcurve"/>
      <point x="242" y="0" type="line"/>
      <point x="156" y="0" type="line"/>
      <point x="52" y="-225" type="line"/>
      <point x="76.1472" y="-217.454"/>
      <point x="119.362" y="-210"/>
      <point x="142" y="-210" type="qcurve" smooth="yes"/>
      <point x="177.466" y="-210"/>
      <point x="217" y="-238.816"/>
      <point x="217" y="-269" type="qcurve" smooth="yes"/>
      <point x="217" y="-298.429"/>
      <point x="177.466" y="-331"/>
      <point x="142" y="-331" type="qcurve" smooth="yes"/>
      <point x="120.117" y="-331"/>
      <point x="76.0736" y="-319.546"/>
      <point x="64" y="-312" type="qcurve"/>
      <point x="20" y="-388" type="line"/>
      <point x="53.957" y="-412.147"/>
      <point x="136.178" y="-438"/>
    </contour>
  </outline>
</glyph>
<glyph name="ordmasculine" format="2">
  <advance width="985"/>
  <unicode hex="00BA"/>
  <outline>
    <contour>
      <point x="114" y="924" type="line" smooth="yes"/>
      <point x="114" y="844.012"/>
      <point x="194.675" y="776"/>
      <point x="289" y="776" type="qcurve" smooth="yes"/>
      <point x="696" y="776" type="line" smooth="yes"/>
      <point x="791.08" y="776"/>
      <point x="871" y="844.012"/>
      <point x="871" y="924" type="qcurve" smooth="yes"/>
      <point x="871" y="1308" type="line" smooth="yes"/>
      <point x="871" y="1381.95"/>
      <point x="788.816" y="1448"/>
      <point x="696" y="1448" type="qcurve" smooth="yes"/>
      <point x="289" y="1448" type="line" smooth="yes"/>
      <point x="195.43" y="1448"/>
      <point x="114" y="1381.95"/>
      <point x="114" y="1308" type="qcurve" smooth="yes"/>
    </contour>
    <contour>
      <point x="314" y="945" type="qcurve"/>
      <point x="314" y="1279" type="line"/>
      <point x="314" y="1279"/>
      <point x="314" y="1279"/>
      <point x="314" y="1279" type="qcurve"/>
      <point x="671" y="1279" type="line"/>
      <point x="671" y="1279"/>
      <point x="671" y="1279"/>
      <point x="671" y="1279" type="qcurve"/>
      <point x="671" y="945" type="line"/>
      <point x="671" y="945"/>
      <point x="671" y="945"/>
      <point x="671" y="945" type="qcurve"/>
      <point x="314" y="945" type="line"/>
      <point x="314" y="945"/>
      <point x="314" y="945"/>
    </contour>
  </outline>
</glyph>
<glyph name="guillemotright" format="2">
  <advance width="990"/>
  <unicode hex="00BB"/>
  <outline>
    <contour>
      <point x="676" y="870" type="line"/>
      <point x="454" y="870" type="line"/>
      <point x="696" y="500" type="line"/>
      <point x="454" y="130" type="line"/>
      <point x="676" y="130" type="line"/>
      <point x="918" y="500" type="line"/>
    </contour>
    <contour>
      <point x="291" y="870" type="line"/>
      <point x="69" y="870" type="line"/>
      <point x="311" y="500" type="line"/>
      <point x="69" y="130" type="line"/>
      <point x="291" y="130" type="line"/>
      <point x="533" y="500" type="line"/>
    </contour>
  </outline>
</glyph>
<glyph name="onequarter" format="2">
  <advance width="1816"/>
  <unicode hex="00BC"/>
  <outline>
    <contour>
      <point x="230" y="614" type="line"/>
      <point x="430" y="614" type="line"/>
      <point x="430" y="1407" type="line"/>
      <point x="64" y="1330" type="line"/>
      <point x="64" y="1208" type="line"/>
      <point x="230" y="1211" type="line"/>
    </contour>
    <contour>
      <point x="1055" y="1400" type="line"/>
      <point x="127" y="0" type="line"/>
      <point x="350" y="0" type="line"/>
      <point x="1278" y="1400" type="line"/>
    </contour>
    <contour>
      <point x="799" y="159" type="line"/>
      <point x="1347" y="159" type="line"/>
      <point x="1347" y="0" type="line"/>
      <point x="1547" y="0" type="line"/>
      <point x="1547" y="159" type="line"/>
      <point x="1712" y="159" type="line"/>
      <point x="1712" y="337" type="line"/>
      <point x="1547" y="337" type="line"/>
      <point x="1547" y="791" type="line"/>
      <point x="1361" y="791" type="line"/>
      <point x="799" y="331" type="line"/>
    </contour>
    <contour>
      <point x="1056" y="337" type="line"/>
      <point x="1347" y="575" type="line"/>
      <point x="1347" y="337" type="line"/>
    </contour>
  </outline>
  <guideline angle="90" color="0.4,0.4,0.4,1" name="halfwidth" x="908" y="0"/>
</glyph>
<glyph name="threequarters" format="2">
  <advance width="2299"/>
  <unicode hex="00BE"/>
  <outline>
    <contour>
      <point x="160" y="834" type="line"/>
      <point x="160" y="753" type="line" smooth="yes"/>
      <point x="160" y="659.43"/>
      <point x="266.994" y="614"/>
      <point x="350" y="614" type="qcurve" smooth="yes"/>
      <point x="739" y="614" type="line" smooth="yes"/>
      <point x="823.515" y="614"/>
      <point x="945" y="691.393"/>
      <point x="945" y="791" type="qcurve" smooth="yes"/>
      <point x="945" y="860" type="line" smooth="yes"/>
      <point x="945" y="949.797"/>
      <point x="846.405" y="1027.74"/>
      <point x="780" y="1030" type="qcurve"/>
      <point x="852.442" y="1039.81"/>
      <point x="926" y="1115.77"/>
      <point x="926" y="1195" type="qcurve" smooth="yes"/>
      <point x="926" y="1244" type="line" smooth="yes"/>
      <point x="926" y="1338.32"/>
      <point x="821.362" y="1420"/>
      <point x="721" y="1420" type="qcurve" smooth="yes"/>
      <point x="357" y="1420" type="line" smooth="yes"/>
      <point x="310.125" y="1420"/>
      <point x="239.031" y="1403.56"/>
      <point x="191.219" y="1370.94"/>
      <point x="167" y="1322.25"/>
      <point x="167" y="1290" type="qcurve" smooth="yes"/>
      <point x="167" y="1191" type="line"/>
      <point x="367" y="1156" type="line"/>
      <point x="367" y="1242" type="line"/>
      <point x="367" y="1242"/>
      <point x="367" y="1242"/>
      <point x="367" y="1242" type="qcurve"/>
      <point x="694" y="1242" type="line" smooth="yes"/>
      <point x="708.337" y="1242"/>
      <point x="726" y="1223.34"/>
      <point x="726" y="1209" type="qcurve" smooth="yes"/>
      <point x="726" y="1143" type="line" smooth="yes"/>
      <point x="726" y="1127.15"/>
      <point x="714.583" y="1104"/>
      <point x="701" y="1104" type="qcurve" smooth="yes"/>
      <point x="465" y="1104" type="line"/>
      <point x="465" y="941" type="line"/>
      <point x="720" y="941" type="line" smooth="yes"/>
      <point x="733.583" y="941"/>
      <point x="745" y="917.847"/>
      <point x="745" y="902" type="qcurve" smooth="yes"/>
      <point x="745" y="830" type="line" smooth="yes"/>
      <point x="745" y="813.399"/>
      <point x="724.601" y="792"/>
      <point x="708" y="792" type="qcurve" smooth="yes"/>
      <point x="360" y="792" type="line"/>
      <point x="360" y="792"/>
      <point x="360" y="792"/>
      <point x="360" y="792" type="qcurve"/>
      <point x="360" y="869" type="line"/>
    </contour>
    <contour>
      <point x="610" y="0" type="line"/>
      <point x="833" y="0" type="line"/>
      <point x="1761" y="1400" type="line"/>
      <point x="1538" y="1400" type="line"/>
    </contour>
    <contour>
      <point x="1282" y="159" type="line"/>
      <point x="1830" y="159" type="line"/>
      <point x="1830" y="0" type="line"/>
      <point x="2030" y="0" type="line"/>
      <point x="2030" y="159" type="line"/>
      <point x="2195" y="159" type="line"/>
      <point x="2195" y="337" type="line"/>
      <point x="2030" y="337" type="line"/>
      <point x="2030" y="791" type="line"/>
      <point x="1844" y="791" type="line"/>
      <point x="1282" y="331" type="line"/>
    </contour>
    <contour>
      <point x="1539" y="337" type="line"/>
      <point x="1830" y="575" type="line"/>
      <point x="1830" y="337" type="line"/>
    </contour>
  </outline>
</glyph>
<glyph name="questiondown" format="2">
  <advance width="1270"/>
  <unicode hex="00BF"/>
  <outline>
    <contour>
      <point x="742" y="544" type="line"/>
      <point x="518" y="544" type="line"/>
      <point x="518" y="444" type="line" smooth="yes"/>
      <point x="518" y="409.288"/>
      <point x="494.932" y="369.092"/>
      <point x="424" y="354" type="qcurve" smooth="yes"/>
      <point x="330" y="334" type="line" smooth="yes"/>
      <point x="204.736" y="306.834"/>
      <point x="100" y="203.607"/>
      <point x="100" y="104" type="qcurve" smooth="yes"/>
      <point x="100" y="-160" type="line" smooth="yes"/>
      <point x="100" y="-294.319"/>
      <point x="245.951" y="-408"/>
      <point x="418" y="-408" type="qcurve" smooth="yes"/>
      <point x="792" y="-408" type="line" smooth="yes"/>
      <point x="962.54" y="-408"/>
      <point x="1110" y="-292.81"/>
      <point x="1110" y="-160" type="qcurve" smooth="yes"/>
      <point x="1110" y="-26" type="line"/>
      <point x="884" y="20" type="line"/>
      <point x="884" y="-184" type="line"/>
      <point x="884" y="-184"/>
      <point x="884" y="-184"/>
      <point x="884" y="-184" type="qcurve"/>
      <point x="324" y="-184" type="line"/>
      <point x="324" y="-184"/>
      <point x="324" y="-184"/>
      <point x="324" y="-184" type="qcurve"/>
      <point x="324" y="6" type="line" smooth="yes"/>
      <point x="324" y="72.4048"/>
      <point x="369.669" y="134.417"/>
      <point x="424" y="148" type="qcurve" smooth="yes"/>
      <point x="591" y="189" type="line" smooth="yes"/>
      <point x="670.988" y="208.62"/>
      <point x="742" y="299.049"/>
      <point x="742" y="373" type="qcurve" smooth="yes"/>
    </contour>
    <contour>
      <point x="789" y="895" type="line" smooth="yes"/>
      <point x="789" y="983.288"/>
      <point x="758.288" y="1014"/>
      <point x="670" y="1014" type="qcurve" smooth="yes"/>
      <point x="594" y="1014" type="line" smooth="yes"/>
      <point x="506.25" y="1014"/>
      <point x="474" y="982.75"/>
      <point x="474" y="895" type="qcurve" smooth="yes"/>
      <point x="474" y="816" type="line" smooth="yes"/>
      <point x="474" y="729.221"/>
      <point x="505.712" y="699"/>
      <point x="594" y="699" type="qcurve" smooth="yes"/>
      <point x="670" y="699" type="line" smooth="yes"/>
      <point x="757.75" y="699"/>
      <point x="789" y="729.75"/>
      <point x="789" y="816" type="qcurve" smooth="yes"/>
    </contour>
  </outline>
</glyph>
<glyph name="Agrave" format="2">
  <advance width="1654"/>
  <unicode hex="00C0"/>
  <anchor x="828" y="1550" name="top"/>
  <anchor x="828" y="-150" name="bottom"/>
  <anchor x="1342" y="0" name="ogonek_in"/>
  <anchor x="975" y="1485" name="topright"/>
  <outline>
    <contour>
      <point x="0" y="0" type="line"/>
      <point x="290" y="0" type="line"/>
      <point x="457" y="326" type="line"/>
      <point x="1175" y="326" type="line"/>
      <point x="1342" y="0" type="line"/>
      <point x="1654" y="0" type="line"/>
      <point x="926" y="1400" type="line"/>
      <point x="718" y="1400" type="line"/>
    </contour>
    <contour>
      <point x="580" y="566" type="line"/>
      <point x="816" y="1025" type="line"/>
      <point x="1052" y="566" type="line"/>
    </contour>
    <contour>
      <point x="1035" y="1485" type="line"/>
      <point x="748" y="1800" type="line"/>
      <point x="448" y="1800" type="line"/>
      <point x="781" y="1485" type="line"/>
    </contour>
  </outline>
</glyph>
<glyph name="Acircumflex" format="2">
  <advance width="1654"/>
  <unicode hex="00C2"/>
  <anchor x="828" y="1948" name="top"/>
  <anchor x="828" y="-150" name="bottom"/>
  <anchor x="1342" y="0" name="ogonek_in"/>
  <anchor x="1212" y="1667" name="topright"/>
  <outline>
    <contour>
      <point x="0" y="0" type="line"/>
      <point x="290" y="0" type="line"/>
      <point x="457" y="326" type="line"/>
      <point x="1175" y="326" type="line"/>
      <point x="1342" y="0" type="line"/>
      <point x="1654" y="0" type="line"/>
      <point x="926" y="1400" type="line"/>
      <point x="718" y="1400" type="line"/>
    </contour>
    <contour>
      <point x="580" y="566" type="line"/>
      <point x="816" y="1025" type="line"/>
      <point x="1052" y="566" type="line"/>
    </contour>
    <contour>
      <point x="445" y="1485" type="line"/>
      <point x="665" y="1485" type="line"/>
      <point x="826" y="1705" type="line"/>
      <point x="986" y="1485" type="line"/>
      <point x="1212" y="1485" type="line"/>
      <point x="910" y="1848" type="line"/>
      <point x="749" y="1848" type="line"/>
    </contour>
  </outline>
</glyph>
<glyph name="Atilde" format="2">
  <advance width="1654"/>
  <unicode hex="00C3"/>
  <anchor x="828" y="1860" name="top"/>
  <anchor x="828" y="-150" name="bottom"/>
  <anchor x="1342" y="0" name="ogonek_in"/>
  <outline>
    <contour>
      <point x="0" y="0" type="line"/>
      <point x="290" y="0" type="line"/>
      <point x="457" y="326" type="line"/>
      <point x="1175" y="326" type="line"/>
      <point x="1342" y="0" type="line"/>
      <point x="1654" y="0" type="line"/>
      <point x="926" y="1400" type="line"/>
      <point x="718" y="1400" type="line"/>
    </contour>
    <contour>
      <point x="580" y="566" type="line"/>
      <point x="816" y="1025" type="line"/>
      <point x="1052" y="566" type="line"/>
    </contour>
    <contour>
      <point x="420" y="1550" type="qcurve"/>
      <point x="588" y="1521" type="line"/>
      <point x="598.564" y="1573.82"/>
      <point x="652.325" y="1599"/>
      <point x="681" y="1599" type="qcurve" smooth="yes"/>
      <point x="708" y="1599"/>
      <point x="771.719" y="1574.31"/>
      <point x="845.031" y="1544.69"/>
      <point x="927.875" y="1520"/>
      <point x="974" y="1520" type="qcurve" smooth="yes"/>
      <point x="1011.88" y="1520"/>
      <point x="1093.09" y="1540.75"/>
      <point x="1165.66" y="1594.75"/>
      <point x="1222.5" y="1688.25"/>
      <point x="1236" y="1761" type="qcurve"/>
      <point x="1068" y="1790" type="line"/>
      <point x="1057.44" y="1737.18"/>
      <point x="1003.67" y="1711"/>
      <point x="975" y="1711" type="qcurve" smooth="yes"/>
      <point x="948" y="1711"/>
      <point x="884.281" y="1735.69"/>
      <point x="810.969" y="1765.31"/>
      <point x="728.125" y="1790"/>
      <point x="682" y="1790" type="qcurve" smooth="yes"/>
      <point x="644.125" y="1790"/>
      <point x="562.625" y="1769"/>
      <point x="489.875" y="1715"/>
      <point x="433.125" y="1622"/>
    </contour>
  </outline>
</glyph>
<glyph name="Adieresis" format="2">
  <advance width="1654"/>
  <unicode hex="00C4"/>
  <anchor x="828" y="1860" name="top"/>
  <anchor x="828" y="-150" name="bottom"/>
  <anchor x="1342" y="0" name="ogonek_in"/>
  <outline>
    <contour>
      <point x="0" y="0" type="line"/>
      <point x="290" y="0" type="line"/>
      <point x="457" y="326" type="line"/>
      <point x="1175" y="326" type="line"/>
      <point x="1342" y="0" type="line"/>
      <point x="1654" y="0" type="line"/>
      <point x="926" y="1400" type="line"/>
      <point x="718" y="1400" type="line"/>
    </contour>
    <contour>
      <point x="580" y="566" type="line"/>
      <point x="816" y="1025" type="line"/>
      <point x="1052" y="566" type="line"/>
    </contour>
    <contour>
      <point x="498" y="1610" type="line" smooth="yes"/>
      <point x="498" y="1543.6"/>
      <point x="521.595" y="1520"/>
      <point x="588" y="1520" type="qcurve" smooth="yes"/>
      <point x="658" y="1520" type="line" smooth="yes"/>
      <point x="724.405" y="1520"/>
      <point x="748" y="1543.6"/>
      <point x="748" y="1610" type="qcurve" smooth="yes"/>
      <point x="748" y="1682" type="line" smooth="yes"/>
      <point x="748" y="1746.9"/>
      <point x="724.405" y="1770"/>
      <point x="658" y="1770" type="qcurve" smooth="yes"/>
      <point x="588" y="1770" type="line" smooth="yes"/>
      <point x="521.595" y="1770"/>
      <point x="498" y="1746.9"/>
      <point x="498" y="1682" type="qcurve" smooth="yes"/>
    </contour>
    <contour>
      <point x="908" y="1610" type="line" smooth="yes"/>
      <point x="908" y="1543.6"/>
      <point x="931.595" y="1520"/>
      <point x="998" y="1520" type="qcurve" smooth="yes"/>
      <point x="1068" y="1520" type="line" smooth="yes"/>
      <point x="1134.4" y="1520"/>
      <point x="1158" y="1543.6"/>
      <point x="1158" y="1610" type="qcurve" smooth="yes"/>
      <point x="1158" y="1682" type="line" smooth="yes"/>
      <point x="1158" y="1746.9"/>
      <point x="1134.4" y="1770"/>
      <point x="1068" y="1770" type="qcurve" smooth="yes"/>
      <point x="998" y="1770" type="line" smooth="yes"/>
      <point x="931.595" y="1770"/>
      <point x="908" y="1746.9"/>
      <point x="908" y="1682" type="qcurve" smooth="yes"/>
    </contour>
  </outline>
</glyph>
<glyph name="Aring" format="2">
  <advance width="1654"/>
  <unicode hex="00C5"/>
  <anchor x="828" y="1974" name="top"/>
  <anchor x="828" y="-150" name="bottom"/>
  <anchor x="1342" y="0" name="ogonek_in"/>
  <outline>
    <contour>
      <point x="0" y="0" type="line"/>
      <point x="290" y="0" type="line"/>
      <point x="457" y="326" type="line"/>
      <point x="1175" y="326" type="line"/>
      <point x="1342" y="0" type="line"/>
      <point x="1654" y="0" type="line"/>
      <point x="926" y="1400" type="line"/>
      <point x="718" y="1400" type="line"/>
    </contour>
    <contour>
      <point x="580" y="566" type="line"/>
      <point x="816" y="1025" type="line"/>
      <point x="1052" y="566" type="line"/>
    </contour>
    <contour>
      <point x="828" y="1472" type="qcurve" smooth="yes"/>
      <point x="896" y="1472"/>
      <point x="979" y="1488"/>
      <point x="1024" y="1531"/>
      <point x="1040" y="1609"/>
      <point x="1040" y="1672" type="qcurve" smooth="yes"/>
      <point x="1040" y="1735"/>
      <point x="1024" y="1812"/>
      <point x="979" y="1856"/>
      <point x="896" y="1871"/>
      <point x="828" y="1871" type="qcurve" smooth="yes"/>
      <point x="761" y="1871"/>
      <point x="677" y="1856"/>
      <point x="632" y="1812"/>
      <point x="616" y="1735"/>
      <point x="616" y="1672" type="qcurve" smooth="yes"/>
      <point x="616" y="1609"/>
      <point x="632" y="1531"/>
      <point x="677" y="1488"/>
      <point x="761" y="1472"/>
    </contour>
    <contour>
      <point x="828" y="1596" type="qcurve" smooth="yes"/>
      <point x="779" y="1596"/>
      <point x="756" y="1630"/>
      <point x="756" y="1672" type="qcurve" smooth="yes"/>
      <point x="756" y="1713"/>
      <point x="779" y="1747"/>
      <point x="828" y="1747" type="qcurve" smooth="yes"/>
      <point x="876" y="1747"/>
      <point x="900" y="1713"/>
      <point x="900" y="1672" type="qcurve" smooth="yes"/>
      <point x="900" y="1630"/>
      <point x="876" y="1596"/>
    </contour>
  </outline>
</glyph>
<glyph name="Ccedilla" format="2">
  <advance width="1608"/>
  <unicode hex="00C7"/>
  <anchor x="821" y="1564" name="top"/>
  <anchor x="825" y="-164" name="bottom"/>
  <anchor x="825" y="0" name="ogrev"/>
  <outline>
    <contour>
      <point x="170" y="1140" type="qcurve" smooth="yes"/>
      <point x="170" y="272" type="line" smooth="yes"/>
      <point x="170" y="117"/>
      <point x="325" y="-14"/>
      <point x="512" y="-14" type="qcurve" smooth="yes"/>
      <point x="1138" y="-14" type="line" smooth="yes"/>
      <point x="1325" y="-14"/>
      <point x="1482" y="117"/>
      <point x="1482" y="272" type="qcurve" smooth="yes"/>
      <point x="1482" y="478" type="line"/>
      <point x="1218" y="530" type="line"/>
      <point x="1218" y="230" type="line"/>
      <point x="1218" y="230"/>
      <point x="1218" y="230"/>
      <point x="1218" y="230" type="qcurve"/>
      <point x="434" y="230" type="line"/>
      <point x="434" y="230"/>
      <point x="434" y="230"/>
      <point x="434" y="230" type="qcurve"/>
      <point x="434" y="1170" type="line"/>
      <point x="434" y="1170"/>
      <point x="434" y="1170"/>
      <point x="434" y="1170" type="qcurve"/>
      <point x="1210" y="1170" type="line"/>
      <point x="1210" y="1170"/>
      <point x="1210" y="1170"/>
      <point x="1210" y="1170" type="qcurve"/>
      <point x="1210" y="896" type="line"/>
      <point x="1474" y="944" type="line"/>
      <point x="1474" y="1140" type="line" smooth="yes"/>
      <point x="1474" y="1287"/>
      <point x="1315" y="1414"/>
      <point x="1130" y="1414" type="qcurve" smooth="yes"/>
      <point x="512" y="1414" type="line" smooth="yes"/>
      <point x="329" y="1414"/>
      <point x="170" y="1287"/>
    </contour>
    <contour>
      <point x="807" y="-452" type="qcurve" smooth="yes"/>
      <point x="904" y="-452"/>
      <point x="1010" y="-362"/>
      <point x="1010" y="-281" type="qcurve" smooth="yes"/>
      <point x="1010" y="-203"/>
      <point x="910" y="-123"/>
      <point x="811" y="-122" type="qcurve"/>
      <point x="868" y="1" type="line"/>
      <point x="782" y="1" type="line"/>
      <point x="671" y="-239" type="line"/>
      <point x="694" y="-232"/>
      <point x="740" y="-224"/>
      <point x="760" y="-224" type="qcurve" smooth="yes"/>
      <point x="797" y="-224"/>
      <point x="836" y="-254"/>
      <point x="836" y="-283" type="qcurve" smooth="yes"/>
      <point x="836" y="-312"/>
      <point x="798" y="-345"/>
      <point x="762" y="-345" type="qcurve" smooth="yes"/>
      <point x="741" y="-345"/>
      <point x="696" y="-334"/>
      <point x="683" y="-326" type="qcurve"/>
      <point x="639" y="-402" type="line"/>
      <point x="674" y="-428"/>
      <point x="757" y="-452"/>
    </contour>
  </outline>
  <guideline angle="0" x="0" y="11"/>
</glyph>
<glyph name="Ecircumflex" format="2">
  <advance width="1568"/>
  <unicode hex="00CA"/>
  <anchor x="829" y="1948" name="top"/>
  <anchor x="829" y="-150" name="bottom"/>
  <anchor x="1381" y="0" name="ogonek"/>
  <anchor x="1213" y="1667" name="topright"/>
  <outline>
    <contour>
      <point x="200" y="0" type="line"/>
      <point x="1458" y="0" type="line"/>
      <point x="1458" y="244" type="line"/>
      <point x="464" y="244" type="line"/>
      <point x="464" y="596" type="line"/>
      <point x="1052" y="596" type="line"/>
      <point x="1052" y="840" type="line"/>
      <point x="464" y="840" type="line"/>
      <point x="464" y="1156" type="line"/>
      <point x="1438" y="1156" type="line"/>
      <point x="1438" y="1400" type="line"/>
      <point x="200" y="1400" type="line"/>
    </contour>
    <contour>
      <point x="446" y="1485" type="line"/>
      <point x="666" y="1485" type="line"/>
      <point x="827" y="1705" type="line"/>
      <point x="987" y="1485" type="line"/>
      <point x="1213" y="1485" type="line"/>
      <point x="911" y="1848" type="line"/>
      <point x="750" y="1848" type="line"/>
    </contour>
  </outline>
  <guideline angle="90" x="-110" y="0"/>
</glyph>
<glyph name="Edieresis" format="2">
  <advance width="1568"/>
  <unicode hex="00CB"/>
  <anchor x="829" y="1860" name="top"/>
  <anchor x="829" y="-150" name="bottom"/>
  <anchor x="1381" y="0" name="ogonek"/>
  <outline>
    <contour>
      <point x="200" y="0" type="line"/>
      <point x="1458" y="0" type="line"/>
      <point x="1458" y="244" type="line"/>
      <point x="464" y="244" type="line"/>
      <point x="464" y="596" type="line"/>
      <point x="1052" y="596" type="line"/>
      <point x="1052" y="840" type="line"/>
      <point x="464" y="840" type="line"/>
      <point x="464" y="1156" type="line"/>
      <point x="1438" y="1156" type="line"/>
      <point x="1438" y="1400" type="line"/>
      <point x="200" y="1400" type="line"/>
    </contour>
    <contour>
      <point x="589" y="1520" type="qcurve" smooth="yes"/>
      <point x="659" y="1520" type="line" smooth="yes"/>
      <point x="725" y="1520"/>
      <point x="749" y="1544"/>
      <point x="749" y="1610" type="qcurve" smooth="yes"/>
      <point x="749" y="1682" type="line" smooth="yes"/>
      <point x="749" y="1747"/>
      <point x="725" y="1770"/>
      <point x="659" y="1770" type="qcurve" smooth="yes"/>
      <point x="589" y="1770" type="line" smooth="yes"/>
      <point x="523" y="1770"/>
      <point x="499" y="1747"/>
      <point x="499" y="1682" type="qcurve" smooth="yes"/>
      <point x="499" y="1610" type="line" smooth="yes"/>
      <point x="499" y="1544"/>
      <point x="523" y="1520"/>
    </contour>
    <contour>
      <point x="999" y="1520" type="qcurve" smooth="yes"/>
      <point x="1069" y="1520" type="line" smooth="yes"/>
      <point x="1135" y="1520"/>
      <point x="1159" y="1544"/>
      <point x="1159" y="1610" type="qcurve" smooth="yes"/>
      <point x="1159" y="1682" type="line" smooth="yes"/>
      <point x="1159" y="1747"/>
      <point x="1135" y="1770"/>
      <point x="1069" y="1770" type="qcurve" smooth="yes"/>
      <point x="999" y="1770" type="line" smooth="yes"/>
      <point x="933" y="1770"/>
      <point x="909" y="1747"/>
      <point x="909" y="1682" type="qcurve" smooth="yes"/>
      <point x="909" y="1610" type="line" smooth="yes"/>
      <point x="909" y="1544"/>
      <point x="933" y="1520"/>
    </contour>
  </outline>
  <guideline angle="90" x="-110" y="0"/>
</glyph>
<glyph name="Igrave" format="2">
  <advance width="664"/>
  <unicode hex="00CC"/>
  <anchor x="332" y="1550" name="top"/>
  <anchor x="332" y="-150" name="bottom"/>
  <anchor x="200" y="0" name="ogonek"/>
  <anchor x="479" y="1485" name="topright"/>
  <outline>
    <contour>
      <point x="200" y="0" type="line"/>
      <point x="464" y="0" type="line"/>
      <point x="464" y="1400" type="line"/>
      <point x="200" y="1400" type="line"/>
    </contour>
    <contour>
      <point x="285" y="1485" type="line"/>
      <point x="539" y="1485" type="line"/>
      <point x="252" y="1800" type="line"/>
      <point x="-48" y="1800" type="line"/>
    </contour>
  </outline>
</glyph>
<glyph name="Iacute" format="2">
  <advance width="664"/>
  <unicode hex="00CD"/>
  <anchor x="332" y="1550" name="top"/>
  <anchor x="332" y="-150" name="bottom"/>
  <anchor x="200" y="0" name="ogonek"/>
  <anchor x="185" y="1485" name="topright"/>
  <outline>
    <contour>
      <point x="200" y="0" type="line"/>
      <point x="464" y="0" type="line"/>
      <point x="464" y="1400" type="line"/>
      <point x="200" y="1400" type="line"/>
    </contour>
    <contour>
      <point x="125" y="1485" type="line"/>
      <point x="379" y="1485" type="line"/>
      <point x="712" y="1800" type="line"/>
      <point x="412" y="1800" type="line"/>
    </contour>
  </outline>
</glyph>
<glyph name="Icircumflex" format="2">
  <advance width="664"/>
  <unicode hex="00CE"/>
  <anchor x="332" y="1948" name="top"/>
  <anchor x="332" y="-150" name="bottom"/>
  <anchor x="396" y="0" name="ogonek"/>
  <anchor x="716" y="1667" name="topright"/>
  <outline>
    <contour>
      <point x="200" y="0" type="line"/>
      <point x="464" y="0" type="line"/>
      <point x="464" y="1400" type="line"/>
      <point x="200" y="1400" type="line"/>
    </contour>
    <contour>
      <point x="-51" y="1485" type="line"/>
      <point x="169" y="1485" type="line"/>
      <point x="330" y="1705" type="line"/>
      <point x="490" y="1485" type="line"/>
      <point x="716" y="1485" type="line"/>
      <point x="414" y="1848" type="line"/>
      <point x="253" y="1848" type="line"/>
    </contour>
  </outline>
</glyph>
<glyph name="Eth" format="2">
  <advance width="1770"/>
  <unicode hex="00D0"/>
  <anchor x="797" y="1550" name="top"/>
  <anchor x="797" y="-150" name="bottom"/>
  <outline>
    <contour>
      <point x="200" y="0" type="line"/>
      <point x="1004" y="0" type="line" smooth="yes"/>
      <point x="1142" y="0"/>
      <point x="1385" y="78"/>
      <point x="1565" y="246"/>
      <point x="1670" y="512"/>
      <point x="1670" y="700" type="qcurve" smooth="yes"/>
      <point x="1670" y="877"/>
      <point x="1567" y="1140"/>
      <point x="1387" y="1314"/>
      <point x="1144" y="1400"/>
      <point x="1004" y="1400" type="qcurve" smooth="yes"/>
      <point x="200" y="1400" type="line"/>
      <point x="200" y="812" type="line"/>
      <point x="100" y="812" type="line"/>
      <point x="100" y="588" type="line"/>
      <point x="200" y="588" type="line"/>
    </contour>
    <contour>
      <point x="464" y="244" type="line"/>
      <point x="464" y="588" type="line"/>
      <point x="812" y="588" type="line"/>
      <point x="812" y="812" type="line"/>
      <point x="464" y="812" type="line"/>
      <point x="464" y="1156" type="line"/>
      <point x="988" y="1156" type="line" smooth="yes"/>
      <point x="1086" y="1156"/>
      <point x="1236" y="1109"/>
      <point x="1339" y="1003"/>
      <point x="1392" y="833"/>
      <point x="1392" y="710" type="qcurve" smooth="yes"/>
      <point x="1392" y="582"/>
      <point x="1340" y="404"/>
      <point x="1238" y="293"/>
      <point x="1087" y="244"/>
      <point x="988" y="244" type="qcurve" smooth="yes"/>
    </contour>
  </outline>
</glyph>
<glyph name="Ntilde" format="2">
  <advance width="1830"/>
  <unicode hex="00D1"/>
  <anchor x="915" y="1860" name="top"/>
  <anchor x="915" y="-150" name="bottom"/>
  <outline>
    <contour>
      <point x="200" y="0" type="line"/>
      <point x="444" y="0" type="line"/>
      <point x="444" y="978" type="line"/>
      <point x="1426" y="0" type="line"/>
      <point x="1630" y="0" type="line"/>
      <point x="1630" y="1400" type="line"/>
      <point x="1386" y="1400" type="line"/>
      <point x="1386" y="416" type="line"/>
      <point x="404" y="1400" type="line"/>
      <point x="200" y="1400" type="line"/>
    </contour>
    <contour>
      <point x="507" y="1550" type="qcurve"/>
      <point x="675" y="1521" type="line"/>
      <point x="686" y="1574"/>
      <point x="739" y="1599"/>
      <point x="768" y="1599" type="qcurve" smooth="yes"/>
      <point x="795" y="1599"/>
      <point x="859" y="1574"/>
      <point x="932" y="1545"/>
      <point x="1015" y="1520"/>
      <point x="1061" y="1520" type="qcurve" smooth="yes"/>
      <point x="1099" y="1520"/>
      <point x="1180" y="1541"/>
      <point x="1253" y="1595"/>
      <point x="1310" y="1688"/>
      <point x="1323" y="1761" type="qcurve"/>
      <point x="1155" y="1790" type="line"/>
      <point x="1144" y="1737"/>
      <point x="1091" y="1711"/>
      <point x="1062" y="1711" type="qcurve" smooth="yes"/>
      <point x="1035" y="1711"/>
      <point x="971" y="1736"/>
      <point x="898" y="1765"/>
      <point x="815" y="1790"/>
      <point x="769" y="1790" type="qcurve" smooth="yes"/>
      <point x="731" y="1790"/>
      <point x="650" y="1769"/>
      <point x="577" y="1715"/>
      <point x="520" y="1622"/>
    </contour>
  </outline>
</glyph>
<glyph name="Ograve" format="2">
  <advance width="1792"/>
  <unicode hex="00D2"/>
  <anchor x="896" y="1564" name="top"/>
  <anchor x="896" y="-164" name="bottom"/>
  <anchor x="1622" y="1140" name="horn"/>
  <anchor x="994" y="0" name="ogonek"/>
  <anchor x="1043" y="1499" name="topright"/>
  <outline>
    <contour>
      <point x="170" y="1140" type="qcurve" smooth="yes"/>
      <point x="170" y="272" type="line" smooth="yes"/>
      <point x="170" y="95.4236"/>
      <point x="350.516" y="-14"/>
      <point x="512" y="-14" type="qcurve" smooth="yes"/>
      <point x="1278" y="-14" type="line" smooth="yes"/>
      <point x="1439.48" y="-14"/>
      <point x="1622" y="93.9144"/>
      <point x="1622" y="272" type="qcurve" smooth="yes"/>
      <point x="1622" y="1140" type="line" smooth="yes"/>
      <point x="1622" y="1311"/>
      <point x="1429.5" y="1414"/>
      <point x="1278" y="1414" type="qcurve" smooth="yes"/>
      <point x="512" y="1414" type="line" smooth="yes"/>
      <point x="360.5" y="1414"/>
      <point x="170" y="1311"/>
    </contour>
    <contour>
      <point x="434" y="1170" type="line"/>
      <point x="434" y="1170"/>
      <point x="434" y="1170"/>
      <point x="434" y="1170" type="qcurve"/>
      <point x="1358" y="1170" type="line"/>
      <point x="1358" y="1170"/>
      <point x="1358" y="1170"/>
      <point x="1358" y="1170" type="qcurve"/>
      <point x="1358" y="230" type="line"/>
      <point x="1358" y="230"/>
      <point x="1358" y="230"/>
      <point x="1358" y="230" type="qcurve"/>
      <point x="434" y="230" type="line"/>
      <point x="434" y="230"/>
      <point x="434" y="230"/>
      <point x="434" y="230" type="qcurve"/>
    </contour>
    <contour>
      <point x="849" y="1499" type="line"/>
      <point x="1103" y="1499" type="line"/>
      <point x="816" y="1814" type="line"/>
      <point x="516" y="1814" type="line"/>
    </contour>
  </outline>
</glyph>
<glyph name="Ocircumflex" format="2">
  <advance width="1792"/>
  <unicode hex="00D4"/>
  <anchor x="895" y="1894" name="top"/>
  <anchor x="895" y="-164" name="bottom"/>
  <anchor x="1515" y="1363" name="horn"/>
  <anchor x="895" y="0" name="ogonek"/>
  <anchor x="1307" y="1599" name="topright"/>
  <outline>
    <contour>
      <point x="170" y="1140" type="qcurve" smooth="yes"/>
      <point x="170" y="272" type="line" smooth="yes"/>
      <point x="170" y="95.4236"/>
      <point x="350.516" y="-14"/>
      <point x="512" y="-14" type="qcurve" smooth="yes"/>
      <point x="1278" y="-14" type="line" smooth="yes"/>
      <point x="1439.48" y="-14"/>
      <point x="1622" y="93.9144"/>
      <point x="1622" y="272" type="qcurve" smooth="yes"/>
      <point x="1622" y="1140" type="line" smooth="yes"/>
      <point x="1622" y="1311"/>
      <point x="1429.5" y="1414"/>
      <point x="1278" y="1414" type="qcurve" smooth="yes"/>
      <point x="512" y="1414" type="line" smooth="yes"/>
      <point x="360.5" y="1414"/>
      <point x="170" y="1311"/>
    </contour>
    <contour>
      <point x="434" y="1170" type="line"/>
      <point x="434" y="1170"/>
      <point x="434" y="1170"/>
      <point x="434" y="1170" type="qcurve"/>
      <point x="1358" y="1170" type="line"/>
      <point x="1358" y="1170"/>
      <point x="1358" y="1170"/>
      <point x="1358" y="1170" type="qcurve"/>
      <point x="1358" y="230" type="line"/>
      <point x="1358" y="230"/>
      <point x="1358" y="230"/>
      <point x="1358" y="230" type="qcurve"/>
      <point x="434" y="230" type="line"/>
      <point x="434" y="230"/>
      <point x="434" y="230"/>
      <point x="434" y="230" type="qcurve"/>
    </contour>
    <contour>
      <point x="484" y="1499" type="line"/>
      <point x="732" y="1499" type="line"/>
      <point x="893" y="1691" type="line"/>
      <point x="1053" y="1499" type="line"/>
      <point x="1307" y="1499" type="line"/>
      <point x="1005" y="1814" type="line"/>
      <point x="788" y="1814" type="line"/>
    </contour>
  </outline>
</glyph>
<glyph name="Otilde" format="2">
  <advance width="1792"/>
  <unicode hex="00D5"/>
  <anchor x="896" y="1874" name="top"/>
  <anchor x="896" y="-164" name="bottom"/>
  <anchor x="1622" y="1140" name="horn"/>
  <anchor x="994" y="0" name="ogonek"/>
  <outline>
    <contour>
      <point x="170" y="1140" type="qcurve" smooth="yes"/>
      <point x="170" y="272" type="line" smooth="yes"/>
      <point x="170" y="95.4236"/>
      <point x="350.516" y="-14"/>
      <point x="512" y="-14" type="qcurve" smooth="yes"/>
      <point x="1278" y="-14" type="line" smooth="yes"/>
      <point x="1439.48" y="-14"/>
      <point x="1622" y="93.9144"/>
      <point x="1622" y="272" type="qcurve" smooth="yes"/>
      <point x="1622" y="1140" type="line" smooth="yes"/>
      <point x="1622" y="1311"/>
      <point x="1429.5" y="1414"/>
      <point x="1278" y="1414" type="qcurve" smooth="yes"/>
      <point x="512" y="1414" type="line" smooth="yes"/>
      <point x="360.5" y="1414"/>
      <point x="170" y="1311"/>
    </contour>
    <contour>
      <point x="434" y="1170" type="line"/>
      <point x="434" y="1170"/>
      <point x="434" y="1170"/>
      <point x="434" y="1170" type="qcurve"/>
      <point x="1358" y="1170" type="line"/>
      <point x="1358" y="1170"/>
      <point x="1358" y="1170"/>
      <point x="1358" y="1170" type="qcurve"/>
      <point x="1358" y="230" type="line"/>
      <point x="1358" y="230"/>
      <point x="1358" y="230"/>
      <point x="1358" y="230" type="qcurve"/>
      <point x="434" y="230" type="line"/>
      <point x="434" y="230"/>
      <point x="434" y="230"/>
      <point x="434" y="230" type="qcurve"/>
    </contour>
    <contour>
      <point x="488" y="1564" type="qcurve"/>
      <point x="656" y="1535" type="line"/>
      <point x="666.564" y="1587.82"/>
      <point x="720.325" y="1613"/>
      <point x="749" y="1613" type="qcurve" smooth="yes"/>
      <point x="776" y="1613"/>
      <point x="839.719" y="1588.31"/>
      <point x="913.031" y="1558.69"/>
      <point x="995.875" y="1534"/>
      <point x="1042" y="1534" type="qcurve" smooth="yes"/>
      <point x="1079.88" y="1534"/>
      <point x="1161.09" y="1554.75"/>
      <point x="1233.66" y="1608.75"/>
      <point x="1290.5" y="1702.25"/>
      <point x="1304" y="1775" type="qcurve"/>
      <point x="1136" y="1804" type="line"/>
      <point x="1125.44" y="1751.18"/>
      <point x="1071.67" y="1725"/>
      <point x="1043" y="1725" type="qcurve" smooth="yes"/>
      <point x="1016" y="1725"/>
      <point x="952.281" y="1749.69"/>
      <point x="878.969" y="1779.31"/>
      <point x="796.125" y="1804"/>
      <point x="750" y="1804" type="qcurve" smooth="yes"/>
      <point x="712.125" y="1804"/>
      <point x="630.625" y="1783"/>
      <point x="557.875" y="1729"/>
      <point x="501.125" y="1636"/>
    </contour>
  </outline>
</glyph>
<glyph name="Odieresis" format="2">
  <advance width="1792"/>
  <unicode hex="00D6"/>
  <anchor x="895" y="1874" name="top"/>
  <anchor x="895" y="-164" name="bottom"/>
  <anchor x="1622" y="1140" name="horn"/>
  <anchor x="994" y="0" name="ogonek"/>
  <outline>
    <contour>
      <point x="170" y="1140" type="qcurve" smooth="yes"/>
      <point x="170" y="272" type="line" smooth="yes"/>
      <point x="170" y="95.4236"/>
      <point x="350.516" y="-14"/>
      <point x="512" y="-14" type="qcurve" smooth="yes"/>
      <point x="1278" y="-14" type="line" smooth="yes"/>
      <point x="1439.48" y="-14"/>
      <point x="1622" y="93.9144"/>
      <point x="1622" y="272" type="qcurve" smooth="yes"/>
      <point x="1622" y="1140" type="line" smooth="yes"/>
      <point x="1622" y="1311"/>
      <point x="1429.5" y="1414"/>
      <point x="1278" y="1414" type="qcurve" smooth="yes"/>
      <point x="512" y="1414" type="line" smooth="yes"/>
      <point x="360.5" y="1414"/>
      <point x="170" y="1311"/>
    </contour>
    <contour>
      <point x="434" y="1170" type="line"/>
      <point x="434" y="1170"/>
      <point x="434" y="1170"/>
      <point x="434" y="1170" type="qcurve"/>
      <point x="1358" y="1170" type="line"/>
      <point x="1358" y="1170"/>
      <point x="1358" y="1170"/>
      <point x="1358" y="1170" type="qcurve"/>
      <point x="1358" y="230" type="line"/>
      <point x="1358" y="230"/>
      <point x="1358" y="230"/>
      <point x="1358" y="230" type="qcurve"/>
      <point x="434" y="230" type="line"/>
      <point x="434" y="230"/>
      <point x="434" y="230"/>
      <point x="434" y="230" type="qcurve"/>
    </contour>
    <contour>
      <point x="655" y="1534" type="qcurve" smooth="yes"/>
      <point x="725" y="1534" type="line" smooth="yes"/>
      <point x="791.405" y="1534"/>
      <point x="815" y="1557.6"/>
      <point x="815" y="1624" type="qcurve" smooth="yes"/>
      <point x="815" y="1696" type="line" smooth="yes"/>
      <point x="815" y="1760.9"/>
      <point x="791.405" y="1784"/>
      <point x="725" y="1784" type="qcurve" smooth="yes"/>
      <point x="655" y="1784" type="line" smooth="yes"/>
      <point x="588.595" y="1784"/>
      <point x="565" y="1760.9"/>
      <point x="565" y="1696" type="qcurve" smooth="yes"/>
      <point x="565" y="1624" type="line" smooth="yes"/>
      <point x="565" y="1557.6"/>
      <point x="588.595" y="1534"/>
    </contour>
    <contour>
      <point x="1065" y="1534" type="qcurve" smooth="yes"/>
      <point x="1135" y="1534" type="line" smooth="yes"/>
      <point x="1201.4" y="1534"/>
      <point x="1225" y="1557.6"/>
      <point x="1225" y="1624" type="qcurve" smooth="yes"/>
      <point x="1225" y="1696" type="line" smooth="yes"/>
      <point x="1225" y="1760.9"/>
      <point x="1201.4" y="1784"/>
      <point x="1135" y="1784" type="qcurve" smooth="yes"/>
      <point x="1065" y="1784" type="line" smooth="yes"/>
      <point x="998.595" y="1784"/>
      <point x="975" y="1760.9"/>
      <point x="975" y="1696" type="qcurve" smooth="yes"/>
      <point x="975" y="1624" type="line" smooth="yes"/>
      <point x="975" y="1557.6"/>
      <point x="998.595" y="1534"/>
    </contour>
  </outline>
</glyph>
<glyph name="Oslash" format="2">
  <advance width="1994"/>
  <unicode hex="00D8"/>
  <anchor x="997" y="1610" name="top"/>
  <outline>
    <contour>
      <point x="271" y="1140" type="qcurve" smooth="yes"/>
      <point x="271" y="272" type="line" smooth="yes"/>
      <point x="271" y="95"/>
      <point x="452" y="-14"/>
      <point x="613" y="-14" type="qcurve" smooth="yes"/>
      <point x="1379" y="-14" type="line" smooth="yes"/>
      <point x="1540" y="-14"/>
      <point x="1723" y="94"/>
      <point x="1723" y="272" type="qcurve" smooth="yes"/>
      <point x="1723" y="1140" type="line" smooth="yes"/>
      <point x="1723" y="1311"/>
      <point x="1531" y="1414"/>
      <point x="1379" y="1414" type="qcurve" smooth="yes"/>
      <point x="613" y="1414" type="line" smooth="yes"/>
      <point x="462" y="1414"/>
      <point x="271" y="1311"/>
    </contour>
    <contour>
      <point x="535" y="1170" type="line"/>
      <point x="535" y="1170"/>
      <point x="535" y="1170"/>
      <point x="535" y="1170" type="qcurve"/>
      <point x="1459" y="1170" type="line"/>
      <point x="1459" y="1170"/>
      <point x="1459" y="1170"/>
      <point x="1459" y="1170" type="qcurve"/>
      <point x="1459" y="230" type="line"/>
      <point x="1459" y="230"/>
      <point x="1459" y="230"/>
      <point x="1459" y="230" type="qcurve"/>
      <point x="535" y="230" type="line"/>
      <point x="535" y="230"/>
      <point x="535" y="230"/>
      <point x="535" y="230" type="qcurve"/>
    </contour>
    <contour>
      <point x="290" y="-60" type="line"/>
      <point x="478" y="110" type="line"/>
      <point x="487" y="118" type="line"/>
      <point x="1606" y="1129" type="line"/>
      <point x="1606" y="1129" type="line"/>
      <point x="1824" y="1326" type="line"/>
      <point x="1704" y="1460" type="line"/>
      <point x="1489" y="1266" type="line"/>
      <point x="1488" y="1265" type="line"/>
      <point x="372" y="256" type="line"/>
      <point x="367" y="252" type="line"/>
      <point x="170" y="74" type="line"/>
    </contour>
  </outline>
  <guideline angle="0" x="0" y="-60"/>
  <guideline angle="0" x="0" y="-60"/>
  <guideline angle="0" x="0" y="1460"/>
</glyph>
<glyph name="Uacute" format="2">
  <advance width="1696"/>
  <unicode hex="00DA"/>
  <anchor x="848" y="1550" name="top"/>
  <anchor x="847" y="-150" name="bottom"/>
  <anchor x="847" y="0" name="ogonek"/>
  <anchor x="1379" y="1400" name="horn"/>
  <anchor x="701" y="1485" name="topright"/>
  <outline>
    <contour>
      <point x="185" y="1400" type="line"/>
      <point x="185" y="272" type="line" smooth="yes"/>
      <point x="185" y="184"/>
      <point x="232" y="72"/>
      <point x="321" y="9"/>
      <point x="448" y="-14"/>
      <point x="527" y="-14" type="qcurve" smooth="yes"/>
      <point x="1167" y="-14" type="line" smooth="yes"/>
      <point x="1328" y="-14"/>
      <point x="1511" y="95"/>
      <point x="1511" y="272" type="qcurve" smooth="yes"/>
      <point x="1511" y="1400" type="line"/>
      <point x="1247" y="1400" type="line"/>
      <point x="1247" y="240" type="line"/>
      <point x="1247" y="240"/>
      <point x="1247" y="240"/>
      <point x="1247" y="240" type="qcurve"/>
      <point x="449" y="240" type="line"/>
      <point x="449" y="240"/>
      <point x="449" y="240"/>
      <point x="449" y="240" type="qcurve"/>
      <point x="449" y="1400" type="line"/>
    </contour>
    <contour>
      <point x="641" y="1485" type="line"/>
      <point x="895" y="1485" type="line"/>
      <point x="1228" y="1800" type="line"/>
      <point x="928" y="1800" type="line"/>
    </contour>
  </outline>
</glyph>
<glyph name="Ucircumflex" format="2">
  <advance width="1696"/>
  <unicode hex="00DB"/>
  <anchor x="848" y="1948" name="top"/>
  <anchor x="848" y="-150" name="bottom"/>
  <anchor x="946" y="0" name="ogonek"/>
  <anchor x="1511" y="1400" name="horn"/>
  <anchor x="1232" y="1667" name="topright"/>
  <outline>
    <contour>
      <point x="185" y="1400" type="line"/>
      <point x="185" y="272" type="line" smooth="yes"/>
      <point x="185" y="183.5"/>
      <point x="232.25" y="72"/>
      <point x="320.75" y="9"/>
      <point x="447.5" y="-14"/>
      <point x="527" y="-14" type="qcurve" smooth="yes"/>
      <point x="1167" y="-14" type="line" smooth="yes"/>
      <point x="1327.5" y="-14"/>
      <point x="1511" y="95"/>
      <point x="1511" y="272" type="qcurve" smooth="yes"/>
      <point x="1511" y="1400" type="line"/>
      <point x="1247" y="1400" type="line"/>
      <point x="1247" y="240" type="line"/>
      <point x="1247" y="240"/>
      <point x="1247" y="240"/>
      <point x="1247" y="240" type="qcurve"/>
      <point x="449" y="240" type="line"/>
      <point x="449" y="240"/>
      <point x="449" y="240"/>
      <point x="449" y="240" type="qcurve"/>
      <point x="449" y="1400" type="line"/>
    </contour>
    <contour>
      <point x="465" y="1485" type="line"/>
      <point x="685" y="1485" type="line"/>
      <point x="846" y="1705" type="line"/>
      <point x="1006" y="1485" type="line"/>
      <point x="1232" y="1485" type="line"/>
      <point x="930" y="1848" type="line"/>
      <point x="769" y="1848" type="line"/>
    </contour>
  </outline>
</glyph>
<glyph name="Yacute" format="2">
  <advance width="1566"/>
  <unicode hex="00DD"/>
  <anchor x="783" y="1550" name="top"/>
  <anchor x="796" y="-150" name="bottom"/>
  <anchor x="636" y="1485" name="topright"/>
  <outline>
    <contour>
      <point x="664" y="0" type="line"/>
      <point x="928" y="0" type="line"/>
      <point x="928" y="613" type="line"/>
      <point x="1566" y="1400" type="line"/>
      <point x="1238" y="1400" type="line"/>
      <point x="807" y="854" type="line"/>
      <point x="379" y="1400" type="line"/>
      <point x="0" y="1400" type="line"/>
      <point x="664" y="612" type="line"/>
    </contour>
    <contour>
      <point x="576" y="1485" type="line"/>
      <point x="830" y="1485" type="line"/>
      <point x="1163" y="1800" type="line"/>
      <point x="863" y="1800" type="line"/>
    </contour>
  </outline>
  <guideline angle="90" color="1,0,0,1" x="778" y="0"/>
</glyph>
<glyph name="Thorn" format="2">
  <advance width="1618"/>
  <unicode hex="00DE"/>
  <outline>
    <contour>
      <point x="180" y="0" type="line"/>
      <point x="444" y="0" type="line"/>
      <point x="444" y="285" type="line"/>
      <point x="1122" y="285" type="line" smooth="yes"/>
      <point x="1295" y="285"/>
      <point x="1466" y="415"/>
      <point x="1466" y="545" type="qcurve" smooth="yes"/>
      <point x="1466" y="883" type="line" smooth="yes"/>
      <point x="1466" y="1054"/>
      <point x="1274" y="1157"/>
      <point x="1122" y="1157" type="qcurve" smooth="yes"/>
      <point x="444" y="1157" type="line"/>
      <point x="444" y="1400" type="line"/>
      <point x="180" y="1400" type="line"/>
    </contour>
    <contour>
      <point x="444" y="529" type="line"/>
      <point x="444" y="913" type="line"/>
      <point x="1096" y="913" type="line" smooth="yes"/>
      <point x="1149" y="913"/>
      <point x="1202" y="866"/>
      <point x="1202" y="813" type="qcurve" smooth="yes"/>
      <point x="1202" y="629" type="line" smooth="yes"/>
      <point x="1202" y="569"/>
      <point x="1149" y="529"/>
      <point x="1096" y="529" type="qcurve" smooth="yes"/>
    </contour>
  </outline>
  <guideline angle="90" color="0.4,0.4,0.4,1" name="halfwidth" x="809" y="0"/>
</glyph>
<glyph name="germandbls" format="2">
  <advance width="1358"/>
  <unicode hex="00DF"/>
  <outline>
    <contour>
      <point x="166" y="0" type="line"/>
      <point x="414" y="0" type="line"/>
      <point x="414" y="1244" type="line"/>
      <point x="414" y="1244"/>
      <point x="414" y="1244"/>
      <point x="414" y="1244" type="qcurve"/>
      <point x="932" y="1244" type="line"/>
      <point x="932" y="1244"/>
      <point x="932" y="1244"/>
      <point x="932" y="1244" type="qcurve"/>
      <point x="932" y="1000" type="line"/>
      <point x="932" y="1000"/>
      <point x="932" y="1000"/>
      <point x="932" y="1000" type="qcurve"/>
      <point x="641" y="1000" type="line"/>
      <point x="641" y="776" type="line"/>
      <point x="968" y="776" type="line"/>
      <point x="968" y="776"/>
      <point x="968" y="776"/>
      <point x="968" y="776" type="qcurve"/>
      <point x="968" y="214" type="line"/>
      <point x="968" y="214"/>
      <point x="968" y="214"/>
      <point x="968" y="214" type="qcurve"/>
      <point x="572" y="214" type="line"/>
      <point x="572" y="-10" type="line"/>
      <point x="970" y="-10" type="line" smooth="yes"/>
      <point x="1086.21" y="-10"/>
      <point x="1216" y="67.2272"/>
      <point x="1216" y="194" type="qcurve" smooth="yes"/>
      <point x="1216" y="767" type="line" smooth="yes"/>
      <point x="1216" y="849.251"/>
      <point x="1155.58" y="931.399"/>
      <point x="1102" y="948" type="qcurve"/>
      <point x="1143.5" y="972.902"/>
      <point x="1180" y="1059.84"/>
      <point x="1180" y="1127" type="qcurve" smooth="yes"/>
      <point x="1180" y="1244" type="line" smooth="yes"/>
      <point x="1180" y="1352.66"/>
      <point x="1061.34" y="1448"/>
      <point x="924" y="1448" type="qcurve" smooth="yes"/>
      <point x="422" y="1448" type="line" smooth="yes"/>
      <point x="284.663" y="1448"/>
      <point x="166" y="1352.66"/>
      <point x="166" y="1244" type="qcurve" smooth="yes"/>
    </contour>
  </outline>
</glyph>
<glyph name="acircumflex" format="2">
  <advance width="1348"/>
  <unicode hex="00E2"/>
  <anchor x="672" y="1548" name="top"/>
  <anchor x="662" y="-150" name="bottom"/>
  <anchor x="934" y="0" name="ogonek"/>
  <anchor x="1056" y="1267" name="topright"/>
  <outline>
    <contour>
      <point x="388" y="-10" type="qcurve" smooth="yes"/>
      <point x="672" y="-10" type="line" smooth="yes"/>
      <point x="762.552" y="-10"/>
      <point x="908.344" y="57.9388"/>
      <point x="934" y="150" type="qcurve"/>
      <point x="934" y="0" type="line"/>
      <point x="1182" y="0" type="line"/>
      <point x="1182" y="814" type="line" smooth="yes"/>
      <point x="1182" y="937.754"/>
      <point x="1046.17" y="1010"/>
      <point x="936" y="1010" type="qcurve" smooth="yes"/>
      <point x="402" y="1010" type="line" smooth="yes"/>
      <point x="291.828" y="1010"/>
      <point x="156" y="937.754"/>
      <point x="156" y="814" type="qcurve" smooth="yes"/>
      <point x="156" y="764" type="line"/>
      <point x="404" y="718" type="line"/>
      <point x="404" y="806" type="line"/>
      <point x="404" y="806"/>
      <point x="404" y="806"/>
      <point x="404" y="806" type="qcurve"/>
      <point x="934" y="806" type="line"/>
      <point x="934" y="806"/>
      <point x="934" y="806"/>
      <point x="934" y="806" type="qcurve"/>
      <point x="934" y="598" type="line"/>
      <point x="428" y="598" type="line" smooth="yes"/>
      <point x="318.5" y="598"/>
      <point x="142" y="527"/>
      <point x="142" y="404" type="qcurve" smooth="yes"/>
      <point x="142" y="194" type="line" smooth="yes"/>
      <point x="142" y="67.2272"/>
      <point x="271.792" y="-10"/>
    </contour>
    <contour>
      <point x="390" y="194" type="qcurve"/>
      <point x="390" y="394" type="line"/>
      <point x="390" y="394"/>
      <point x="390" y="394"/>
      <point x="390" y="394" type="qcurve"/>
      <point x="934" y="394" type="line"/>
      <point x="934" y="194" type="line"/>
      <point x="390" y="194" type="line"/>
      <point x="390" y="194"/>
      <point x="390" y="194"/>
    </contour>
    <contour>
      <point x="289" y="1085" type="line"/>
      <point x="509" y="1085" type="line"/>
      <point x="670" y="1305" type="line"/>
      <point x="830" y="1085" type="line"/>
      <point x="1056" y="1085" type="line"/>
      <point x="754" y="1448" type="line"/>
      <point x="593" y="1448" type="line"/>
    </contour>
  </outline>
  <guideline angle="90" color="1,0,0,1" x="934" y="0"/>
</glyph>
<glyph name="atilde" format="2">
  <advance width="1348"/>
  <unicode hex="00E3"/>
  <anchor x="672" y="1465" name="top"/>
  <anchor x="662" y="-150" name="bottom"/>
  <anchor x="1130" y="0" name="ogonek"/>
  <outline>
    <contour>
      <point x="388" y="-10" type="qcurve" smooth="yes"/>
      <point x="672" y="-10" type="line" smooth="yes"/>
      <point x="762.552" y="-10"/>
      <point x="908.344" y="57.9388"/>
      <point x="934" y="150" type="qcurve"/>
      <point x="934" y="0" type="line"/>
      <point x="1182" y="0" type="line"/>
      <point x="1182" y="814" type="line" smooth="yes"/>
      <point x="1182" y="937.754"/>
      <point x="1046.17" y="1010"/>
      <point x="936" y="1010" type="qcurve" smooth="yes"/>
      <point x="402" y="1010" type="line" smooth="yes"/>
      <point x="291.828" y="1010"/>
      <point x="156" y="937.754"/>
      <point x="156" y="814" type="qcurve" smooth="yes"/>
      <point x="156" y="764" type="line"/>
      <point x="404" y="718" type="line"/>
      <point x="404" y="806" type="line"/>
      <point x="404" y="806"/>
      <point x="404" y="806"/>
      <point x="404" y="806" type="qcurve"/>
      <point x="934" y="806" type="line"/>
      <point x="934" y="806"/>
      <point x="934" y="806"/>
      <point x="934" y="806" type="qcurve"/>
      <point x="934" y="598" type="line"/>
      <point x="428" y="598" type="line" smooth="yes"/>
      <point x="318.5" y="598"/>
      <point x="142" y="527"/>
      <point x="142" y="404" type="qcurve" smooth="yes"/>
      <point x="142" y="194" type="line" smooth="yes"/>
      <point x="142" y="67.2272"/>
      <point x="271.792" y="-10"/>
    </contour>
    <contour>
      <point x="390" y="194" type="qcurve"/>
      <point x="390" y="394" type="line"/>
      <point x="390" y="394"/>
      <point x="390" y="394"/>
      <point x="390" y="394" type="qcurve"/>
      <point x="934" y="394" type="line"/>
      <point x="934" y="194" type="line"/>
      <point x="390" y="194" type="line"/>
      <point x="390" y="194"/>
      <point x="390" y="194"/>
    </contour>
    <contour>
      <point x="272" y="1159" type="qcurve"/>
      <point x="432" y="1131" type="line"/>
      <point x="442.564" y="1183.82"/>
      <point x="496.325" y="1220"/>
      <point x="525" y="1220" type="qcurve" smooth="yes"/>
      <point x="552" y="1220"/>
      <point x="615.719" y="1191.88"/>
      <point x="689.031" y="1158.12"/>
      <point x="771.875" y="1130"/>
      <point x="818" y="1130" type="qcurve" smooth="yes"/>
      <point x="893.75" y="1130"/>
      <point x="1045" y="1226.5"/>
      <point x="1072" y="1372" type="qcurve"/>
      <point x="912" y="1400" type="line"/>
      <point x="901.436" y="1347.18"/>
      <point x="847.675" y="1311"/>
      <point x="819" y="1311" type="qcurve" smooth="yes"/>
      <point x="792" y="1311"/>
      <point x="728.281" y="1338.81"/>
      <point x="654.969" y="1372.19"/>
      <point x="572.125" y="1400"/>
      <point x="526" y="1400" type="qcurve" smooth="yes"/>
      <point x="450.25" y="1400"/>
      <point x="298.25" y="1303"/>
    </contour>
  </outline>
  <guideline angle="90" color="1,0,0,1" x="934" y="0"/>
</glyph>
<glyph name="aring" format="2">
  <advance width="1348"/>
  <unicode hex="00E5"/>
  <anchor x="672" y="1574" name="top"/>
  <anchor x="662" y="-150" name="bottom"/>
  <anchor x="1130" y="0" name="ogonek"/>
  <outline>
    <contour>
      <point x="388" y="-10" type="qcurve" smooth="yes"/>
      <point x="672" y="-10" type="line" smooth="yes"/>
      <point x="763" y="-10"/>
      <point x="908" y="58"/>
      <point x="934" y="150" type="qcurve"/>
      <point x="934" y="0" type="line"/>
      <point x="1182" y="0" type="line"/>
      <point x="1182" y="814" type="line" smooth="yes"/>
      <point x="1182" y="938"/>
      <point x="1046" y="1010"/>
      <point x="936" y="1010" type="qcurve" smooth="yes"/>
      <point x="402" y="1010" type="line" smooth="yes"/>
      <point x="292" y="1010"/>
      <point x="156" y="938"/>
      <point x="156" y="814" type="qcurve" smooth="yes"/>
      <point x="156" y="764" type="line"/>
      <point x="404" y="718" type="line"/>
      <point x="404" y="806" type="line"/>
      <point x="404" y="806"/>
      <point x="404" y="806"/>
      <point x="404" y="806" type="qcurve"/>
      <point x="934" y="806" type="line"/>
      <point x="934" y="806"/>
      <point x="934" y="806"/>
      <point x="934" y="806" type="qcurve"/>
      <point x="934" y="598" type="line"/>
      <point x="428" y="598" type="line" smooth="yes"/>
      <point x="319" y="598"/>
      <point x="142" y="527"/>
      <point x="142" y="404" type="qcurve" smooth="yes"/>
      <point x="142" y="194" type="line" smooth="yes"/>
      <point x="142" y="67"/>
      <point x="272" y="-10"/>
    </contour>
    <contour>
      <point x="390" y="194" type="qcurve"/>
      <point x="390" y="394" type="line"/>
      <point x="390" y="394"/>
      <point x="390" y="394"/>
      <point x="390" y="394" type="qcurve"/>
      <point x="934" y="394" type="line"/>
      <point x="934" y="194" type="line"/>
      <point x="390" y="194" type="line"/>
      <point x="390" y="194"/>
      <point x="390" y="194"/>
    </contour>
    <contour>
      <point x="672" y="1079" type="qcurve" smooth="yes"/>
      <point x="735" y="1079"/>
      <point x="813" y="1094"/>
      <point x="856" y="1135"/>
      <point x="871" y="1208"/>
      <point x="871" y="1267" type="qcurve" smooth="yes"/>
      <point x="871" y="1326"/>
      <point x="856" y="1399"/>
      <point x="813" y="1440"/>
      <point x="735" y="1454"/>
      <point x="672" y="1454" type="qcurve" smooth="yes"/>
      <point x="608" y="1454"/>
      <point x="530" y="1440"/>
      <point x="487" y="1399"/>
      <point x="473" y="1326"/>
      <point x="473" y="1267" type="qcurve" smooth="yes"/>
      <point x="473" y="1208"/>
      <point x="487" y="1135"/>
      <point x="530" y="1094"/>
      <point x="608" y="1079"/>
    </contour>
    <contour>
      <point x="672" y="1191" type="qcurve" smooth="yes"/>
      <point x="623" y="1191"/>
      <point x="600" y="1225"/>
      <point x="600" y="1267" type="qcurve" smooth="yes"/>
      <point x="600" y="1308"/>
      <point x="623" y="1342"/>
      <point x="672" y="1342" type="qcurve" smooth="yes"/>
      <point x="720" y="1342"/>
      <point x="744" y="1308"/>
      <point x="744" y="1267" type="qcurve" smooth="yes"/>
      <point x="744" y="1225"/>
      <point x="720" y="1191"/>
    </contour>
  </outline>
  <guideline angle="90" color="1,0,0,1" x="934" y="0"/>
</glyph>
<glyph name="ae" format="2">
  <advance width="2102"/>
  <unicode hex="00E6"/>
  <anchor x="1066" y="1150" name="top"/>
  <anchor x="1046" y="-150" name="bottom"/>
  <outline>
    <contour>
      <point x="388" y="-10" type="qcurve" smooth="yes"/>
      <point x="758" y="-10" type="line" smooth="yes"/>
      <point x="835.724" y="-10"/>
      <point x="953.061" y="34.7056"/>
      <point x="984" y="83" type="qcurve"/>
      <point x="1016.45" y="34.7056"/>
      <point x="1137.52" y="-10"/>
      <point x="1216" y="-10" type="qcurve" smooth="yes"/>
      <point x="1698" y="-10" type="line" smooth="yes"/>
      <point x="1755" y="-10"/>
      <point x="1845.5" y="6.5"/>
      <point x="1908.5" y="51.5"/>
      <point x="1942" y="131"/>
      <point x="1942" y="194" type="qcurve" smooth="yes"/>
      <point x="1942" y="252" type="line"/>
      <point x="1694" y="298" type="line"/>
      <point x="1694" y="194" type="line"/>
      <point x="1694" y="194"/>
      <point x="1694" y="194"/>
      <point x="1694" y="194" type="qcurve"/>
      <point x="1170" y="194" type="line"/>
      <point x="1170" y="194"/>
      <point x="1170" y="194"/>
      <point x="1170" y="194" type="qcurve"/>
      <point x="1170" y="400" type="line"/>
      <point x="1950" y="400" type="line"/>
      <point x="1950" y="814" type="line" smooth="yes"/>
      <point x="1950" y="874.75"/>
      <point x="1914.25" y="951.188"/>
      <point x="1849.75" y="994.312"/>
      <point x="1760" y="1010"/>
      <point x="1706" y="1010" type="qcurve" smooth="yes"/>
      <point x="1350" y="1010" type="line" smooth="yes"/>
      <point x="1266.99" y="1010"/>
      <point x="1137.96" y="968.54"/>
      <point x="1104" y="921" type="qcurve"/>
      <point x="1073.06" y="967.785"/>
      <point x="955.724" y="1010"/>
      <point x="878" y="1010" type="qcurve" smooth="yes"/>
      <point x="402" y="1010" type="line" smooth="yes"/>
      <point x="347.25" y="1010"/>
      <point x="256.688" y="994.312"/>
      <point x="191.812" y="951.188"/>
      <point x="156" y="874.75"/>
      <point x="156" y="814" type="qcurve" smooth="yes"/>
      <point x="156" y="760" type="line"/>
      <point x="404" y="716" type="line"/>
      <point x="404" y="806" type="line"/>
      <point x="404" y="806"/>
      <point x="404" y="806"/>
      <point x="404" y="806" type="qcurve"/>
      <point x="922" y="806" type="line"/>
      <point x="922" y="806"/>
      <point x="922" y="806"/>
      <point x="922" y="806" type="qcurve"/>
      <point x="922" y="610" type="line"/>
      <point x="388" y="610" type="line" smooth="yes"/>
      <point x="333.25" y="610"/>
      <point x="242.688" y="595.438"/>
      <point x="177.812" y="553.062"/>
      <point x="142" y="476.25"/>
      <point x="142" y="414" type="qcurve" smooth="yes"/>
      <point x="142" y="194" type="line" smooth="yes"/>
      <point x="142" y="131"/>
      <point x="175.562" y="51.5"/>
      <point x="238.938" y="6.5"/>
      <point x="330.25" y="-10"/>
    </contour>
    <contour>
      <point x="390" y="194" type="line"/>
      <point x="390" y="194"/>
      <point x="390" y="194"/>
      <point x="390" y="194" type="qcurve"/>
      <point x="390" y="400" type="line"/>
      <point x="390" y="400"/>
      <point x="390" y="400"/>
      <point x="390" y="400" type="qcurve"/>
      <point x="922" y="400" type="line"/>
      <point x="922" y="194" type="line"/>
      <point x="922" y="194"/>
      <point x="922" y="194"/>
      <point x="922" y="194" type="qcurve"/>
    </contour>
    <contour>
      <point x="1170" y="610" type="line"/>
      <point x="1170" y="806" type="line"/>
      <point x="1170" y="806"/>
      <point x="1170" y="806"/>
      <point x="1170" y="806" type="qcurve"/>
      <point x="1702" y="806" type="line"/>
      <point x="1702" y="806"/>
      <point x="1702" y="806"/>
      <point x="1702" y="806" type="qcurve"/>
      <point x="1702" y="610" type="line"/>
    </contour>
  </outline>
</glyph>
<glyph name="ccedilla" format="2">
  <advance width="1341"/>
  <unicode hex="00E7"/>
  <anchor x="687" y="1150" name="top"/>
  <anchor x="689" y="-150" name="bottom"/>
  <anchor x="689" y="0" name="ogrev"/>
  <outline>
    <contour>
      <point x="152" y="204" type="line" smooth="yes"/>
      <point x="152" y="87.7916"/>
      <point x="267.644" y="-10"/>
      <point x="408" y="-10" type="qcurve" smooth="yes"/>
      <point x="970" y="-10" type="line" smooth="yes"/>
      <point x="1110.36" y="-10"/>
      <point x="1226" y="87.7916"/>
      <point x="1226" y="204" type="qcurve" smooth="yes"/>
      <point x="1226" y="306" type="line"/>
      <point x="978" y="358" type="line"/>
      <point x="978" y="214" type="line"/>
      <point x="978" y="214"/>
      <point x="978" y="214"/>
      <point x="978" y="214" type="qcurve"/>
      <point x="400" y="214" type="line"/>
      <point x="400" y="214"/>
      <point x="400" y="214"/>
      <point x="400" y="214" type="qcurve"/>
      <point x="400" y="786" type="line"/>
      <point x="400" y="786"/>
      <point x="400" y="786"/>
      <point x="400" y="786" type="qcurve"/>
      <point x="974" y="786" type="line"/>
      <point x="974" y="786"/>
      <point x="974" y="786"/>
      <point x="974" y="786" type="qcurve"/>
      <point x="974" y="652" type="line"/>
      <point x="1222" y="700" type="line"/>
      <point x="1222" y="806" type="line" smooth="yes"/>
      <point x="1222" y="916.172"/>
      <point x="1104.85" y="1010"/>
      <point x="966" y="1010" type="qcurve" smooth="yes"/>
      <point x="408" y="1010" type="line" smooth="yes"/>
      <point x="270.663" y="1010"/>
      <point x="152" y="916.172"/>
      <point x="152" y="806" type="qcurve" smooth="yes"/>
    </contour>
    <contour>
      <point x="670.92" y="-438" type="qcurve" smooth="yes"/>
      <point x="767.941" y="-438"/>
      <point x="874" y="-348.886"/>
      <point x="874" y="-267.366" type="qcurve" smooth="yes"/>
      <point x="874" y="-189.24"/>
      <point x="773.525" y="-108.776"/>
      <point x="675" y="-108" type="qcurve"/>
      <point x="731.951" y="15" type="line"/>
      <point x="688.951" y="15" type="line"/>
      <point x="645.951" y="15" type="line"/>
      <point x="535" y="-225" type="line"/>
      <point x="557.635" y="-217.927"/>
      <point x="604.896" y="-210"/>
      <point x="624.436" y="-210" type="qcurve" smooth="yes"/>
      <point x="661.618" y="-210"/>
      <point x="700" y="-239.742"/>
      <point x="700" y="-268.555" type="qcurve" smooth="yes"/>
      <point x="700" y="-298.118"/>
      <point x="660.886" y="-331"/>
      <point x="625.72" y="-331" type="qcurve" smooth="yes"/>
      <point x="604.903" y="-331"/>
      <point x="560.096" y="-320.185"/>
      <point x="547" y="-312" type="qcurve"/>
      <point x="503" y="-388" type="line"/>
      <point x="538.712" y="-413.395"/>
      <point x="621.344" y="-438"/>
    </contour>
  </outline>
  <guideline angle="0" x="0" y="25"/>
</glyph>
<glyph name="egrave" format="2">
  <advance width="1376"/>
  <unicode hex="00E8"/>
  <anchor x="688" y="1150" name="top"/>
  <anchor x="688" y="-150" name="bottom"/>
  <anchor x="906" y="-10" name="ogonek"/>
  <outline>
    <contour>
      <point x="152" y="250" type="line" smooth="yes"/>
      <point x="152" y="108"/>
      <point x="299" y="-10"/>
      <point x="450" y="-10" type="qcurve" smooth="yes"/>
      <point x="906" y="-10" type="line" smooth="yes"/>
      <point x="1078" y="-10"/>
      <point x="1224" y="110"/>
      <point x="1224" y="250" type="qcurve" smooth="yes"/>
      <point x="1224" y="260" type="line"/>
      <point x="976" y="304" type="line"/>
      <point x="976" y="194" type="line"/>
      <point x="976" y="194"/>
      <point x="976" y="194"/>
      <point x="976" y="194" type="qcurve"/>
      <point x="400" y="194" type="line"/>
      <point x="400" y="194"/>
      <point x="400" y="194"/>
      <point x="400" y="194" type="qcurve"/>
      <point x="400" y="402" type="line"/>
      <point x="1224" y="402" type="line"/>
      <point x="1224" y="786" type="line" smooth="yes"/>
      <point x="1224" y="895"/>
      <point x="1089" y="1010"/>
      <point x="952" y="1010" type="qcurve" smooth="yes"/>
      <point x="422" y="1010" type="line" smooth="yes"/>
      <point x="285" y="1010"/>
      <point x="152" y="897"/>
      <point x="152" y="790" type="qcurve" smooth="yes"/>
    </contour>
    <contour>
      <point x="400" y="606" type="line"/>
      <point x="400" y="806" type="line"/>
      <point x="400" y="806"/>
      <point x="400" y="806"/>
      <point x="400" y="806" type="qcurve"/>
      <point x="976" y="806" type="line"/>
      <point x="976" y="806"/>
      <point x="976" y="806"/>
      <point x="976" y="806" type="qcurve"/>
      <point x="976" y="606" type="line"/>
    </contour>
    <contour>
      <point x="680" y="1085" type="line"/>
      <point x="905" y="1085" type="line"/>
      <point x="593" y="1448" type="line"/>
      <point x="338" y="1448" type="line"/>
    </contour>
  </outline>
  <guideline angle="0" color="1,0,0,1" x="0" y="-1010"/>
</glyph>
<glyph name="eacute" format="2">
  <advance width="1376"/>
  <unicode hex="00E9"/>
  <anchor x="687" y="1150" name="top"/>
  <anchor x="678" y="-150" name="bottom"/>
  <anchor x="678" y="0" name="ogonek"/>
  <outline>
    <contour>
      <point x="152" y="250" type="line" smooth="yes"/>
      <point x="152" y="108"/>
      <point x="299" y="-10"/>
      <point x="450" y="-10" type="qcurve" smooth="yes"/>
      <point x="906" y="-10" type="line" smooth="yes"/>
      <point x="1078" y="-10"/>
      <point x="1224" y="110"/>
      <point x="1224" y="250" type="qcurve" smooth="yes"/>
      <point x="1224" y="260" type="line"/>
      <point x="976" y="304" type="line"/>
      <point x="976" y="194" type="line"/>
      <point x="976" y="194"/>
      <point x="976" y="194"/>
      <point x="976" y="194" type="qcurve"/>
      <point x="400" y="194" type="line"/>
      <point x="400" y="194"/>
      <point x="400" y="194"/>
      <point x="400" y="194" type="qcurve"/>
      <point x="400" y="402" type="line"/>
      <point x="1224" y="402" type="line"/>
      <point x="1224" y="786" type="line" smooth="yes"/>
      <point x="1224" y="895"/>
      <point x="1089" y="1010"/>
      <point x="952" y="1010" type="qcurve" smooth="yes"/>
      <point x="422" y="1010" type="line" smooth="yes"/>
      <point x="285" y="1010"/>
      <point x="152" y="897"/>
      <point x="152" y="790" type="qcurve" smooth="yes"/>
    </contour>
    <contour>
      <point x="400" y="606" type="line"/>
      <point x="400" y="806" type="line"/>
      <point x="400" y="806"/>
      <point x="400" y="806"/>
      <point x="400" y="806" type="qcurve"/>
      <point x="976" y="806" type="line"/>
      <point x="976" y="806"/>
      <point x="976" y="806"/>
      <point x="976" y="806" type="qcurve"/>
      <point x="976" y="606" type="line"/>
    </contour>
    <contour>
      <point x="470" y="1085" type="line"/>
      <point x="695" y="1085" type="line"/>
      <point x="1037" y="1448" type="line"/>
      <point x="782" y="1448" type="line"/>
    </contour>
  </outline>
  <guideline angle="0" color="1,0,0,1" x="0" y="-1010"/>
</glyph>
<glyph name="igrave" format="2">
  <advance width="608"/>
  <unicode hex="00EC"/>
  <anchor x="304" y="-150" name="bottom"/>
  <anchor x="304" y="1150" name="top"/>
  <anchor x="376" y="0" name="ogonek"/>
  <outline>
    <contour>
      <point x="180" y="0" type="line"/>
      <point x="428" y="0" type="line"/>
      <point x="428" y="1000" type="line"/>
      <point x="180" y="1000" type="line"/>
    </contour>
    <contour>
      <point x="521" y="1085" type="line"/>
      <point x="209" y="1448" type="line"/>
      <point x="-46" y="1448" type="line"/>
      <point x="296" y="1085" type="line"/>
    </contour>
  </outline>
</glyph>
<glyph name="icircumflex" format="2">
  <advance width="608"/>
  <unicode hex="00EE"/>
  <anchor x="304" y="-150" name="bottom"/>
  <anchor x="304" y="1548" name="top"/>
  <anchor x="180" y="0" name="ogonek"/>
  <anchor x="688" y="1267" name="topright"/>
  <outline>
    <contour>
      <point x="180" y="0" type="line"/>
      <point x="428" y="0" type="line"/>
      <point x="428" y="1000" type="line"/>
      <point x="180" y="1000" type="line"/>
    </contour>
    <contour>
      <point x="-79" y="1085" type="line"/>
      <point x="141" y="1085" type="line"/>
      <point x="302" y="1305" type="line"/>
      <point x="462" y="1085" type="line"/>
      <point x="688" y="1085" type="line"/>
      <point x="386" y="1448" type="line"/>
      <point x="225" y="1448" type="line"/>
    </contour>
  </outline>
</glyph>
<glyph name="eth" format="2">
  <advance width="1396"/>
  <unicode hex="00F0"/>
  <outline>
    <contour>
      <point x="408" y="-10" type="qcurve" smooth="yes"/>
      <point x="988" y="-10" type="line" smooth="yes"/>
      <point x="1128.36" y="-10"/>
      <point x="1244" y="87.7916"/>
      <point x="1244" y="204" type="qcurve" smooth="yes"/>
      <point x="1244" y="581" type="line" smooth="yes"/>
      <point x="1244" y="813.417"/>
      <point x="1122.64" y="1132.11"/>
      <point x="1017" y="1237" type="qcurve"/>
      <point x="1241" y="1298" type="line"/>
      <point x="1207" y="1424" type="line"/>
      <point x="889" y="1338" type="line"/>
      <point x="821.086" y="1380.26"/>
      <point x="667.515" y="1439.13"/>
      <point x="583" y="1458" type="qcurve"/>
      <point x="343" y="1384" type="line"/>
      <point x="422.988" y="1362.12"/>
      <point x="565.368" y="1303.98"/>
      <point x="628" y="1267" type="qcurve"/>
      <point x="399" y="1205" type="line"/>
      <point x="433" y="1079" type="line"/>
      <point x="762" y="1168" type="line"/>
      <point x="799.73" y="1133.29"/>
      <point x="863.589" y="1054.52"/>
      <point x="890" y="1010" type="qcurve"/>
      <point x="408" y="1010" type="line" smooth="yes"/>
      <point x="270.663" y="1010"/>
      <point x="152" y="914.662"/>
      <point x="152" y="806" type="qcurve" smooth="yes"/>
      <point x="152" y="204" type="line" smooth="yes"/>
      <point x="152" y="87.7916"/>
      <point x="269.154" y="-10"/>
    </contour>
    <contour>
      <point x="976" y="786" type="line"/>
      <point x="985.81" y="738.46"/>
      <point x="996" y="636.84"/>
      <point x="996" y="581" type="qcurve" smooth="yes"/>
      <point x="996" y="214" type="line"/>
      <point x="996" y="214"/>
      <point x="996" y="214"/>
      <point x="996" y="214" type="qcurve"/>
      <point x="400" y="214" type="line"/>
      <point x="400" y="214"/>
      <point x="400" y="214"/>
      <point x="400" y="214" type="qcurve"/>
      <point x="400" y="786" type="line"/>
      <point x="400" y="786"/>
      <point x="400" y="786"/>
      <point x="400" y="786" type="qcurve"/>
    </contour>
  </outline>
</glyph>
<glyph name="ntilde" format="2">
  <advance width="1378"/>
  <unicode hex="00F1"/>
  <anchor x="696" y="1475" name="top"/>
  <anchor x="696" y="-150" name="bottom"/>
  <outline>
    <contour>
      <point x="180" y="0" type="line"/>
      <point x="428" y="0" type="line"/>
      <point x="428" y="786" type="line"/>
      <point x="964" y="786" type="line"/>
      <point x="964" y="786"/>
      <point x="964" y="786"/>
      <point x="964" y="786" type="qcurve"/>
      <point x="964" y="0" type="line"/>
      <point x="1212" y="0" type="line"/>
      <point x="1212" y="760" type="line" smooth="yes"/>
      <point x="1212" y="894"/>
      <point x="1064" y="1010"/>
      <point x="894" y="1010" type="qcurve" smooth="yes"/>
      <point x="710" y="1010" type="line" smooth="yes"/>
      <point x="592" y="1010"/>
      <point x="458" y="957"/>
      <point x="428" y="906" type="qcurve"/>
      <point x="428" y="1000" type="line"/>
      <point x="180" y="1000" type="line"/>
    </contour>
    <contour>
      <point x="296" y="1169" type="qcurve"/>
      <point x="456" y="1141" type="line"/>
      <point x="467" y="1194"/>
      <point x="520" y="1230"/>
      <point x="549" y="1230" type="qcurve" smooth="yes"/>
      <point x="576" y="1230"/>
      <point x="640" y="1202"/>
      <point x="713" y="1168"/>
      <point x="796" y="1140"/>
      <point x="842" y="1140" type="qcurve" smooth="yes"/>
      <point x="918" y="1140"/>
      <point x="1069" y="1237"/>
      <point x="1096" y="1382" type="qcurve"/>
      <point x="936" y="1410" type="line"/>
      <point x="925" y="1357"/>
      <point x="872" y="1321"/>
      <point x="843" y="1321" type="qcurve" smooth="yes"/>
      <point x="816" y="1321"/>
      <point x="752" y="1349"/>
      <point x="679" y="1382"/>
      <point x="596" y="1410"/>
      <point x="550" y="1410" type="qcurve" smooth="yes"/>
      <point x="474" y="1410"/>
      <point x="322" y="1313"/>
    </contour>
  </outline>
  <guideline angle="0" x="0" y="988"/>
  <guideline angle="0" x="0" y="870"/>
</glyph>
<glyph name="ocircumflex" format="2">
  <advance width="1396"/>
  <unicode hex="00F4"/>
  <anchor x="698" y="1548" name="top"/>
  <anchor x="698" y="-150" name="bottom"/>
  <anchor x="1244" y="804" name="horn"/>
  <anchor x="796" y="0" name="ogonek"/>
  <anchor x="1082" y="1267" name="topright"/>
  <outline>
    <contour>
      <point x="152" y="204" type="line" smooth="yes"/>
      <point x="152" y="88"/>
      <point x="269" y="-10"/>
      <point x="408" y="-10" type="qcurve" smooth="yes"/>
      <point x="988" y="-10" type="line" smooth="yes"/>
      <point x="1128" y="-10"/>
      <point x="1244" y="88"/>
      <point x="1244" y="204" type="qcurve" smooth="yes"/>
      <point x="1244" y="806" type="line" smooth="yes"/>
      <point x="1244" y="915"/>
      <point x="1126" y="1010"/>
      <point x="988" y="1010" type="qcurve" smooth="yes"/>
      <point x="408" y="1010" type="line" smooth="yes"/>
      <point x="271" y="1010"/>
      <point x="152" y="915"/>
      <point x="152" y="806" type="qcurve" smooth="yes"/>
    </contour>
    <contour>
      <point x="400" y="214" type="qcurve"/>
      <point x="400" y="786" type="line"/>
      <point x="400" y="786"/>
      <point x="400" y="786"/>
      <point x="400" y="786" type="qcurve"/>
      <point x="996" y="786" type="line"/>
      <point x="996" y="786"/>
      <point x="996" y="786"/>
      <point x="996" y="786" type="qcurve"/>
      <point x="996" y="214" type="line"/>
      <point x="996" y="214"/>
      <point x="996" y="214"/>
      <point x="996" y="214" type="qcurve"/>
      <point x="400" y="214" type="line"/>
      <point x="400" y="214"/>
      <point x="400" y="214"/>
    </contour>
    <contour>
      <point x="315" y="1085" type="line"/>
      <point x="535" y="1085" type="line"/>
      <point x="696" y="1305" type="line"/>
      <point x="856" y="1085" type="line"/>
      <point x="1082" y="1085" type="line"/>
      <point x="780" y="1448" type="line"/>
      <point x="619" y="1448" type="line"/>
    </contour>
  </outline>
</glyph>
<glyph name="divide" format="2">
  <advance width="1438"/>
  <unicode hex="00F7"/>
  <outline>
    <contour>
      <point x="684" y="57" type="qcurve" smooth="yes"/>
      <point x="754" y="57" type="line" smooth="yes"/>
      <point x="820" y="57"/>
      <point x="850" y="89"/>
      <point x="850" y="162" type="qcurve" smooth="yes"/>
      <point x="850" y="233" type="line" smooth="yes"/>
      <point x="850" y="305"/>
      <point x="820" y="337"/>
      <point x="754" y="337" type="qcurve" smooth="yes"/>
      <point x="684" y="337" type="line" smooth="yes"/>
      <point x="619" y="337"/>
      <point x="590" y="305"/>
      <point x="590" y="233" type="qcurve" smooth="yes"/>
      <point x="590" y="162" type="line" smooth="yes"/>
      <point x="590" y="89"/>
      <point x="618" y="57"/>
    </contour>
    <contour>
      <point x="130" y="483" type="line"/>
      <point x="1308" y="483" type="line"/>
      <point x="1308" y="691" type="line"/>
      <point x="130" y="691" type="line"/>
    </contour>
    <contour>
      <point x="684" y="835" type="qcurve" smooth="yes"/>
      <point x="754" y="835" type="line" smooth="yes"/>
      <point x="820" y="835"/>
      <point x="850" y="867"/>
      <point x="850" y="940" type="qcurve" smooth="yes"/>
      <point x="850" y="1011" type="line" smooth="yes"/>
      <point x="850" y="1083"/>
      <point x="820" y="1115"/>
      <point x="754" y="1115" type="qcurve" smooth="yes"/>
      <point x="684" y="1115" type="line" smooth="yes"/>
      <point x="619" y="1115"/>
      <point x="590" y="1083"/>
      <point x="590" y="1011" type="qcurve" smooth="yes"/>
      <point x="590" y="940" type="line" smooth="yes"/>
      <point x="590" y="867"/>
      <point x="618" y="835"/>
    </contour>
  </outline>
</glyph>
<glyph name="oslash" format="2">
  <advance width="1522"/>
  <unicode hex="00F8"/>
  <anchor x="761" y="1150" name="top"/>
  <outline>
    <contour>
      <point x="215" y="204" type="line" smooth="yes"/>
      <point x="215" y="87.7916"/>
      <point x="332.154" y="-10"/>
      <point x="471" y="-10" type="qcurve" smooth="yes"/>
      <point x="1051" y="-10" type="line" smooth="yes"/>
      <point x="1191.36" y="-10"/>
      <point x="1307" y="87.7916"/>
      <point x="1307" y="204" type="qcurve" smooth="yes"/>
      <point x="1307" y="806" type="line" smooth="yes"/>
      <point x="1307" y="914.662"/>
      <point x="1188.34" y="1010"/>
      <point x="1051" y="1010" type="qcurve" smooth="yes"/>
      <point x="471" y="1010" type="line" smooth="yes"/>
      <point x="333.663" y="1010"/>
      <point x="215" y="914.662"/>
      <point x="215" y="806" type="qcurve" smooth="yes"/>
    </contour>
    <contour>
      <point x="463" y="214" type="qcurve"/>
      <point x="463" y="786" type="line"/>
      <point x="463" y="786"/>
      <point x="463" y="786"/>
      <point x="463" y="786" type="qcurve"/>
      <point x="1059" y="786" type="line"/>
      <point x="1059" y="786"/>
      <point x="1059" y="786"/>
      <point x="1059" y="786" type="qcurve"/>
      <point x="1059" y="214" type="line"/>
      <point x="1059" y="214"/>
      <point x="1059" y="214"/>
      <point x="1059" y="214" type="qcurve"/>
      <point x="463" y="214" type="line"/>
      <point x="463" y="214"/>
      <point x="463" y="214"/>
    </contour>
    <contour>
      <point x="260" y="-60" type="line"/>
      <point x="451" y="113" type="line"/>
      <point x="457" y="119" type="line"/>
      <point x="1152" y="743" type="line"/>
      <point x="1152" y="743" type="line"/>
      <point x="1370" y="940" type="line"/>
      <point x="1262" y="1060" type="line"/>
      <point x="1047" y="866" type="line"/>
      <point x="1046" y="865" type="line"/>
      <point x="354" y="242" type="line"/>
      <point x="350" y="238" type="line"/>
      <point x="152" y="60" type="line"/>
    </contour>
  </outline>
  <guideline angle="0" x="0" y="1060"/>
  <guideline angle="0" x="0" y="-60"/>
</glyph>
<glyph name="ugrave" format="2">
  <advance width="1364"/>
  <unicode hex="00F9"/>
  <anchor x="682" y="1150" name="top"/>
  <anchor x="682" y="-160" name="bottom"/>
  <anchor x="681" y="0" name="ogonek"/>
  <anchor x="1074" y="1000" name="horn"/>
  <outline>
    <contour>
      <point x="166" y="194" type="line" smooth="yes"/>
      <point x="166" y="67.2272"/>
      <point x="295.301" y="-10"/>
      <point x="410" y="-10" type="qcurve" smooth="yes"/>
      <point x="952" y="-10" type="line" smooth="yes"/>
      <point x="1066.7" y="-10"/>
      <point x="1198" y="67.2272"/>
      <point x="1198" y="194" type="qcurve" smooth="yes"/>
      <point x="1198" y="1000" type="line"/>
      <point x="950" y="1000" type="line"/>
      <point x="950" y="214" type="line"/>
      <point x="950" y="214"/>
      <point x="950" y="214"/>
      <point x="950" y="214" type="qcurve"/>
      <point x="414" y="214" type="line"/>
      <point x="414" y="214"/>
      <point x="414" y="214"/>
      <point x="414" y="214" type="qcurve"/>
      <point x="414" y="1000" type="line"/>
      <point x="166" y="1000" type="line"/>
    </contour>
    <contour>
      <point x="674" y="1085" type="line"/>
      <point x="899" y="1085" type="line"/>
      <point x="587" y="1448" type="line"/>
      <point x="332" y="1448" type="line"/>
    </contour>
  </outline>
</glyph>
<glyph name="uacute" format="2">
  <advance width="1364"/>
  <unicode hex="00FA"/>
  <anchor x="682" y="1150" name="top"/>
  <anchor x="682" y="-160" name="bottom"/>
  <anchor x="780" y="0" name="ogonek"/>
  <anchor x="1198" y="1000" name="horn"/>
  <outline>
    <contour>
      <point x="166" y="194" type="line" smooth="yes"/>
      <point x="166" y="67.2272"/>
      <point x="295.301" y="-10"/>
      <point x="410" y="-10" type="qcurve" smooth="yes"/>
      <point x="952" y="-10" type="line" smooth="yes"/>
      <point x="1066.7" y="-10"/>
      <point x="1198" y="67.2272"/>
      <point x="1198" y="194" type="qcurve" smooth="yes"/>
      <point x="1198" y="1000" type="line"/>
      <point x="950" y="1000" type="line"/>
      <point x="950" y="214" type="line"/>
      <point x="950" y="214"/>
      <point x="950" y="214"/>
      <point x="950" y="214" type="qcurve"/>
      <point x="414" y="214" type="line"/>
      <point x="414" y="214"/>
      <point x="414" y="214"/>
      <point x="414" y="214" type="qcurve"/>
      <point x="414" y="1000" type="line"/>
      <point x="166" y="1000" type="line"/>
    </contour>
    <contour>
      <point x="465" y="1085" type="line"/>
      <point x="690" y="1085" type="line"/>
      <point x="1032" y="1448" type="line"/>
      <point x="777" y="1448" type="line"/>
    </contour>
  </outline>
</glyph>
<glyph name="ucircumflex" format="2">
  <advance width="1364"/>
  <unicode hex="00FB"/>
  <anchor x="682" y="1548" name="top"/>
  <anchor x="682" y="-160" name="bottom"/>
  <anchor x="681" y="0" name="ogonek"/>
  <anchor x="1074" y="1000" name="horn"/>
  <anchor x="1066" y="1267" name="topright"/>
  <outline>
    <contour>
      <point x="166" y="194" type="line" smooth="yes"/>
      <point x="166" y="67"/>
      <point x="295" y="-10"/>
      <point x="410" y="-10" type="qcurve" smooth="yes"/>
      <point x="952" y="-10" type="line" smooth="yes"/>
      <point x="1067" y="-10"/>
      <point x="1198" y="67"/>
      <point x="1198" y="194" type="qcurve" smooth="yes"/>
      <point x="1198" y="1000" type="line"/>
      <point x="950" y="1000" type="line"/>
      <point x="950" y="214" type="line"/>
      <point x="950" y="214"/>
      <point x="950" y="214"/>
      <point x="950" y="214" type="qcurve"/>
      <point x="414" y="214" type="line"/>
      <point x="414" y="214"/>
      <point x="414" y="214"/>
      <point x="414" y="214" type="qcurve"/>
      <point x="414" y="1000" type="line"/>
      <point x="166" y="1000" type="line"/>
    </contour>
    <contour>
      <point x="299" y="1085" type="line"/>
      <point x="519" y="1085" type="line"/>
      <point x="680" y="1305" type="line"/>
      <point x="840" y="1085" type="line"/>
      <point x="1066" y="1085" type="line"/>
      <point x="764" y="1448" type="line"/>
      <point x="603" y="1448" type="line"/>
    </contour>
  </outline>
</glyph>
<glyph name="udieresis" format="2">
  <advance width="1364"/>
  <unicode hex="00FC"/>
  <anchor x="682" y="1460" name="top"/>
  <anchor x="682" y="-160" name="bottom"/>
  <anchor x="780" y="0" name="ogonek"/>
  <anchor x="1198" y="1000" name="horn"/>
  <outline>
    <contour>
      <point x="166" y="194" type="line" smooth="yes"/>
      <point x="166" y="67"/>
      <point x="295" y="-10"/>
      <point x="410" y="-10" type="qcurve" smooth="yes"/>
      <point x="952" y="-10" type="line" smooth="yes"/>
      <point x="1067" y="-10"/>
      <point x="1198" y="67"/>
      <point x="1198" y="194" type="qcurve" smooth="yes"/>
      <point x="1198" y="1000" type="line"/>
      <point x="950" y="1000" type="line"/>
      <point x="950" y="214" type="line"/>
      <point x="950" y="214"/>
      <point x="950" y="214"/>
      <point x="950" y="214" type="qcurve"/>
      <point x="414" y="214" type="line"/>
      <point x="414" y="214"/>
      <point x="414" y="214"/>
      <point x="414" y="214" type="qcurve"/>
      <point x="414" y="1000" type="line"/>
      <point x="166" y="1000" type="line"/>
    </contour>
    <contour>
      <point x="452" y="1146" type="qcurve" smooth="yes"/>
      <point x="512" y="1146" type="line" smooth="yes"/>
      <point x="578" y="1146"/>
      <point x="602" y="1170"/>
      <point x="602" y="1236" type="qcurve" smooth="yes"/>
      <point x="602" y="1298" type="line" smooth="yes"/>
      <point x="602" y="1363"/>
      <point x="578" y="1386"/>
      <point x="512" y="1386" type="qcurve" smooth="yes"/>
      <point x="452" y="1386" type="line" smooth="yes"/>
      <point x="386" y="1386"/>
      <point x="362" y="1363"/>
      <point x="362" y="1298" type="qcurve" smooth="yes"/>
      <point x="362" y="1236" type="line" smooth="yes"/>
      <point x="362" y="1170"/>
      <point x="386" y="1146"/>
    </contour>
    <contour>
      <point x="852" y="1146" type="qcurve" smooth="yes"/>
      <point x="912" y="1146" type="line" smooth="yes"/>
      <point x="978" y="1146"/>
      <point x="1002" y="1170"/>
      <point x="1002" y="1236" type="qcurve" smooth="yes"/>
      <point x="1002" y="1298" type="line" smooth="yes"/>
      <point x="1002" y="1363"/>
      <point x="978" y="1386"/>
      <point x="912" y="1386" type="qcurve" smooth="yes"/>
      <point x="852" y="1386" type="line" smooth="yes"/>
      <point x="786" y="1386"/>
      <point x="762" y="1363"/>
      <point x="762" y="1298" type="qcurve" smooth="yes"/>
      <point x="762" y="1236" type="line" smooth="yes"/>
      <point x="762" y="1170"/>
      <point x="786" y="1146"/>
    </contour>
  </outline>
</glyph>
<glyph name="thorn" format="2">
  <advance width="1414"/>
  <unicode hex="00FE"/>
  <outline>
    <contour>
      <point x="180" y="-428" type="line"/>
      <point x="428" y="-428" type="line"/>
      <point x="428" y="100" type="line"/>
      <point x="449" y="44"/>
      <point x="568" y="-10"/>
      <point x="668" y="-10" type="qcurve" smooth="yes"/>
      <point x="1006" y="-10" type="line" smooth="yes"/>
      <point x="1143" y="-10"/>
      <point x="1262" y="85"/>
      <point x="1262" y="194" type="qcurve" smooth="yes"/>
      <point x="1262" y="796" type="line" smooth="yes"/>
      <point x="1262" y="912"/>
      <point x="1145" y="1010"/>
      <point x="1006" y="1010" type="qcurve" smooth="yes"/>
      <point x="668" y="1010" type="line" smooth="yes"/>
      <point x="568" y="1010"/>
      <point x="449" y="956"/>
      <point x="428" y="900" type="qcurve"/>
      <point x="428" y="1448" type="line"/>
      <point x="180" y="1448" type="line"/>
    </contour>
    <contour>
      <point x="428" y="214" type="line"/>
      <point x="428" y="786" type="line"/>
      <point x="1014" y="786" type="line"/>
      <point x="1014" y="786"/>
      <point x="1014" y="786"/>
      <point x="1014" y="786" type="qcurve"/>
      <point x="1014" y="214" type="line"/>
      <point x="1014" y="214"/>
      <point x="1014" y="214"/>
      <point x="1014" y="214" type="qcurve"/>
    </contour>
  </outline>
</glyph>
<glyph name="Aogonek" format="2">
  <advance width="1654"/>
  <unicode hex="0104"/>
  <anchor x="828" y="1550" name="top"/>
  <anchor x="828" y="-150" name="bottom"/>
  <anchor x="1342" y="0" name="ogonek_in"/>
  <outline>
    <contour>
      <point x="0" y="0" type="line"/>
      <point x="290" y="0" type="line"/>
      <point x="457" y="326" type="line"/>
      <point x="1175" y="326" type="line"/>
      <point x="1342" y="0" type="line"/>
      <point x="1654" y="0" type="line"/>
      <point x="926" y="1400" type="line"/>
      <point x="718" y="1400" type="line"/>
    </contour>
    <contour>
      <point x="580" y="566" type="line"/>
      <point x="816" y="1025" type="line"/>
      <point x="1052" y="566" type="line"/>
    </contour>
    <contour>
      <point x="1406.5" y="-428" type="qcurve" smooth="yes"/>
      <point x="1458.79" y="-428"/>
      <point x="1556.11" y="-407.62"/>
      <point x="1600.1" y="-388" type="qcurve"/>
      <point x="1641.9" y="-209" type="line"/>
      <point x="1611.19" y="-224.092"/>
      <point x="1546.67" y="-239"/>
      <point x="1514.3" y="-239" type="qcurve" smooth="yes"/>
      <point x="1457.86" y="-239"/>
      <point x="1383.4" y="-193.785"/>
      <point x="1383.4" y="-147" type="qcurve" smooth="yes"/>
      <point x="1383.4" y="-93.4234"/>
      <point x="1480.83" y="-12.0736"/>
      <point x="1557.2" y="0" type="qcurve"/>
      <point x="1341.6" y="0" type="line"/>
      <point x="1253.61" y="-33.957"/>
      <point x="1148" y="-162.276"/>
      <point x="1148" y="-240" type="qcurve" smooth="yes"/>
      <point x="1148" y="-332.816"/>
      <point x="1294.44" y="-428"/>
    </contour>
  </outline>
</glyph>
<glyph name="aogonek" format="2">
  <advance width="1348"/>
  <unicode hex="0105"/>
  <anchor x="672" y="1150" name="top"/>
  <anchor x="662" y="-150" name="bottom"/>
  <anchor x="1130" y="0" name="ogonek"/>
  <outline>
    <contour>
      <point x="388" y="-10" type="qcurve" smooth="yes"/>
      <point x="672" y="-10" type="line" smooth="yes"/>
      <point x="762.552" y="-10"/>
      <point x="908.344" y="57.9388"/>
      <point x="934" y="150" type="qcurve"/>
      <point x="934" y="0" type="line"/>
      <point x="1182" y="0" type="line"/>
      <point x="1182" y="814" type="line" smooth="yes"/>
      <point x="1182" y="937.754"/>
      <point x="1046.17" y="1010"/>
      <point x="936" y="1010" type="qcurve" smooth="yes"/>
      <point x="402" y="1010" type="line" smooth="yes"/>
      <point x="291.828" y="1010"/>
      <point x="156" y="937.754"/>
      <point x="156" y="814" type="qcurve" smooth="yes"/>
      <point x="156" y="764" type="line"/>
      <point x="404" y="718" type="line"/>
      <point x="404" y="806" type="line"/>
      <point x="404" y="806"/>
      <point x="404" y="806"/>
      <point x="404" y="806" type="qcurve"/>
      <point x="934" y="806" type="line"/>
      <point x="934" y="806"/>
      <point x="934" y="806"/>
      <point x="934" y="806" type="qcurve"/>
      <point x="934" y="598" type="line"/>
      <point x="428" y="598" type="line" smooth="yes"/>
      <point x="318.5" y="598"/>
      <point x="142" y="527"/>
      <point x="142" y="404" type="qcurve" smooth="yes"/>
      <point x="142" y="194" type="line" smooth="yes"/>
      <point x="142" y="67.2272"/>
      <point x="271.792" y="-10"/>
    </contour>
    <contour>
      <point x="390" y="194" type="qcurve"/>
      <point x="390" y="394" type="line"/>
      <point x="390" y="394"/>
      <point x="390" y="394"/>
      <point x="390" y="394" type="qcurve"/>
      <point x="934" y="394" type="line"/>
      <point x="934" y="194" type="line"/>
      <point x="390" y="194" type="line"/>
      <point x="390" y="194"/>
      <point x="390" y="194"/>
    </contour>
    <contour>
      <point x="1130" y="0" type="qcurve"/>
      <point x="934" y="0" type="line"/>
      <point x="854.012" y="-33.957"/>
      <point x="758" y="-161.076"/>
      <point x="758" y="-235.108" type="qcurve" smooth="yes"/>
      <point x="758" y="-321.805"/>
      <point x="888.819" y="-428"/>
      <point x="995.888" y="-428" type="qcurve" smooth="yes"/>
      <point x="1041.25" y="-428"/>
      <point x="1129.01" y="-407.62"/>
      <point x="1169" y="-388" type="qcurve"/>
      <point x="1207" y="-209" type="line"/>
      <point x="1179.08" y="-224.092"/>
      <point x="1120.6" y="-239"/>
      <point x="1091.69" y="-239" type="qcurve" smooth="yes"/>
      <point x="1036.08" y="-239"/>
      <point x="972" y="-187.931"/>
      <point x="972" y="-144.671" type="qcurve" smooth="yes"/>
      <point x="972" y="-92.8518"/>
      <point x="1060.58" y="-12.0736"/>
    </contour>
  </outline>
  <guideline angle="90" color="1,0,0,1" x="934" y="0"/>
</glyph>
